<svg width="30" height="16" viewBox="0 0 30 16" fill="none" xmlns="http://www.w3.org/2000/svg">
<path d="M1.74219 7C1.1899 7 0.742188 7.44772 0.742188 8C0.742188 8.55228 1.1899 9 1.74219 9V7ZM29.4493 8.70711C29.8398 8.31658 29.8398 7.68342 29.4493 7.29289L23.0853 0.928932C22.6948 0.538408 22.0616 0.538408 21.6711 0.928932C21.2806 1.31946 21.2806 1.95262 21.6711 2.34315L27.328 8L21.6711 13.6569C21.2806 14.0474 21.2806 14.6805 21.6711 15.0711C22.0616 15.4616 22.6948 15.4616 23.0853 15.0711L29.4493 8.70711ZM1.74219 9H28.7422V7H1.74219V9Z" fill="#165FCD"/>
</svg>
