<svg width="31" height="28" viewBox="0 0 31 28" fill="none" xmlns="http://www.w3.org/2000/svg">
<path d="M27.5255 3.21626C26.8232 2.51364 25.9894 1.95627 25.0716 1.576C24.1539 1.19573 23.1702 1 22.1768 1C21.1834 1 20.1997 1.19573 19.2819 1.576C18.3642 1.95627 17.5303 2.51364 16.828 3.21626L15.3705 4.67376L13.913 3.21626C12.4944 1.79768 10.5704 1.00074 8.56427 1.00074C6.5581 1.00074 4.6341 1.79768 3.21552 3.21626C1.79695 4.63484 1 6.55884 1 8.56501C1 10.5712 1.79695 12.4952 3.21552 13.9138L4.67302 15.3713L15.3705 26.0688L26.068 15.3713L27.5255 13.9138C28.2281 13.2115 28.7855 12.3776 29.1658 11.4599C29.5461 10.5421 29.7418 9.55843 29.7418 8.56501C29.7418 7.57159 29.5461 6.5879 29.1658 5.67015C28.7855 4.75239 28.2281 3.91855 27.5255 3.21626V3.21626Z" fill="#165FCD" fill-opacity="0.5" stroke="#165FCD" stroke-width="2" stroke-linecap="round" stroke-linejoin="round"/>
</svg>
