<svg width="17" height="17" viewBox="0 0 17 17" fill="none" xmlns="http://www.w3.org/2000/svg">
<path d="M4.25 2.8335H9.91667C10.6681 2.8335 11.3888 3.13201 11.9201 3.66336C12.4515 4.19471 12.75 4.91538 12.75 5.66683C12.75 6.41828 12.4515 7.13895 11.9201 7.6703C11.3888 8.20165 10.6681 8.50016 9.91667 8.50016H4.25V2.8335Z" stroke="white" stroke-width="2" stroke-linecap="round" stroke-linejoin="round"/>
<path d="M4.25 8.5H10.625C11.3764 8.5 12.0971 8.79851 12.6285 9.32986C13.1598 9.86122 13.4583 10.5819 13.4583 11.3333C13.4583 12.0848 13.1598 12.8054 12.6285 13.3368C12.0971 13.8682 11.3764 14.1667 10.625 14.1667H4.25V8.5Z" stroke="white" stroke-width="2" stroke-linecap="round" stroke-linejoin="round"/>
</svg>
