<svg width="21" height="21" viewBox="0 0 21 21" fill="none" xmlns="http://www.w3.org/2000/svg">
<g filter="url(#filter0_d)">
<path fill-rule="evenodd" clip-rule="evenodd" d="M13 4H15C16.1046 4 17 4.89543 17 6V15C17 16.1046 16.1046 17 15 17H6C4.89543 17 4 16.1046 4 15V13H13V4Z" fill="white"/>
<path fill-rule="evenodd" clip-rule="evenodd" d="M13 4H15C16.1046 4 17 4.89543 17 6V15C17 16.1046 16.1046 17 15 17H6C4.89543 17 4 16.1046 4 15V13H4.5V15C4.5 15.8284 5.17157 16.5 6 16.5H15C15.8284 16.5 16.5 15.8284 16.5 15V6C16.5 5.17157 15.8284 4.5 15 4.5H13V4Z" fill="black" fill-opacity="0.3"/>
</g>
<defs>
<filter id="filter0_d" x="0" y="0" width="21" height="21" filterUnits="userSpaceOnUse" color-interpolation-filters="sRGB">
<feFlood flood-opacity="0" result="BackgroundImageFix"/>
<feColorMatrix in="SourceAlpha" type="matrix" values="0 0 0 0 0 0 0 0 0 0 0 0 0 0 0 0 0 0 127 0"/>
<feOffset/>
<feGaussianBlur stdDeviation="2"/>
<feColorMatrix type="matrix" values="0 0 0 0 0.137674 0 0 0 0 0.190937 0 0 0 0 0.270833 0 0 0 0.15 0"/>
<feBlend mode="normal" in2="BackgroundImageFix" result="effect1_dropShadow"/>
<feBlend mode="normal" in="SourceGraphic" in2="effect1_dropShadow" result="shape"/>
</filter>
</defs>
</svg>
