<svg width="20" height="20" viewBox="0 0 20 20" fill="none" xmlns="http://www.w3.org/2000/svg">
<path d="M2.5 5H4.16667H17.5" stroke="#A4A9D2" stroke-width="1.5" stroke-linecap="round" stroke-linejoin="round"/>
<path d="M6.66602 4.99996V3.33329C6.66602 2.89127 6.84161 2.46734 7.15417 2.15478C7.46673 1.84222 7.89065 1.66663 8.33268 1.66663H11.666C12.108 1.66663 12.532 1.84222 12.8445 2.15478C13.1571 2.46734 13.3327 2.89127 13.3327 3.33329V4.99996M15.8327 4.99996V16.6666C15.8327 17.1087 15.6571 17.5326 15.3445 17.8451C15.032 18.1577 14.608 18.3333 14.166 18.3333H5.83268C5.39065 18.3333 4.96673 18.1577 4.65417 17.8451C4.34161 17.5326 4.16602 17.1087 4.16602 16.6666V4.99996H15.8327Z" stroke="#A4A9D2" stroke-width="1.5" stroke-linecap="round" stroke-linejoin="round"/>
<path d="M8.33398 9.16663V14.1666" stroke="#A4A9D2" stroke-width="1.5" stroke-linecap="round" stroke-linejoin="round"/>
<path d="M11.666 9.16663V14.1666" stroke="#A4A9D2" stroke-width="1.5" stroke-linecap="round" stroke-linejoin="round"/>
</svg>
