<svg width="21" height="21" viewBox="0 0 21 21" fill="none" xmlns="http://www.w3.org/2000/svg">
<path d="M13.2365 2.07342L13.2364 2.07352L11.6183 3.69163C11.1341 3.36695 10.5634 3.19172 9.96882 3.19172C9.17794 3.19172 8.42999 3.50175 7.87084 4.06048C7.31094 4.61997 7.00156 5.36866 7.00156 6.159C7.00156 6.94456 7.30743 7.68778 7.85909 8.2457L1.90921 14.1959C0.696931 15.4082 0.696931 17.3785 1.90921 18.5908C2.5158 19.1974 3.31364 19.5 4.10666 19.5C4.89967 19.5 5.69752 19.1974 6.30411 18.5908L12.2542 12.6406C12.8121 13.1925 13.5557 13.4981 14.3409 13.4981C15.1318 13.4981 15.8798 13.1881 16.4389 12.6294C16.9988 12.0699 17.3082 11.3212 17.3082 10.5308C17.3082 9.93606 17.1328 9.36556 16.8082 8.88137L18.4263 7.26331C18.4263 7.26327 18.4264 7.26324 18.4264 7.26321C19.858 5.83191 19.8578 3.50493 18.4264 2.07352C16.9948 0.641899 14.6679 0.642454 13.2365 2.07342Z" fill="white" stroke="white" stroke-width="2"/>
<path d="M17.7193 2.78062C16.6783 1.73965 14.9845 1.73993 13.9435 2.78062L11.6581 5.06603L11.36 4.76785C10.9884 4.39632 10.4944 4.19172 9.96882 4.19172C9.44328 4.19172 8.9495 4.39632 8.57769 4.76785C8.20587 5.13939 8.00156 5.63345 8.00156 6.159C8.00156 6.68454 8.20615 7.17833 8.57769 7.55014L9.27325 8.24571L2.61632 14.903C1.79456 15.7247 1.79456 17.0619 2.61632 17.8837C3.02719 18.2946 3.56707 18.5 4.10666 18.5C4.64625 18.5 5.18612 18.2946 5.597 17.8837L12.2542 11.2264L12.9498 11.922C13.3213 12.2935 13.8154 12.4981 14.3409 12.4981C14.8665 12.4981 15.3602 12.2935 15.7321 11.922C16.1039 11.5505 16.3082 11.0564 16.3082 10.5308C16.3082 10.0053 16.1036 9.51152 15.7321 9.1397L15.4339 8.84152L17.7193 6.55611C18.7602 5.51542 18.7602 3.82159 17.7193 2.78062ZM5.00092 17.2876C4.5077 17.7805 3.70562 17.7805 3.2124 17.2876C2.71946 16.7947 2.71946 15.992 3.2124 15.4991L9.86962 8.8418L11.6581 10.6303L5.00092 17.2876Z" fill="#141629"/>
</svg>
