<svg width="79" height="79" viewBox="0 0 79 79" fill="none" xmlns="http://www.w3.org/2000/svg">
<path d="M19.9588 61V52.2727H25.3707V53.4062H21.2756V56.0653H24.983V57.1946H21.2756V61H19.9588ZM28.7692 61.1449C28.3544 61.1449 27.9794 61.0682 27.6442 60.9148C27.3089 60.7585 27.0433 60.5327 26.8473 60.2372C26.6541 59.9418 26.5575 59.5795 26.5575 59.1506C26.5575 58.7812 26.6286 58.4773 26.7706 58.2386C26.9126 58 27.1044 57.8111 27.3459 57.6719C27.5874 57.5327 27.8572 57.4276 28.1555 57.3565C28.4538 57.2855 28.7578 57.2315 29.0675 57.1946C29.4595 57.1491 29.7777 57.1122 30.022 57.0838C30.2663 57.0526 30.4439 57.0028 30.5547 56.9347C30.6655 56.8665 30.7209 56.7557 30.7209 56.6023V56.5724C30.7209 56.2003 30.6158 55.9119 30.4055 55.7074C30.1982 55.5028 29.8885 55.4006 29.4766 55.4006C29.0476 55.4006 28.7095 55.4957 28.4624 55.6861C28.218 55.8736 28.049 56.0824 27.9553 56.3125L26.7578 56.0398C26.8999 55.642 27.1072 55.321 27.38 55.0767C27.6555 54.8295 27.9723 54.6506 28.3303 54.5398C28.6882 54.4261 29.0646 54.3693 29.4595 54.3693C29.7209 54.3693 29.9979 54.4006 30.2905 54.4631C30.5859 54.5227 30.8615 54.6335 31.1172 54.7955C31.3757 54.9574 31.5874 55.1889 31.7521 55.4901C31.9169 55.7884 31.9993 56.1761 31.9993 56.6534V61H30.755V60.1051H30.7038C30.6214 60.2699 30.4979 60.4318 30.3331 60.5909C30.1683 60.75 29.9567 60.8821 29.6982 60.9872C29.4396 61.0923 29.13 61.1449 28.7692 61.1449ZM29.0462 60.1222C29.3984 60.1222 29.6996 60.0526 29.9496 59.9134C30.2024 59.7741 30.3942 59.5923 30.5249 59.3679C30.6584 59.1406 30.7251 58.8977 30.7251 58.6392V57.7955C30.6797 57.8409 30.5916 57.8835 30.4609 57.9233C30.3331 57.9602 30.1868 57.9929 30.022 58.0213C29.8572 58.0469 29.6967 58.071 29.5405 58.0938C29.3842 58.1136 29.2536 58.1307 29.1484 58.1449C28.9013 58.1761 28.6754 58.2287 28.4709 58.3026C28.2692 58.3764 28.1072 58.483 27.9851 58.6222C27.8658 58.7585 27.8061 58.9403 27.8061 59.1676C27.8061 59.483 27.9226 59.7216 28.1555 59.8835C28.3885 60.0426 28.6854 60.1222 29.0462 60.1222ZM36.1467 61.1278C35.6183 61.1278 35.1467 60.9929 34.7319 60.723C34.32 60.4503 33.9961 60.0625 33.7603 59.5597C33.5273 59.054 33.4109 58.4474 33.4109 57.7401C33.4109 57.0327 33.5288 56.4276 33.7646 55.9247C34.0032 55.4219 34.3299 55.0369 34.7447 54.7699C35.1594 54.5028 35.6296 54.3693 36.1552 54.3693C36.5614 54.3693 36.8881 54.4375 37.1353 54.5739C37.3853 54.7074 37.5785 54.8636 37.7148 55.0426C37.854 55.2216 37.962 55.3793 38.0387 55.5156H38.1154V52.2727H39.3896V61H38.1452V59.9815H38.0387C37.962 60.1207 37.8512 60.2798 37.7063 60.4588C37.5643 60.6378 37.3683 60.794 37.1183 60.9276C36.8683 61.0611 36.5444 61.1278 36.1467 61.1278ZM36.4279 60.0412C36.7944 60.0412 37.104 59.9446 37.3569 59.7514C37.6126 59.5554 37.8058 59.2841 37.9364 58.9375C38.07 58.5909 38.1367 58.1875 38.1367 57.7273C38.1367 57.2727 38.0714 56.875 37.9407 56.5341C37.81 56.1932 37.6183 55.9276 37.3654 55.7372C37.1126 55.5469 36.8001 55.4517 36.4279 55.4517C36.0444 55.4517 35.7248 55.5511 35.4691 55.75C35.2134 55.9489 35.0202 56.2202 34.8896 56.5639C34.7617 56.9077 34.6978 57.2955 34.6978 57.7273C34.6978 58.1648 34.7631 58.5582 34.8938 58.9077C35.0245 59.2571 35.2177 59.5341 35.4734 59.7386C35.7319 59.9403 36.0501 60.0412 36.4279 60.0412ZM44.0291 61.1321C43.3842 61.1321 42.8288 60.9943 42.3629 60.7188C41.8999 60.4403 41.5419 60.0497 41.2891 59.5469C41.0391 59.0412 40.9141 58.4489 40.9141 57.7699C40.9141 57.0994 41.0391 56.5085 41.2891 55.9972C41.5419 55.4858 41.8942 55.0866 42.3459 54.7997C42.8004 54.5128 43.3317 54.3693 43.9396 54.3693C44.3089 54.3693 44.6669 54.4304 45.0135 54.5526C45.3601 54.6747 45.6712 54.8665 45.9467 55.1278C46.2223 55.3892 46.4396 55.7287 46.5987 56.1463C46.7578 56.5611 46.8374 57.0653 46.8374 57.6591V58.1108H41.6342V57.1562H45.5888C45.5888 56.821 45.5206 56.5241 45.3842 56.2656C45.2479 56.0043 45.0561 55.7983 44.8089 55.6477C44.5646 55.4972 44.2777 55.4219 43.9482 55.4219C43.5902 55.4219 43.2777 55.5099 43.0107 55.6861C42.7464 55.8594 42.5419 56.0866 42.397 56.3679C42.255 56.6463 42.1839 56.9489 42.1839 57.2756V58.0213C42.1839 58.4588 42.2607 58.831 42.4141 59.1378C42.5703 59.4446 42.7876 59.679 43.0661 59.8409C43.3445 60 43.6697 60.0795 44.0419 60.0795C44.2834 60.0795 44.5036 60.0455 44.7024 59.9773C44.9013 59.9062 45.0732 59.8011 45.218 59.6619C45.3629 59.5227 45.4737 59.3509 45.5504 59.1463L46.7564 59.3636C46.6598 59.7187 46.4865 60.0298 46.2365 60.2969C45.9893 60.5611 45.6783 60.767 45.3033 60.9148C44.9311 61.0597 44.5064 61.1321 44.0291 61.1321ZM51.4268 61V54.4545H52.701V61H51.4268ZM52.0703 53.4446C51.8487 53.4446 51.6584 53.3707 51.4993 53.223C51.343 53.0724 51.2649 52.8935 51.2649 52.6861C51.2649 52.4759 51.343 52.2969 51.4993 52.1491C51.6584 51.9986 51.8487 51.9233 52.0703 51.9233C52.2919 51.9233 52.4808 51.9986 52.6371 52.1491C52.7962 52.2969 52.8757 52.4759 52.8757 52.6861C52.8757 52.8935 52.7962 53.0724 52.6371 53.223C52.4808 53.3707 52.2919 53.4446 52.0703 53.4446ZM55.6893 57.1136V61H54.4151V54.4545H55.6381V55.5199H55.7191C55.8697 55.1733 56.1055 54.8949 56.4265 54.6847C56.7504 54.4744 57.158 54.3693 57.6495 54.3693C58.0955 54.3693 58.4862 54.4631 58.8214 54.6506C59.1566 54.8352 59.4165 55.1108 59.6012 55.4773C59.7859 55.8437 59.8782 56.2969 59.8782 56.8366V61H58.604V56.9901C58.604 56.5156 58.4805 56.1449 58.2333 55.8778C57.9862 55.608 57.6467 55.473 57.2148 55.473C56.9194 55.473 56.6566 55.5369 56.4265 55.6648C56.1992 55.7926 56.0188 55.9801 55.8853 56.2273C55.7546 56.4716 55.6893 56.767 55.6893 57.1136Z" fill="#A2A7D1"/>
<path d="M19.6719 36H15.5156L20.9141 20H26.0625L31.4609 36H27.3047L23.5469 24.0312H23.4219L19.6719 36ZM19.1172 29.7031H27.8047V32.6406H19.1172V29.7031Z" fill="#165FCD"/>
<path d="M33.1836 36V20H39.8555C41.0534 20 42.056 20.1693 42.8633 20.5078C43.6758 20.8464 44.2852 21.3203 44.6914 21.9297C45.1029 22.5391 45.3086 23.2448 45.3086 24.0469C45.3086 24.6562 45.181 25.2005 44.9258 25.6797C44.6706 26.1536 44.319 26.5469 43.8711 26.8594C43.4232 27.1719 42.9049 27.3906 42.3164 27.5156V27.6719C42.9622 27.7031 43.5586 27.8776 44.1055 28.1953C44.6576 28.513 45.1003 28.9557 45.4336 29.5234C45.7669 30.0859 45.9336 30.7526 45.9336 31.5234C45.9336 32.3828 45.7148 33.151 45.2773 33.8281C44.8398 34.5 44.207 35.0312 43.3789 35.4219C42.5508 35.8073 41.5456 36 40.3633 36H33.1836ZM37.0508 32.8828H39.4414C40.2799 32.8828 40.8971 32.724 41.293 32.4062C41.694 32.0885 41.8945 31.6458 41.8945 31.0781C41.8945 30.6667 41.7982 30.3125 41.6055 30.0156C41.4128 29.7135 41.1393 29.4818 40.7852 29.3203C40.431 29.1536 40.0065 29.0703 39.5117 29.0703H37.0508V32.8828ZM37.0508 26.5781H39.1914C39.6133 26.5781 39.9883 26.5078 40.3164 26.3672C40.6445 26.2266 40.8997 26.0234 41.082 25.7578C41.2695 25.4922 41.3633 25.1719 41.3633 24.7969C41.3633 24.2604 41.1732 23.8385 40.793 23.5312C40.4128 23.224 39.8997 23.0703 39.2539 23.0703H37.0508V26.5781Z" fill="#165FCD" fill-opacity="0.5"/>
<path d="M62.3164 25.7969H58.4102C58.3581 25.3958 58.2513 25.0339 58.0898 24.7109C57.9284 24.388 57.7148 24.112 57.4492 23.8828C57.1836 23.6536 56.8685 23.4792 56.5039 23.3594C56.1445 23.2344 55.7461 23.1719 55.3086 23.1719C54.5326 23.1719 53.8633 23.362 53.3008 23.7422C52.7435 24.1224 52.3138 24.6719 52.0117 25.3906C51.7148 26.1094 51.5664 26.9792 51.5664 28C51.5664 29.0625 51.7174 29.9531 52.0195 30.6719C52.3268 31.3854 52.7565 31.9245 53.3086 32.2891C53.8659 32.6484 54.5247 32.8281 55.2852 32.8281C55.7122 32.8281 56.1003 32.7734 56.4492 32.6641C56.8034 32.5547 57.1133 32.3958 57.3789 32.1875C57.6497 31.974 57.8711 31.7161 58.043 31.4141C58.2201 31.1068 58.3424 30.7604 58.4102 30.375L62.3164 30.3984C62.2487 31.1068 62.043 31.8047 61.6992 32.4922C61.3607 33.1797 60.8945 33.8073 60.3008 34.375C59.707 34.9375 58.9831 35.3854 58.1289 35.7187C57.2799 36.0521 56.306 36.2187 55.207 36.2187C53.7591 36.2187 52.4622 35.901 51.3164 35.2656C50.1758 34.625 49.2747 33.6927 48.6133 32.4687C47.9518 31.2448 47.6211 29.7552 47.6211 28C47.6211 26.2396 47.957 24.7474 48.6289 23.5234C49.3008 22.2995 50.2096 21.3698 51.3555 20.7344C52.5013 20.099 53.7852 19.7812 55.207 19.7812C56.1758 19.7812 57.0716 19.9167 57.8945 20.1875C58.7174 20.4531 59.4414 20.8437 60.0664 21.3594C60.6914 21.8698 61.1992 22.4974 61.5898 23.2422C61.9805 23.987 62.2227 24.8385 62.3164 25.7969Z" fill="#165FCD" fill-opacity="0.3"/>
</svg>
