<svg width="17" height="19" viewBox="0 0 17 19" fill="none" xmlns="http://www.w3.org/2000/svg">
<g filter="url(#filter0_ii)">
<path d="M12.9393 19H7.80608C6.37364 19 5.2851 18.1163 4.34711 16.9038L1.10072 12.4263C0.474469 11.5626 0.633291 10.1361 1.69798 10.2043V10.2043C2.23765 10.2439 2.736 10.4976 3.07375 10.9046L4.3546 12.4049C4.4528 12.5198 4.61564 12.5631 4.7613 12.5129C4.90716 12.4627 5.00434 12.3301 5.00454 12.1811L5.01191 3.62751C5.01252 2.92406 5.5571 2.35188 6.22606 2.35188C6.8803 2.35188 7.41485 2.89748 7.43961 3.5785C7.43961 4.6209 7.44022 5.7556 7.44043 6.83559C7.44084 9.27821 7.44125 9.61897 7.44043 9.82348C7.44002 9.91677 7.47848 10.0063 7.54701 10.0723C7.61575 10.138 7.70883 10.1748 7.8058 10.1744H7.80703C7.90379 10.1752 7.99667 10.1388 8.06561 10.0734C8.13435 10.0081 8.17322 9.91894 8.17363 9.82604C8.17445 9.62015 8.17404 9.28057 8.17363 6.83677C8.17363 5.78257 8.17322 4.67561 8.17301 3.65369C8.17363 3.64542 8.17404 3.63775 8.17404 3.62948C8.17404 3.6094 8.17363 3.59012 8.17301 3.57004C8.17301 2.71207 8.17301 1.91965 8.17301 1.27091C8.1726 0.567648 8.71739 0 9.38676 0H9.42399C10.0934 0 10.6488 0.563121 10.6488 1.26697V9.82761C10.6488 10.0223 10.8131 10.1803 11.0154 10.1803C11.2179 10.1803 11.382 10.0223 11.382 9.82761V2.60224C11.382 1.89839 11.9153 1.32582 12.5847 1.32582C13.258 1.32582 13.7911 1.89839 13.7911 2.60224V9.82761C13.7911 10.0223 13.9554 10.1803 14.1577 10.1803C14.3602 10.1803 14.5243 10.0223 14.5243 9.82761V6.29412C14.5243 5.59007 15.0809 5.03876 15.7505 5.03876H15.7855C16.4532 5.03876 16.998 5.59676 16.9996 6.29845C17.0066 9.19515 16.9091 10.3255 16.9046 14.897C16.9026 17.162 15.1236 19 12.9393 19Z" fill="white"/>
</g>
<defs>
<filter id="filter0_ii" x="0.734375" y="-1" width="16.2666" height="22" filterUnits="userSpaceOnUse" color-interpolation-filters="sRGB">
<feFlood flood-opacity="0" result="BackgroundImageFix"/>
<feBlend mode="normal" in="SourceGraphic" in2="BackgroundImageFix" result="shape"/>
<feColorMatrix in="SourceAlpha" type="matrix" values="0 0 0 0 0 0 0 0 0 0 0 0 0 0 0 0 0 0 127 0" result="hardAlpha"/>
<feOffset dy="-2"/>
<feGaussianBlur stdDeviation="0.5"/>
<feComposite in2="hardAlpha" operator="arithmetic" k2="-1" k3="1"/>
<feColorMatrix type="matrix" values="0 0 0 0 0 0 0 0 0 0 0 0 0 0 0 0 0 0 0.05 0"/>
<feBlend mode="normal" in2="shape" result="effect1_innerShadow"/>
<feColorMatrix in="SourceAlpha" type="matrix" values="0 0 0 0 0 0 0 0 0 0 0 0 0 0 0 0 0 0 127 0" result="hardAlpha"/>
<feOffset dy="2"/>
<feGaussianBlur stdDeviation="1"/>
<feComposite in2="hardAlpha" operator="arithmetic" k2="-1" k3="1"/>
<feColorMatrix type="matrix" values="0 0 0 0 1 0 0 0 0 1 0 0 0 0 1 0 0 0 0.05 0"/>
<feBlend mode="normal" in2="effect1_innerShadow" result="effect2_innerShadow"/>
</filter>
</defs>
</svg>
