<svg width="156" height="34" viewBox="0 0 156 34" fill="none" xmlns="http://www.w3.org/2000/svg">
<rect x="0.5" y="0.5" width="155" height="33" rx="4.5" fill="#141629" stroke="#222544"/>
<path d="M35.1186 22V11.8182H36.6548V20.6776H41.2685V22H35.1186ZM46.1183 22.1541C45.4023 22.1541 44.7776 21.9901 44.244 21.6619C43.7103 21.3338 43.296 20.8748 43.0011 20.2848C42.7061 19.6948 42.5586 19.0054 42.5586 18.2166C42.5586 17.4245 42.7061 16.7318 43.0011 16.1385C43.296 15.5452 43.7103 15.0845 44.244 14.7564C44.7776 14.4283 45.4023 14.2642 46.1183 14.2642C46.8342 14.2642 47.4589 14.4283 47.9925 14.7564C48.5262 15.0845 48.9405 15.5452 49.2354 16.1385C49.5304 16.7318 49.6779 17.4245 49.6779 18.2166C49.6779 19.0054 49.5304 19.6948 49.2354 20.2848C48.9405 20.8748 48.5262 21.3338 47.9925 21.6619C47.4589 21.9901 46.8342 22.1541 46.1183 22.1541ZM46.1232 20.9062C46.5872 20.9062 46.9717 20.7836 47.2766 20.5384C47.5816 20.2931 47.8069 19.9666 47.9528 19.5589C48.1019 19.1513 48.1765 18.7022 48.1765 18.2116C48.1765 17.7244 48.1019 17.277 47.9528 16.8693C47.8069 16.4583 47.5816 16.1286 47.2766 15.88C46.9717 15.6314 46.5872 15.5071 46.1232 15.5071C45.6559 15.5071 45.2681 15.6314 44.9599 15.88C44.6549 16.1286 44.4279 16.4583 44.2788 16.8693C44.1329 17.277 44.06 17.7244 44.06 18.2116C44.06 18.7022 44.1329 19.1513 44.2788 19.5589C44.4279 19.9666 44.6549 20.2931 44.9599 20.5384C45.2681 20.7836 45.6559 20.9062 46.1232 20.9062ZM53.5595 22.169C53.0756 22.169 52.6381 22.0795 52.247 21.9006C51.8559 21.7183 51.546 21.4548 51.3173 21.1101C51.0919 20.7654 50.9792 20.3428 50.9792 19.8423C50.9792 19.4115 51.0621 19.0568 51.2278 18.7784C51.3935 18.5 51.6172 18.2796 51.899 18.1172C52.1807 17.9548 52.4956 17.8321 52.8436 17.7493C53.1916 17.6664 53.5462 17.6035 53.9075 17.5604C54.3649 17.5073 54.7361 17.4643 55.0211 17.4311C55.3062 17.3946 55.5133 17.3366 55.6426 17.2571C55.7718 17.1776 55.8365 17.0483 55.8365 16.8693V16.8345C55.8365 16.4003 55.7138 16.0639 55.4686 15.8253C55.2266 15.5866 54.8654 15.4673 54.3848 15.4673C53.8843 15.4673 53.4899 15.5784 53.2015 15.8004C52.9165 16.0192 52.7193 16.2628 52.6099 16.5312L51.2129 16.2131C51.3786 15.7491 51.6206 15.3745 51.9387 15.0895C52.2602 14.8011 52.6298 14.5923 53.0474 14.4631C53.465 14.3305 53.9042 14.2642 54.3649 14.2642C54.6698 14.2642 54.993 14.3007 55.3343 14.3736C55.679 14.4432 56.0005 14.5724 56.2988 14.7614C56.6004 14.9503 56.8474 15.2204 57.0396 15.5717C57.2318 15.9197 57.3279 16.3722 57.3279 16.929V22H55.8762V20.956H55.8166C55.7205 21.1482 55.5763 21.3371 55.3841 21.5227C55.1918 21.7083 54.9449 21.8625 54.6433 21.9851C54.3417 22.1077 53.9804 22.169 53.5595 22.169ZM53.8826 20.9759C54.2936 20.9759 54.6449 20.8946 54.9366 20.7322C55.2316 20.5698 55.4553 20.3577 55.6078 20.0959C55.7636 19.8307 55.8414 19.5473 55.8414 19.2457V18.2614C55.7884 18.3144 55.6857 18.3641 55.5332 18.4105C55.3841 18.4536 55.2134 18.4917 55.0211 18.5249C54.8289 18.5547 54.6416 18.5829 54.4593 18.6094C54.277 18.6326 54.1246 18.6525 54.002 18.669C53.7136 18.7055 53.4501 18.7668 53.2115 18.853C52.9761 18.9392 52.7872 19.0634 52.6447 19.2259C52.5055 19.3849 52.4359 19.5971 52.4359 19.8622C52.4359 20.2301 52.5718 20.5085 52.8436 20.6974C53.1154 20.883 53.4617 20.9759 53.8826 20.9759ZM62.1665 22.1491C61.5501 22.1491 60.9999 21.9917 60.516 21.6768C60.0354 21.3587 59.6576 20.9062 59.3825 20.3196C59.1107 19.7296 58.9748 19.022 58.9748 18.1967C58.9748 17.3714 59.1123 16.6655 59.3874 16.0788C59.6658 15.4922 60.047 15.0431 60.5309 14.7315C61.0148 14.42 61.5633 14.2642 62.1765 14.2642C62.6504 14.2642 63.0316 14.3438 63.32 14.5028C63.6116 14.6586 63.837 14.8409 63.9961 15.0497C64.1585 15.2585 64.2844 15.4425 64.3739 15.6016H64.4634V11.8182H65.9499V22H64.4982V20.8118H64.3739C64.2844 20.9742 64.1552 21.1598 63.9862 21.3686C63.8204 21.5774 63.5917 21.7597 63.3001 21.9155C63.0084 22.0713 62.6306 22.1491 62.1665 22.1491ZM62.4947 20.8814C62.9222 20.8814 63.2835 20.7687 63.5785 20.5433C63.8768 20.3146 64.1022 19.9981 64.2546 19.5938C64.4104 19.1894 64.4883 18.7187 64.4883 18.1818C64.4883 17.6515 64.4121 17.1875 64.2596 16.7898C64.1071 16.392 63.8834 16.0821 63.5884 15.8601C63.2934 15.638 62.9289 15.527 62.4947 15.527C62.0472 15.527 61.6744 15.643 61.3761 15.875C61.0778 16.107 60.8524 16.4235 60.6999 16.8246C60.5508 17.2256 60.4762 17.678 60.4762 18.1818C60.4762 18.6922 60.5524 19.1513 60.7049 19.5589C60.8574 19.9666 61.0827 20.2898 61.381 20.5284C61.6826 20.7637 62.0539 20.8814 62.4947 20.8814ZM68.0716 22V14.3636H69.5581V22H68.0716ZM68.8223 13.1854C68.5637 13.1854 68.3417 13.0992 68.1561 12.9268C67.9738 12.7512 67.8826 12.5424 67.8826 12.3004C67.8826 12.0552 67.9738 11.8464 68.1561 11.674C68.3417 11.4983 68.5637 11.4105 68.8223 11.4105C69.0808 11.4105 69.3012 11.4983 69.4835 11.674C69.6691 11.8464 69.7619 12.0552 69.7619 12.3004C69.7619 12.5424 69.6691 12.7512 69.4835 12.9268C69.3012 13.0992 69.0808 13.1854 68.8223 13.1854ZM73.0444 17.4659V22H71.5579V14.3636H72.9847V15.6065H73.0792C73.2549 15.2022 73.5299 14.8774 73.9045 14.6321C74.2823 14.3868 74.7579 14.2642 75.3313 14.2642C75.8517 14.2642 76.3074 14.3736 76.6985 14.5923C77.0896 14.8078 77.3929 15.1293 77.6083 15.5568C77.8237 15.9844 77.9315 16.513 77.9315 17.1428V22H76.445V17.3217C76.445 16.7682 76.3008 16.3357 76.0124 16.0241C75.7241 15.7093 75.328 15.5518 74.8242 15.5518C74.4795 15.5518 74.1729 15.6264 73.9045 15.7756C73.6393 15.9247 73.4289 16.1435 73.2731 16.4318C73.1206 16.7169 73.0444 17.0616 73.0444 17.4659ZM83.1268 25.0227C82.5202 25.0227 81.9982 24.9432 81.5607 24.7841C81.1265 24.625 80.7719 24.4145 80.4968 24.1527C80.2217 23.8909 80.0162 23.6042 79.8803 23.2926L81.158 22.7656C81.2475 22.9115 81.3668 23.0656 81.516 23.228C81.6684 23.3937 81.8739 23.5346 82.1325 23.6506C82.3943 23.7666 82.7307 23.8246 83.1417 23.8246C83.7051 23.8246 84.1708 23.687 84.5387 23.4119C84.9066 23.1402 85.0906 22.706 85.0906 22.1094V20.608H84.9961C84.9066 20.7704 84.7773 20.951 84.6083 21.1499C84.4426 21.3487 84.2139 21.5211 83.9222 21.6669C83.6306 21.8127 83.2511 21.8857 82.7837 21.8857C82.1805 21.8857 81.637 21.7448 81.1531 21.4631C80.6725 21.178 80.2913 20.7588 80.0096 20.2053C79.7312 19.6484 79.592 18.964 79.592 18.152C79.592 17.34 79.7295 16.6439 80.0046 16.0639C80.283 15.4839 80.6642 15.0398 81.1481 14.7315C81.632 14.42 82.1805 14.2642 82.7937 14.2642C83.2676 14.2642 83.6504 14.3438 83.9421 14.5028C84.2338 14.6586 84.4608 14.8409 84.6232 15.0497C84.7889 15.2585 84.9165 15.4425 85.006 15.6016H85.1154V14.3636H86.5721V22.169C86.5721 22.8253 86.4196 23.3639 86.1147 23.7848C85.8098 24.2057 85.3971 24.5173 84.8768 24.7195C84.3597 24.9216 83.7764 25.0227 83.1268 25.0227ZM83.1119 20.6527C83.5394 20.6527 83.9007 20.5533 84.1957 20.3544C84.494 20.1522 84.7193 19.8639 84.8718 19.4893C85.0276 19.1115 85.1055 18.6591 85.1055 18.1321C85.1055 17.6184 85.0292 17.166 84.8768 16.7749C84.7243 16.3838 84.5006 16.0788 84.2056 15.8601C83.9106 15.638 83.546 15.527 83.1119 15.527C82.6644 15.527 82.2915 15.643 81.9933 15.875C81.695 16.1037 81.4696 16.4152 81.3171 16.8097C81.168 17.2041 81.0934 17.6449 81.0934 18.1321C81.0934 18.6326 81.1696 19.0717 81.3221 19.4496C81.4746 19.8274 81.6999 20.1224 81.9982 20.3345C82.2998 20.5466 82.671 20.6527 83.1119 20.6527ZM92.2708 22V14.3636H93.7573V22H92.2708ZM93.0215 13.1854C92.763 13.1854 92.5409 13.0992 92.3553 12.9268C92.173 12.7512 92.0819 12.5424 92.0819 12.3004C92.0819 12.0552 92.173 11.8464 92.3553 11.674C92.5409 11.4983 92.763 11.4105 93.0215 11.4105C93.28 11.4105 93.5004 11.4983 93.6827 11.674C93.8683 11.8464 93.9611 12.0552 93.9611 12.3004C93.9611 12.5424 93.8683 12.7512 93.6827 12.9268C93.5004 13.0992 93.28 13.1854 93.0215 13.1854ZM95.7571 22V14.3636H97.1839V15.6065H97.2784C97.4375 15.1856 97.6977 14.8575 98.0589 14.6222C98.4202 14.3835 98.8527 14.2642 99.3565 14.2642C99.867 14.2642 100.295 14.3835 100.639 14.6222C100.987 14.8608 101.244 15.1889 101.41 15.6065H101.489C101.672 15.1989 101.962 14.8741 102.359 14.6321C102.757 14.3868 103.231 14.2642 103.781 14.2642C104.474 14.2642 105.039 14.4813 105.477 14.9155C105.917 15.3497 106.138 16.0043 106.138 16.8793V22H104.651V17.0185C104.651 16.5014 104.51 16.1269 104.229 15.8949C103.947 15.6629 103.611 15.5469 103.219 15.5469C102.736 15.5469 102.359 15.696 102.091 15.9943C101.822 16.2893 101.688 16.6688 101.688 17.1328V22H100.207V16.924C100.207 16.5097 100.077 16.1766 99.8189 15.9247C99.5604 15.6728 99.224 15.5469 98.8097 15.5469C98.5279 15.5469 98.2678 15.6214 98.0291 15.7706C97.7938 15.9164 97.6032 16.1203 97.4574 16.3821C97.3149 16.6439 97.2436 16.9472 97.2436 17.2919V22H95.7571ZM110.352 22.169C109.869 22.169 109.431 22.0795 109.04 21.9006C108.649 21.7183 108.339 21.4548 108.11 21.1101C107.885 20.7654 107.772 20.3428 107.772 19.8423C107.772 19.4115 107.855 19.0568 108.021 18.7784C108.186 18.5 108.41 18.2796 108.692 18.1172C108.974 17.9548 109.289 17.8321 109.637 17.7493C109.985 17.6664 110.339 17.6035 110.7 17.5604C111.158 17.5073 111.529 17.4643 111.814 17.4311C112.099 17.3946 112.306 17.3366 112.436 17.2571C112.565 17.1776 112.629 17.0483 112.629 16.8693V16.8345C112.629 16.4003 112.507 16.0639 112.262 15.8253C112.02 15.5866 111.658 15.4673 111.178 15.4673C110.677 15.4673 110.283 15.5784 109.994 15.8004C109.709 16.0192 109.512 16.2628 109.403 16.5312L108.006 16.2131C108.172 15.7491 108.414 15.3745 108.732 15.0895C109.053 14.8011 109.423 14.5923 109.84 14.4631C110.258 14.3305 110.697 14.2642 111.158 14.2642C111.463 14.2642 111.786 14.3007 112.127 14.3736C112.472 14.4432 112.794 14.5724 113.092 14.7614C113.393 14.9503 113.64 15.2204 113.833 15.5717C114.025 15.9197 114.121 16.3722 114.121 16.929V22H112.669V20.956H112.61C112.513 21.1482 112.369 21.3371 112.177 21.5227C111.985 21.7083 111.738 21.8625 111.436 21.9851C111.135 22.1077 110.773 22.169 110.352 22.169ZM110.676 20.9759C111.087 20.9759 111.438 20.8946 111.73 20.7322C112.025 20.5698 112.248 20.3577 112.401 20.0959C112.557 19.8307 112.634 19.5473 112.634 19.2457V18.2614C112.581 18.3144 112.479 18.3641 112.326 18.4105C112.177 18.4536 112.006 18.4917 111.814 18.5249C111.622 18.5547 111.435 18.5829 111.252 18.6094C111.07 18.6326 110.918 18.6525 110.795 18.669C110.507 18.7055 110.243 18.7668 110.004 18.853C109.769 18.9392 109.58 19.0634 109.438 19.2259C109.298 19.3849 109.229 19.5971 109.229 19.8622C109.229 20.2301 109.365 20.5085 109.637 20.6974C109.908 20.883 110.255 20.9759 110.676 20.9759ZM119.303 25.0227C118.696 25.0227 118.174 24.9432 117.737 24.7841C117.302 24.625 116.948 24.4145 116.673 24.1527C116.397 23.8909 116.192 23.6042 116.056 23.2926L117.334 22.7656C117.423 22.9115 117.543 23.0656 117.692 23.228C117.844 23.3937 118.05 23.5346 118.308 23.6506C118.57 23.7666 118.906 23.8246 119.317 23.8246C119.881 23.8246 120.347 23.687 120.714 23.4119C121.082 23.1402 121.266 22.706 121.266 22.1094V20.608H121.172C121.082 20.7704 120.953 20.951 120.784 21.1499C120.618 21.3487 120.39 21.5211 120.098 21.6669C119.806 21.8127 119.427 21.8857 118.96 21.8857C118.356 21.8857 117.813 21.7448 117.329 21.4631C116.848 21.178 116.467 20.7588 116.185 20.2053C115.907 19.6484 115.768 18.964 115.768 18.152C115.768 17.34 115.905 16.6439 116.18 16.0639C116.459 15.4839 116.84 15.0398 117.324 14.7315C117.808 14.42 118.356 14.2642 118.969 14.2642C119.443 14.2642 119.826 14.3438 120.118 14.5028C120.41 14.6586 120.637 14.8409 120.799 15.0497C120.965 15.2585 121.092 15.4425 121.182 15.6016H121.291V14.3636H122.748V22.169C122.748 22.8253 122.595 23.3639 122.29 23.7848C121.986 24.2057 121.573 24.5173 121.053 24.7195C120.536 24.9216 119.952 25.0227 119.303 25.0227ZM119.288 20.6527C119.715 20.6527 120.076 20.5533 120.371 20.3544C120.67 20.1522 120.895 19.8639 121.048 19.4893C121.203 19.1115 121.281 18.6591 121.281 18.1321C121.281 17.6184 121.205 17.166 121.053 16.7749C120.9 16.3838 120.676 16.0788 120.381 15.8601C120.086 15.638 119.722 15.527 119.288 15.527C118.84 15.527 118.467 15.643 118.169 15.875C117.871 16.1037 117.645 16.4152 117.493 16.8097C117.344 17.2041 117.269 17.6449 117.269 18.1321C117.269 18.6326 117.345 19.0717 117.498 19.4496C117.65 19.8274 117.876 20.1224 118.174 20.3345C118.476 20.5466 118.847 20.6527 119.288 20.6527ZM128.033 22.1541C127.28 22.1541 126.632 21.9934 126.089 21.6719C125.549 21.3471 125.131 20.8913 124.836 20.3047C124.544 19.7147 124.398 19.0237 124.398 18.2315C124.398 17.4493 124.544 16.7599 124.836 16.1634C125.131 15.5668 125.542 15.1011 126.069 14.7663C126.599 14.4316 127.219 14.2642 127.928 14.2642C128.359 14.2642 128.777 14.3355 129.181 14.478C129.585 14.6205 129.948 14.8442 130.27 15.1491C130.591 15.4541 130.845 15.8501 131.031 16.3374C131.216 16.8213 131.309 17.4096 131.309 18.1023V18.6293H125.239V17.5156H129.852C129.852 17.1245 129.773 16.7782 129.614 16.4766C129.455 16.1716 129.231 15.9313 128.942 15.7557C128.657 15.58 128.323 15.4922 127.938 15.4922C127.521 15.4922 127.156 15.5949 126.844 15.8004C126.536 16.0026 126.298 16.2678 126.129 16.5959C125.963 16.9207 125.88 17.2737 125.88 17.6548V18.5249C125.88 19.0353 125.969 19.4695 126.148 19.8274C126.331 20.1854 126.584 20.4588 126.909 20.6477C127.234 20.8333 127.613 20.9261 128.048 20.9261C128.329 20.9261 128.586 20.8864 128.818 20.8068C129.05 20.724 129.251 20.6013 129.42 20.4389C129.589 20.2765 129.718 20.076 129.808 19.8374L131.214 20.0909C131.102 20.5052 130.9 20.8681 130.608 21.1797C130.32 21.4879 129.957 21.7282 129.519 21.9006C129.085 22.0696 128.589 22.1541 128.033 22.1541ZM133.938 22.0945C133.666 22.0945 133.432 21.9983 133.237 21.8061C133.041 21.6106 132.943 21.3752 132.943 21.1001C132.943 20.8284 133.041 20.5964 133.237 20.4041C133.432 20.2086 133.666 20.1108 133.938 20.1108C134.209 20.1108 134.443 20.2086 134.639 20.4041C134.834 20.5964 134.932 20.8284 134.932 21.1001C134.932 21.2824 134.886 21.4498 134.793 21.6023C134.703 21.7514 134.584 21.8707 134.435 21.9602C134.286 22.0497 134.12 22.0945 133.938 22.0945ZM137.903 22.0945C137.631 22.0945 137.397 21.9983 137.202 21.8061C137.006 21.6106 136.908 21.3752 136.908 21.1001C136.908 20.8284 137.006 20.5964 137.202 20.4041C137.397 20.2086 137.631 20.1108 137.903 20.1108C138.174 20.1108 138.408 20.2086 138.604 20.4041C138.799 20.5964 138.897 20.8284 138.897 21.1001C138.897 21.2824 138.85 21.4498 138.758 21.6023C138.668 21.7514 138.549 21.8707 138.4 21.9602C138.251 22.0497 138.085 22.0945 137.903 22.0945ZM141.867 22.0945C141.596 22.0945 141.362 21.9983 141.166 21.8061C140.971 21.6106 140.873 21.3752 140.873 21.1001C140.873 20.8284 140.971 20.5964 141.166 20.4041C141.362 20.2086 141.596 20.1108 141.867 20.1108C142.139 20.1108 142.373 20.2086 142.568 20.4041C142.764 20.5964 142.862 20.8284 142.862 21.1001C142.862 21.2824 142.815 21.4498 142.722 21.6023C142.633 21.7514 142.514 21.8707 142.365 21.9602C142.215 22.0497 142.05 22.0945 141.867 22.0945Z" fill="white"/>
<path d="M17 8.6665V11.9998" stroke="#A0A5D0" stroke-width="1.5" stroke-linecap="round" stroke-linejoin="round"/>
<path d="M17 22V25.3333" stroke="#A0A5D0" stroke-width="1.5" stroke-linecap="round" stroke-linejoin="round"/>
<path d="M11.1094 11.1084L13.4677 13.4667" stroke="#A0A5D0" stroke-width="1.5" stroke-linecap="round" stroke-linejoin="round"/>
<path d="M20.5352 20.5332L22.8935 22.8915" stroke="#A0A5D0" stroke-width="1.5" stroke-linecap="round" stroke-linejoin="round"/>
<path d="M8.66797 17H12.0013" stroke="#A0A5D0" stroke-width="1.5" stroke-linecap="round" stroke-linejoin="round"/>
<path d="M22 17H25.3333" stroke="#A0A5D0" stroke-width="1.5" stroke-linecap="round" stroke-linejoin="round"/>
<path d="M11.1094 22.8915L13.4677 20.5332" stroke="#A0A5D0" stroke-width="1.5" stroke-linecap="round" stroke-linejoin="round"/>
<path d="M20.5352 13.4667L22.8935 11.1084" stroke="#A0A5D0" stroke-width="1.5" stroke-linecap="round" stroke-linejoin="round"/>
</svg>
