<svg width="156" height="34" viewBox="0 0 156 34" fill="none" xmlns="http://www.w3.org/2000/svg">
<rect x="0.5" y="0.5" width="155" height="33" rx="4.5" fill="#141629" stroke="#222544"/>
<path d="M35.1186 22V11.8182H36.6548V20.6776H41.2685V22H35.1186ZM46.1183 22.1541C45.4023 22.1541 44.7776 21.9901 44.244 21.6619C43.7103 21.3338 43.296 20.8748 43.0011 20.2848C42.7061 19.6948 42.5586 19.0054 42.5586 18.2166C42.5586 17.4245 42.7061 16.7318 43.0011 16.1385C43.296 15.5452 43.7103 15.0845 44.244 14.7564C44.7776 14.4283 45.4023 14.2642 46.1183 14.2642C46.8342 14.2642 47.4589 14.4283 47.9925 14.7564C48.5262 15.0845 48.9405 15.5452 49.2354 16.1385C49.5304 16.7318 49.6779 17.4245 49.6779 18.2166C49.6779 19.0054 49.5304 19.6948 49.2354 20.2848C48.9405 20.8748 48.5262 21.3338 47.9925 21.6619C47.4589 21.9901 46.8342 22.1541 46.1183 22.1541ZM46.1232 20.9062C46.5872 20.9062 46.9717 20.7836 47.2766 20.5384C47.5816 20.2931 47.8069 19.9666 47.9528 19.5589C48.1019 19.1513 48.1765 18.7022 48.1765 18.2116C48.1765 17.7244 48.1019 17.277 47.9528 16.8693C47.8069 16.4583 47.5816 16.1286 47.2766 15.88C46.9717 15.6314 46.5872 15.5071 46.1232 15.5071C45.6559 15.5071 45.2681 15.6314 44.9599 15.88C44.6549 16.1286 44.4279 16.4583 44.2788 16.8693C44.1329 17.277 44.06 17.7244 44.06 18.2116C44.06 18.7022 44.1329 19.1513 44.2788 19.5589C44.4279 19.9666 44.6549 20.2931 44.9599 20.5384C45.2681 20.7836 45.6559 20.9062 46.1232 20.9062ZM53.5595 22.169C53.0756 22.169 52.6381 22.0795 52.247 21.9006C51.8559 21.7183 51.546 21.4548 51.3173 21.1101C51.0919 20.7654 50.9792 20.3428 50.9792 19.8423C50.9792 19.4115 51.0621 19.0568 51.2278 18.7784C51.3935 18.5 51.6172 18.2796 51.899 18.1172C52.1807 17.9548 52.4956 17.8321 52.8436 17.7493C53.1916 17.6664 53.5462 17.6035 53.9075 17.5604C54.3649 17.5073 54.7361 17.4643 55.0211 17.4311C55.3062 17.3946 55.5133 17.3366 55.6426 17.2571C55.7718 17.1776 55.8365 17.0483 55.8365 16.8693V16.8345C55.8365 16.4003 55.7138 16.0639 55.4686 15.8253C55.2266 15.5866 54.8654 15.4673 54.3848 15.4673C53.8843 15.4673 53.4899 15.5784 53.2015 15.8004C52.9165 16.0192 52.7193 16.2628 52.6099 16.5312L51.2129 16.2131C51.3786 15.7491 51.6206 15.3745 51.9387 15.0895C52.2602 14.8011 52.6298 14.5923 53.0474 14.4631C53.465 14.3305 53.9042 14.2642 54.3649 14.2642C54.6698 14.2642 54.993 14.3007 55.3343 14.3736C55.679 14.4432 56.0005 14.5724 56.2988 14.7614C56.6004 14.9503 56.8474 15.2204 57.0396 15.5717C57.2318 15.9197 57.3279 16.3722 57.3279 16.929V22H55.8762V20.956H55.8166C55.7205 21.1482 55.5763 21.3371 55.3841 21.5227C55.1918 21.7083 54.9449 21.8625 54.6433 21.9851C54.3417 22.1077 53.9804 22.169 53.5595 22.169ZM53.8826 20.9759C54.2936 20.9759 54.6449 20.8946 54.9366 20.7322C55.2316 20.5698 55.4553 20.3577 55.6078 20.0959C55.7636 19.8307 55.8414 19.5473 55.8414 19.2457V18.2614C55.7884 18.3144 55.6857 18.3641 55.5332 18.4105C55.3841 18.4536 55.2134 18.4917 55.0211 18.5249C54.8289 18.5547 54.6416 18.5829 54.4593 18.6094C54.277 18.6326 54.1246 18.6525 54.002 18.669C53.7136 18.7055 53.4501 18.7668 53.2115 18.853C52.9761 18.9392 52.7872 19.0634 52.6447 19.2259C52.5055 19.3849 52.4359 19.5971 52.4359 19.8622C52.4359 20.2301 52.5718 20.5085 52.8436 20.6974C53.1154 20.883 53.4617 20.9759 53.8826 20.9759ZM62.1665 22.1491C61.5501 22.1491 60.9999 21.9917 60.516 21.6768C60.0354 21.3587 59.6576 20.9062 59.3825 20.3196C59.1107 19.7296 58.9748 19.022 58.9748 18.1967C58.9748 17.3714 59.1123 16.6655 59.3874 16.0788C59.6658 15.4922 60.047 15.0431 60.5309 14.7315C61.0148 14.42 61.5633 14.2642 62.1765 14.2642C62.6504 14.2642 63.0316 14.3438 63.32 14.5028C63.6116 14.6586 63.837 14.8409 63.9961 15.0497C64.1585 15.2585 64.2844 15.4425 64.3739 15.6016H64.4634V11.8182H65.9499V22H64.4982V20.8118H64.3739C64.2844 20.9742 64.1552 21.1598 63.9862 21.3686C63.8204 21.5774 63.5917 21.7597 63.3001 21.9155C63.0084 22.0713 62.6306 22.1491 62.1665 22.1491ZM62.4947 20.8814C62.9222 20.8814 63.2835 20.7687 63.5785 20.5433C63.8768 20.3146 64.1022 19.9981 64.2546 19.5938C64.4104 19.1894 64.4883 18.7187 64.4883 18.1818C64.4883 17.6515 64.4121 17.1875 64.2596 16.7898C64.1071 16.392 63.8834 16.0821 63.5884 15.8601C63.2934 15.638 62.9289 15.527 62.4947 15.527C62.0472 15.527 61.6744 15.643 61.3761 15.875C61.0778 16.107 60.8524 16.4235 60.6999 16.8246C60.5508 17.2256 60.4762 17.678 60.4762 18.1818C60.4762 18.6922 60.5524 19.1513 60.7049 19.5589C60.8574 19.9666 61.0827 20.2898 61.381 20.5284C61.6826 20.7637 62.0539 20.8814 62.4947 20.8814ZM68.0716 22V14.3636H69.5581V22H68.0716ZM68.8223 13.1854C68.5637 13.1854 68.3417 13.0992 68.1561 12.9268C67.9738 12.7512 67.8826 12.5424 67.8826 12.3004C67.8826 12.0552 67.9738 11.8464 68.1561 11.674C68.3417 11.4983 68.5637 11.4105 68.8223 11.4105C69.0808 11.4105 69.3012 11.4983 69.4835 11.674C69.6691 11.8464 69.7619 12.0552 69.7619 12.3004C69.7619 12.5424 69.6691 12.7512 69.4835 12.9268C69.3012 13.0992 69.0808 13.1854 68.8223 13.1854ZM73.0444 17.4659V22H71.5579V14.3636H72.9847V15.6065H73.0792C73.2549 15.2022 73.5299 14.8774 73.9045 14.6321C74.2823 14.3868 74.7579 14.2642 75.3313 14.2642C75.8517 14.2642 76.3074 14.3736 76.6985 14.5923C77.0896 14.8078 77.3929 15.1293 77.6083 15.5568C77.8237 15.9844 77.9315 16.513 77.9315 17.1428V22H76.445V17.3217C76.445 16.7682 76.3008 16.3357 76.0124 16.0241C75.7241 15.7093 75.328 15.5518 74.8242 15.5518C74.4795 15.5518 74.1729 15.6264 73.9045 15.7756C73.6393 15.9247 73.4289 16.1435 73.2731 16.4318C73.1206 16.7169 73.0444 17.0616 73.0444 17.4659ZM83.1268 25.0227C82.5202 25.0227 81.9982 24.9432 81.5607 24.7841C81.1265 24.625 80.7719 24.4145 80.4968 24.1527C80.2217 23.8909 80.0162 23.6042 79.8803 23.2926L81.158 22.7656C81.2475 22.9115 81.3668 23.0656 81.516 23.228C81.6684 23.3937 81.8739 23.5346 82.1325 23.6506C82.3943 23.7666 82.7307 23.8246 83.1417 23.8246C83.7051 23.8246 84.1708 23.687 84.5387 23.4119C84.9066 23.1402 85.0906 22.706 85.0906 22.1094V20.608H84.9961C84.9066 20.7704 84.7773 20.951 84.6083 21.1499C84.4426 21.3487 84.2139 21.5211 83.9222 21.6669C83.6306 21.8127 83.2511 21.8857 82.7837 21.8857C82.1805 21.8857 81.637 21.7448 81.1531 21.4631C80.6725 21.178 80.2913 20.7588 80.0096 20.2053C79.7312 19.6484 79.592 18.964 79.592 18.152C79.592 17.34 79.7295 16.6439 80.0046 16.0639C80.283 15.4839 80.6642 15.0398 81.1481 14.7315C81.632 14.42 82.1805 14.2642 82.7937 14.2642C83.2676 14.2642 83.6504 14.3438 83.9421 14.5028C84.2338 14.6586 84.4608 14.8409 84.6232 15.0497C84.7889 15.2585 84.9165 15.4425 85.006 15.6016H85.1154V14.3636H86.5721V22.169C86.5721 22.8253 86.4196 23.3639 86.1147 23.7848C85.8098 24.2057 85.3971 24.5173 84.8768 24.7195C84.3597 24.9216 83.7764 25.0227 83.1268 25.0227ZM83.1119 20.6527C83.5394 20.6527 83.9007 20.5533 84.1957 20.3544C84.494 20.1522 84.7193 19.8639 84.8718 19.4893C85.0276 19.1115 85.1055 18.6591 85.1055 18.1321C85.1055 17.6184 85.0292 17.166 84.8768 16.7749C84.7243 16.3838 84.5006 16.0788 84.2056 15.8601C83.9106 15.638 83.546 15.527 83.1119 15.527C82.6644 15.527 82.2915 15.643 81.9933 15.875C81.695 16.1037 81.4696 16.4152 81.3171 16.8097C81.168 17.2041 81.0934 17.6449 81.0934 18.1321C81.0934 18.6326 81.1696 19.0717 81.3221 19.4496C81.4746 19.8274 81.6999 20.1224 81.9982 20.3345C82.2998 20.5466 82.671 20.6527 83.1119 20.6527ZM98.8034 14.3636L96.0343 22H94.4434L91.6692 14.3636H93.2651L95.199 20.2401H95.2786L97.2076 14.3636H98.8034ZM100.2 22V14.3636H101.687V22H100.2ZM100.951 13.1854C100.693 13.1854 100.471 13.0992 100.285 12.9268C100.103 12.7512 100.012 12.5424 100.012 12.3004C100.012 12.0552 100.103 11.8464 100.285 11.674C100.471 11.4983 100.693 11.4105 100.951 11.4105C101.21 11.4105 101.43 11.4983 101.612 11.674C101.798 11.8464 101.891 12.0552 101.891 12.3004C101.891 12.5424 101.798 12.7512 101.612 12.9268C101.43 13.0992 101.21 13.1854 100.951 13.1854ZM106.545 22.1491C105.929 22.1491 105.379 21.9917 104.895 21.6768C104.414 21.3587 104.036 20.9062 103.761 20.3196C103.49 19.7296 103.354 19.022 103.354 18.1967C103.354 17.3714 103.491 16.6655 103.766 16.0788C104.045 15.4922 104.426 15.0431 104.91 14.7315C105.394 14.42 105.942 14.2642 106.555 14.2642C107.029 14.2642 107.411 14.3438 107.699 14.5028C107.991 14.6586 108.216 14.8409 108.375 15.0497C108.537 15.2585 108.663 15.4425 108.753 15.6016H108.842V11.8182H110.329V22H108.877V20.8118H108.753C108.663 20.9742 108.534 21.1598 108.365 21.3686C108.199 21.5774 107.971 21.7597 107.679 21.9155C107.387 22.0713 107.009 22.1491 106.545 22.1491ZM106.874 20.8814C107.301 20.8814 107.662 20.7687 107.957 20.5433C108.256 20.3146 108.481 19.9981 108.634 19.5938C108.789 19.1894 108.867 18.7187 108.867 18.1818C108.867 17.6515 108.791 17.1875 108.638 16.7898C108.486 16.392 108.262 16.0821 107.967 15.8601C107.672 15.638 107.308 15.527 106.874 15.527C106.426 15.527 106.053 15.643 105.755 15.875C105.457 16.107 105.231 16.4235 105.079 16.8246C104.93 17.2256 104.855 17.678 104.855 18.1818C104.855 18.6922 104.931 19.1513 105.084 19.5589C105.236 19.9666 105.462 20.2898 105.76 20.5284C106.062 20.7637 106.433 20.8814 106.874 20.8814ZM115.742 22.1541C114.989 22.1541 114.341 21.9934 113.798 21.6719C113.258 21.3471 112.84 20.8913 112.545 20.3047C112.253 19.7147 112.107 19.0237 112.107 18.2315C112.107 17.4493 112.253 16.7599 112.545 16.1634C112.84 15.5668 113.251 15.1011 113.778 14.7663C114.308 14.4316 114.928 14.2642 115.637 14.2642C116.068 14.2642 116.486 14.3355 116.89 14.478C117.294 14.6205 117.657 14.8442 117.979 15.1491C118.3 15.4541 118.554 15.8501 118.74 16.3374C118.925 16.8213 119.018 17.4096 119.018 18.1023V18.6293H112.948V17.5156H117.561C117.561 17.1245 117.482 16.7782 117.323 16.4766C117.164 16.1716 116.94 15.9313 116.651 15.7557C116.366 15.58 116.032 15.4922 115.647 15.4922C115.23 15.4922 114.865 15.5949 114.553 15.8004C114.245 16.0026 114.007 16.2678 113.838 16.5959C113.672 16.9207 113.589 17.2737 113.589 17.6548V18.5249C113.589 19.0353 113.678 19.4695 113.857 19.8274C114.04 20.1854 114.293 20.4588 114.618 20.6477C114.943 20.8333 115.322 20.9261 115.757 20.9261C116.038 20.9261 116.295 20.8864 116.527 20.8068C116.759 20.724 116.96 20.6013 117.129 20.4389C117.298 20.2765 117.427 20.076 117.517 19.8374L118.923 20.0909C118.811 20.5052 118.609 20.8681 118.317 21.1797C118.029 21.4879 117.666 21.7282 117.228 21.9006C116.794 22.0696 116.298 22.1541 115.742 22.1541ZM123.884 22.1541C123.168 22.1541 122.543 21.9901 122.01 21.6619C121.476 21.3338 121.062 20.8748 120.767 20.2848C120.472 19.6948 120.324 19.0054 120.324 18.2166C120.324 17.4245 120.472 16.7318 120.767 16.1385C121.062 15.5452 121.476 15.0845 122.01 14.7564C122.543 14.4283 123.168 14.2642 123.884 14.2642C124.6 14.2642 125.225 14.4283 125.758 14.7564C126.292 15.0845 126.706 15.5452 127.001 16.1385C127.296 16.7318 127.444 17.4245 127.444 18.2166C127.444 19.0054 127.296 19.6948 127.001 20.2848C126.706 20.8748 126.292 21.3338 125.758 21.6619C125.225 21.9901 124.6 22.1541 123.884 22.1541ZM123.889 20.9062C124.353 20.9062 124.737 20.7836 125.042 20.5384C125.347 20.2931 125.573 19.9666 125.718 19.5589C125.868 19.1513 125.942 18.7022 125.942 18.2116C125.942 17.7244 125.868 17.277 125.718 16.8693C125.573 16.4583 125.347 16.1286 125.042 15.88C124.737 15.6314 124.353 15.5071 123.889 15.5071C123.422 15.5071 123.034 15.6314 122.725 15.88C122.421 16.1286 122.194 16.4583 122.044 16.8693C121.899 17.277 121.826 17.7244 121.826 18.2116C121.826 18.7022 121.899 19.1513 122.044 19.5589C122.194 19.9666 122.421 20.2931 122.725 20.5384C123.034 20.7836 123.422 20.9062 123.889 20.9062ZM130.082 22.0945C129.81 22.0945 129.577 21.9983 129.381 21.8061C129.186 21.6106 129.088 21.3752 129.088 21.1001C129.088 20.8284 129.186 20.5964 129.381 20.4041C129.577 20.2086 129.81 20.1108 130.082 20.1108C130.354 20.1108 130.588 20.2086 130.783 20.4041C130.979 20.5964 131.077 20.8284 131.077 21.1001C131.077 21.2824 131.03 21.4498 130.937 21.6023C130.848 21.7514 130.729 21.8707 130.579 21.9602C130.43 22.0497 130.265 22.0945 130.082 22.0945ZM134.047 22.0945C133.775 22.0945 133.542 21.9983 133.346 21.8061C133.151 21.6106 133.053 21.3752 133.053 21.1001C133.053 20.8284 133.151 20.5964 133.346 20.4041C133.542 20.2086 133.775 20.1108 134.047 20.1108C134.319 20.1108 134.552 20.2086 134.748 20.4041C134.944 20.5964 135.041 20.8284 135.041 21.1001C135.041 21.2824 134.995 21.4498 134.902 21.6023C134.813 21.7514 134.693 21.8707 134.544 21.9602C134.395 22.0497 134.229 22.0945 134.047 22.0945ZM138.012 22.0945C137.74 22.0945 137.506 21.9983 137.311 21.8061C137.115 21.6106 137.018 21.3752 137.018 21.1001C137.018 20.8284 137.115 20.5964 137.311 20.4041C137.506 20.2086 137.74 20.1108 138.012 20.1108C138.284 20.1108 138.517 20.2086 138.713 20.4041C138.908 20.5964 139.006 20.8284 139.006 21.1001C139.006 21.2824 138.96 21.4498 138.867 21.6023C138.778 21.7514 138.658 21.8707 138.509 21.9602C138.36 22.0497 138.194 22.0945 138.012 22.0945Z" fill="white"/>
<path d="M17 8.6665V11.9998" stroke="#A0A5D0" stroke-width="1.5" stroke-linecap="round" stroke-linejoin="round"/>
<path d="M17 22V25.3333" stroke="#A0A5D0" stroke-width="1.5" stroke-linecap="round" stroke-linejoin="round"/>
<path d="M11.1094 11.1084L13.4677 13.4667" stroke="#A0A5D0" stroke-width="1.5" stroke-linecap="round" stroke-linejoin="round"/>
<path d="M20.5352 20.5332L22.8935 22.8915" stroke="#A0A5D0" stroke-width="1.5" stroke-linecap="round" stroke-linejoin="round"/>
<path d="M8.66797 17H12.0013" stroke="#A0A5D0" stroke-width="1.5" stroke-linecap="round" stroke-linejoin="round"/>
<path d="M22 17H25.3333" stroke="#A0A5D0" stroke-width="1.5" stroke-linecap="round" stroke-linejoin="round"/>
<path d="M11.1094 22.8915L13.4677 20.5332" stroke="#A0A5D0" stroke-width="1.5" stroke-linecap="round" stroke-linejoin="round"/>
<path d="M20.5352 13.4667L22.8935 11.1084" stroke="#A0A5D0" stroke-width="1.5" stroke-linecap="round" stroke-linejoin="round"/>
</svg>
