<svg width="15" height="15" viewBox="0 0 15 15" fill="none" xmlns="http://www.w3.org/2000/svg">
<path d="M13.6176 1.38281L1 14.0005" stroke="#A0A5D0" stroke-width="1.5" stroke-linecap="round"/>
<path fill-rule="evenodd" clip-rule="evenodd" d="M12.5 7.5C12.5 10.2614 10.2614 12.5 7.5 12.5C6.88713 12.5 6.30002 12.3897 5.75742 12.188L4.61774 13.3276C5.48634 13.7581 6.46491 14 7.5 14C11.0899 14 14 11.0899 14 7.5C14 6.46491 13.7581 5.48634 13.3276 4.61774L12.188 5.75741C12.3897 6.30002 12.5 6.88713 12.5 7.5ZM4.02342 11.0935C3.08402 10.1845 2.5 8.91046 2.5 7.5C2.5 4.73858 4.73858 2.5 7.5 2.5C8.91046 2.5 10.1845 3.08402 11.0935 4.02342L12.1543 2.96265C10.9737 1.75185 9.32467 1 7.5 1C3.91015 1 1 3.91015 1 7.5C1 9.32467 1.75185 10.9737 2.96265 12.1543L4.02342 11.0935Z" fill="#A0A5D0"/>
</svg>
