<svg width="35" height="35" viewBox="0 0 35 35" fill="none" xmlns="http://www.w3.org/2000/svg">
<rect width="35" height="35" rx="5" fill="#141629"/>
<path d="M10.5 13H12.1667H25.5" stroke="white" stroke-width="1.5" stroke-linecap="round" stroke-linejoin="round"/>
<path d="M14.668 12.9998V11.3332C14.668 10.8911 14.8436 10.4672 15.1561 10.1547C15.4687 9.8421 15.8926 9.6665 16.3346 9.6665H19.668C20.11 9.6665 20.5339 9.8421 20.8465 10.1547C21.159 10.4672 21.3346 10.8911 21.3346 11.3332V12.9998M23.8346 12.9998V24.6665C23.8346 25.1085 23.659 25.5325 23.3465 25.845C23.0339 26.1576 22.61 26.3332 22.168 26.3332H13.8346C13.3926 26.3332 12.9687 26.1576 12.6561 25.845C12.3436 25.5325 12.168 25.1085 12.168 24.6665V12.9998H23.8346Z" stroke="white" stroke-width="1.5" stroke-linecap="round" stroke-linejoin="round"/>
<path d="M16.332 17.1665V22.1665" stroke="white" stroke-width="1.5" stroke-linecap="round" stroke-linejoin="round"/>
<path d="M19.668 17.1665V22.1665" stroke="white" stroke-width="1.5" stroke-linecap="round" stroke-linejoin="round"/>
</svg>
