<svg width="22" height="22" viewBox="0 0 22 22" fill="none" xmlns="http://www.w3.org/2000/svg">
<g filter="url(#filter0_ii_288_1373)">
<path d="M2.70898 12.25C3.60645 12.25 4.33398 11.5225 4.33398 10.625C4.33398 9.72754 3.60645 9 2.70898 9C1.81152 9 1.08398 9.72754 1.08398 10.625C1.08398 11.5225 1.81152 12.25 2.70898 12.25Z" fill="#A2A7D1" stroke="#A2A7D1" stroke-width="2" stroke-linecap="round" stroke-linejoin="round"/>
<path d="M10.709 12.25C11.6064 12.25 12.334 11.5225 12.334 10.625C12.334 9.72754 11.6064 9 10.709 9C9.81152 9 9.08398 9.72754 9.08398 10.625C9.08398 11.5225 9.81152 12.25 10.709 12.25Z" fill="#A2A7D1" stroke="#A2A7D1" stroke-width="2" stroke-linecap="round" stroke-linejoin="round"/>
<path d="M18.709 12.25C19.6064 12.25 20.334 11.5225 20.334 10.625C20.334 9.72754 19.6064 9 18.709 9C17.8115 9 17.084 9.72754 17.084 10.625C17.084 11.5225 17.8115 12.25 18.709 12.25Z" fill="#A2A7D1" stroke="#A2A7D1" stroke-width="2" stroke-linecap="round" stroke-linejoin="round"/>
</g>
<defs>
<filter id="filter0_ii_288_1373" x="0" y="-1" width="22" height="25" filterUnits="userSpaceOnUse" color-interpolation-filters="sRGB">
<feFlood flood-opacity="0" result="BackgroundImageFix"/>
<feBlend mode="normal" in="SourceGraphic" in2="BackgroundImageFix" result="shape"/>
<feColorMatrix in="SourceAlpha" type="matrix" values="0 0 0 0 0 0 0 0 0 0 0 0 0 0 0 0 0 0 127 0" result="hardAlpha"/>
<feOffset dy="-2"/>
<feGaussianBlur stdDeviation="0.5"/>
<feComposite in2="hardAlpha" operator="arithmetic" k2="-1" k3="1"/>
<feColorMatrix type="matrix" values="0 0 0 0 0 0 0 0 0 0 0 0 0 0 0 0 0 0 0.05 0"/>
<feBlend mode="normal" in2="shape" result="effect1_innerShadow_288_1373"/>
<feColorMatrix in="SourceAlpha" type="matrix" values="0 0 0 0 0 0 0 0 0 0 0 0 0 0 0 0 0 0 127 0" result="hardAlpha"/>
<feOffset dy="2"/>
<feGaussianBlur stdDeviation="1"/>
<feComposite in2="hardAlpha" operator="arithmetic" k2="-1" k3="1"/>
<feColorMatrix type="matrix" values="0 0 0 0 1 0 0 0 0 1 0 0 0 0 1 0 0 0 0.05 0"/>
<feBlend mode="normal" in2="effect1_innerShadow_288_1373" result="effect2_innerShadow_288_1373"/>
</filter>
</defs>
</svg>
