<svg width="210" height="100" viewBox="0 0 210 100" fill="none" xmlns="http://www.w3.org/2000/svg">
<path d="M83.5622 37.8182V48H82.1503L76.9749 40.5327H76.8804V48H75.3442V37.8182H76.7661L81.9465 45.2955H82.0409V37.8182H83.5622ZM88.9005 48.1541C88.1846 48.1541 87.5598 47.9901 87.0262 47.6619C86.4926 47.3338 86.0783 46.8748 85.7833 46.2848C85.4883 45.6948 85.3408 45.0054 85.3408 44.2166C85.3408 43.4245 85.4883 42.7318 85.7833 42.1385C86.0783 41.5452 86.4926 41.0845 87.0262 40.7564C87.5598 40.4283 88.1846 40.2642 88.9005 40.2642C89.6164 40.2642 90.2412 40.4283 90.7748 40.7564C91.3084 41.0845 91.7227 41.5452 92.0177 42.1385C92.3126 42.7318 92.4601 43.4245 92.4601 44.2166C92.4601 45.0054 92.3126 45.6948 92.0177 46.2848C91.7227 46.8748 91.3084 47.3338 90.7748 47.6619C90.2412 47.9901 89.6164 48.1541 88.9005 48.1541ZM88.9055 46.9062C89.3695 46.9062 89.7539 46.7836 90.0589 46.5384C90.3638 46.2931 90.5892 45.9666 90.735 45.5589C90.8841 45.1513 90.9587 44.7022 90.9587 44.2116C90.9587 43.7244 90.8841 43.277 90.735 42.8693C90.5892 42.4583 90.3638 42.1286 90.0589 41.88C89.7539 41.6314 89.3695 41.5071 88.9055 41.5071C88.4381 41.5071 88.0503 41.6314 87.7421 41.88C87.4372 42.1286 87.2101 42.4583 87.061 42.8693C86.9152 43.277 86.8422 43.7244 86.8422 44.2116C86.8422 44.7022 86.9152 45.1513 87.061 45.5589C87.2101 45.9666 87.4372 46.2931 87.7421 46.5384C88.0503 46.7836 88.4381 46.9062 88.9055 46.9062ZM99.311 37.8182V48H97.8245V37.8182H99.311ZM103.533 48.169C103.049 48.169 102.612 48.0795 102.221 47.9006C101.83 47.7183 101.52 47.4548 101.291 47.1101C101.066 46.7654 100.953 46.3428 100.953 45.8423C100.953 45.4115 101.036 45.0568 101.201 44.7784C101.367 44.5 101.591 44.2796 101.873 44.1172C102.154 43.9548 102.469 43.8321 102.817 43.7493C103.165 43.6664 103.52 43.6035 103.881 43.5604C104.339 43.5073 104.71 43.4643 104.995 43.4311C105.28 43.3946 105.487 43.3366 105.616 43.2571C105.745 43.1776 105.81 43.0483 105.81 42.8693V42.8345C105.81 42.4003 105.687 42.0639 105.442 41.8253C105.2 41.5866 104.839 41.4673 104.358 41.4673C103.858 41.4673 103.464 41.5784 103.175 41.8004C102.89 42.0192 102.693 42.2628 102.584 42.5312L101.187 42.2131C101.352 41.7491 101.594 41.3745 101.912 41.0895C102.234 40.8011 102.603 40.5923 103.021 40.4631C103.439 40.3305 103.878 40.2642 104.339 40.2642C104.643 40.2642 104.967 40.3007 105.308 40.3736C105.653 40.4432 105.974 40.5724 106.272 40.7614C106.574 40.9503 106.821 41.2204 107.013 41.5717C107.205 41.9197 107.302 42.3722 107.302 42.929V48H105.85V46.956H105.79C105.694 47.1482 105.55 47.3371 105.358 47.5227C105.165 47.7083 104.919 47.8625 104.617 47.9851C104.315 48.1077 103.954 48.169 103.533 48.169ZM103.856 46.9759C104.267 46.9759 104.619 46.8946 104.91 46.7322C105.205 46.5698 105.429 46.3577 105.581 46.0959C105.737 45.8307 105.815 45.5473 105.815 45.2457V44.2614C105.762 44.3144 105.659 44.3641 105.507 44.4105C105.358 44.4536 105.187 44.4917 104.995 44.5249C104.803 44.5547 104.615 44.5829 104.433 44.6094C104.251 44.6326 104.098 44.6525 103.976 44.669C103.687 44.7055 103.424 44.7668 103.185 44.853C102.95 44.9392 102.761 45.0634 102.618 45.2259C102.479 45.3849 102.41 45.5971 102.41 45.8622C102.41 46.2301 102.545 46.5085 102.817 46.6974C103.089 46.883 103.435 46.9759 103.856 46.9759ZM109.948 50.8636C109.726 50.8636 109.523 50.8454 109.341 50.8089C109.159 50.7758 109.023 50.7393 108.934 50.6996L109.291 49.4815C109.563 49.5545 109.805 49.5859 110.017 49.576C110.229 49.5661 110.417 49.4865 110.579 49.3374C110.745 49.1882 110.891 48.9446 111.017 48.6065L111.201 48.0994L108.407 40.3636H109.997L111.931 46.2898H112.011L113.945 40.3636H115.541L112.394 49.0192C112.248 49.4169 112.062 49.7533 111.837 50.0284C111.612 50.3068 111.343 50.5156 111.032 50.6548C110.72 50.794 110.359 50.8636 109.948 50.8636ZM119.969 48.1541C119.217 48.1541 118.569 47.9934 118.025 47.6719C117.485 47.3471 117.067 46.8913 116.772 46.3047C116.481 45.7147 116.335 45.0237 116.335 44.2315C116.335 43.4493 116.481 42.7599 116.772 42.1634C117.067 41.5668 117.478 41.1011 118.005 40.7663C118.536 40.4316 119.156 40.2642 119.865 40.2642C120.296 40.2642 120.713 40.3355 121.118 40.478C121.522 40.6205 121.885 40.8442 122.206 41.1491C122.528 41.4541 122.781 41.8501 122.967 42.3374C123.153 42.8213 123.245 43.4096 123.245 44.1023V44.6293H117.175V43.5156H121.789C121.789 43.1245 121.709 42.7782 121.55 42.4766C121.391 42.1716 121.167 41.9313 120.879 41.7557C120.594 41.58 120.259 41.4922 119.875 41.4922C119.457 41.4922 119.093 41.5949 118.781 41.8004C118.473 42.0026 118.234 42.2678 118.065 42.5959C117.899 42.9207 117.816 43.2737 117.816 43.6548V44.5249C117.816 45.0353 117.906 45.4695 118.085 45.8274C118.267 46.1854 118.521 46.4588 118.846 46.6477C119.17 46.8333 119.55 46.9261 119.984 46.9261C120.266 46.9261 120.523 46.8864 120.755 46.8068C120.987 46.724 121.187 46.6013 121.356 46.4389C121.525 46.2765 121.655 46.076 121.744 45.8374L123.151 46.0909C123.038 46.5052 122.836 46.8681 122.544 47.1797C122.256 47.4879 121.893 47.7282 121.456 47.9006C121.022 48.0696 120.526 48.1541 119.969 48.1541ZM124.895 48V40.3636H126.332V41.5767H126.411C126.55 41.1657 126.796 40.8426 127.147 40.6072C127.502 40.3686 127.903 40.2493 128.35 40.2493C128.443 40.2493 128.552 40.2526 128.678 40.2592C128.807 40.2659 128.909 40.2741 128.981 40.2841V41.706C128.922 41.6894 128.816 41.6712 128.663 41.6513C128.511 41.6281 128.358 41.6165 128.206 41.6165C127.855 41.6165 127.541 41.6911 127.266 41.8402C126.994 41.986 126.779 42.1899 126.62 42.4517C126.461 42.7102 126.381 43.0052 126.381 43.3366V48H124.895ZM135.99 42.228L134.643 42.4666C134.586 42.2943 134.497 42.1302 134.374 41.9744C134.255 41.8187 134.093 41.6911 133.887 41.5916C133.682 41.4922 133.425 41.4425 133.117 41.4425C132.696 41.4425 132.344 41.5369 132.063 41.7259C131.781 41.9115 131.64 42.1518 131.64 42.4467C131.64 42.7019 131.734 42.9074 131.923 43.0632C132.112 43.219 132.417 43.3466 132.838 43.446L134.051 43.7244C134.754 43.8868 135.278 44.1371 135.622 44.4751C135.967 44.8132 136.139 45.2524 136.139 45.7926C136.139 46.25 136.007 46.6577 135.742 47.0156C135.48 47.3703 135.113 47.6487 134.643 47.8509C134.176 48.053 133.634 48.1541 133.017 48.1541C132.162 48.1541 131.464 47.9718 130.924 47.6072C130.384 47.2393 130.052 46.7173 129.93 46.0412L131.367 45.8224C131.456 46.197 131.64 46.4804 131.918 46.6726C132.197 46.8615 132.56 46.956 133.007 46.956C133.494 46.956 133.884 46.8549 134.176 46.6527C134.467 46.4472 134.613 46.197 134.613 45.902C134.613 45.6634 134.524 45.4628 134.345 45.3004C134.169 45.138 133.899 45.0154 133.534 44.9325L132.242 44.6491C131.529 44.4867 131.002 44.2282 130.661 43.8736C130.323 43.5189 130.153 43.0698 130.153 42.5263C130.153 42.0755 130.279 41.6811 130.531 41.343C130.783 41.005 131.131 40.7415 131.575 40.5526C132.02 40.3603 132.528 40.2642 133.102 40.2642C133.927 40.2642 134.577 40.4432 135.051 40.8011C135.524 41.1558 135.838 41.6314 135.99 42.228Z" fill="white"/>
<path d="M13.9484 74H12.3177L15.9818 63.8182H17.7567L21.4207 74H19.79L16.9115 65.6676H16.8319L13.9484 74ZM14.2219 70.0128H19.5116V71.3054H14.2219V70.0128ZM25.5074 74.1491C24.8909 74.1491 24.3407 73.9917 23.8568 73.6768C23.3762 73.3587 22.9984 72.9062 22.7233 72.3196C22.4515 71.7296 22.3156 71.022 22.3156 70.1967C22.3156 69.3714 22.4532 68.6655 22.7282 68.0788C23.0067 67.4922 23.3878 67.0431 23.8717 66.7315C24.3556 66.42 24.9041 66.2642 25.5173 66.2642C25.9913 66.2642 26.3724 66.3438 26.6608 66.5028C26.9524 66.6586 27.1778 66.8409 27.3369 67.0497C27.4993 67.2585 27.6253 67.4425 27.7148 67.6016H27.8042V63.8182H29.2907V74H27.839V72.8118H27.7148C27.6253 72.9742 27.496 73.1598 27.327 73.3686C27.1613 73.5774 26.9326 73.7597 26.6409 73.9155C26.3492 74.0713 25.9714 74.1491 25.5074 74.1491ZM25.8355 72.8814C26.2631 72.8814 26.6243 72.7687 26.9193 72.5433C27.2176 72.3146 27.443 71.9981 27.5954 71.5938C27.7512 71.1894 27.8291 70.7187 27.8291 70.1818C27.8291 69.6515 27.7529 69.1875 27.6004 68.7898C27.4479 68.392 27.2242 68.0821 26.9292 67.8601C26.6343 67.638 26.2697 67.527 25.8355 67.527C25.3881 67.527 25.0152 67.643 24.7169 67.875C24.4186 68.107 24.1932 68.4235 24.0407 68.8246C23.8916 69.2256 23.817 69.678 23.817 70.1818C23.817 70.6922 23.8933 71.1513 24.0457 71.5589C24.1982 71.9666 24.4236 72.2898 24.7219 72.5284C25.0235 72.7637 25.3947 72.8814 25.8355 72.8814ZM34.271 74.1491C33.6546 74.1491 33.1044 73.9917 32.6205 73.6768C32.1399 73.3587 31.762 72.9062 31.4869 72.3196C31.2152 71.7296 31.0793 71.022 31.0793 70.1967C31.0793 69.3714 31.2168 68.6655 31.4919 68.0788C31.7703 67.4922 32.1515 67.0431 32.6354 66.7315C33.1193 66.42 33.6678 66.2642 34.281 66.2642C34.7549 66.2642 35.1361 66.3438 35.4244 66.5028C35.7161 66.6586 35.9415 66.8409 36.1006 67.0497C36.263 67.2585 36.3889 67.4425 36.4784 67.6016H36.5679V63.8182H38.0544V74H36.6027V72.8118H36.4784C36.3889 72.9742 36.2597 73.1598 36.0906 73.3686C35.9249 73.5774 35.6962 73.7597 35.4046 73.9155C35.1129 74.0713 34.7351 74.1491 34.271 74.1491ZM34.5992 72.8814C35.0267 72.8814 35.388 72.7687 35.683 72.5433C35.9813 72.3146 36.2066 71.9981 36.3591 71.5938C36.5149 71.1894 36.5928 70.7187 36.5928 70.1818C36.5928 69.6515 36.5165 69.1875 36.3641 68.7898C36.2116 68.392 35.9879 68.0821 35.6929 67.8601C35.3979 67.638 35.0334 67.527 34.5992 67.527C34.1517 67.527 33.7789 67.643 33.4806 67.875C33.1823 68.107 32.9569 68.4235 32.8044 68.8246C32.6553 69.2256 32.5807 69.678 32.5807 70.1818C32.5807 70.6922 32.6569 71.1513 32.8094 71.5589C32.9619 71.9666 33.1872 72.2898 33.4855 72.5284C33.7871 72.7637 34.1584 72.8814 34.5992 72.8814ZM43.8811 74V66.3636H45.3676V74H43.8811ZM44.6318 65.1854C44.3733 65.1854 44.1512 65.0992 43.9656 64.9268C43.7834 64.7512 43.6922 64.5424 43.6922 64.3004C43.6922 64.0552 43.7834 63.8464 43.9656 63.674C44.1512 63.4983 44.3733 63.4105 44.6318 63.4105C44.8904 63.4105 45.1108 63.4983 45.2931 63.674C45.4787 63.8464 45.5715 64.0552 45.5715 64.3004C45.5715 64.5424 45.4787 64.7512 45.2931 64.9268C45.1108 65.0992 44.8904 65.1854 44.6318 65.1854ZM47.3675 74V66.3636H48.7943V67.6065H48.8888C49.0479 67.1856 49.308 66.8575 49.6693 66.6222C50.0306 66.3835 50.4631 66.2642 50.9669 66.2642C51.4773 66.2642 51.9049 66.3835 52.2496 66.6222C52.5976 66.8608 52.8544 67.1889 53.0202 67.6065H53.0997C53.282 67.1989 53.572 66.8741 53.9697 66.6321C54.3675 66.3868 54.8414 66.2642 55.3916 66.2642C56.0843 66.2642 56.6494 66.4813 57.0869 66.9155C57.5277 67.3497 57.7481 68.0043 57.7481 68.8793V74H56.2616V69.0185C56.2616 68.5014 56.1208 68.1269 55.839 67.8949C55.5573 67.6629 55.2209 67.5469 54.8298 67.5469C54.3459 67.5469 53.9697 67.696 53.7013 67.9943C53.4328 68.2893 53.2986 68.6688 53.2986 69.1328V74H51.817V68.924C51.817 68.5097 51.6878 68.1766 51.4292 67.9247C51.1707 67.6728 50.8343 67.5469 50.42 67.5469C50.1383 67.5469 49.8781 67.6214 49.6395 67.7706C49.4041 67.9164 49.2136 68.1203 49.0677 68.3821C48.9252 68.6439 48.854 68.9472 48.854 69.2919V74H47.3675ZM61.9628 74.169C61.4789 74.169 61.0414 74.0795 60.6503 73.9006C60.2592 73.7183 59.9493 73.4548 59.7206 73.1101C59.4952 72.7654 59.3825 72.3428 59.3825 71.8423C59.3825 71.4115 59.4654 71.0568 59.6311 70.7784C59.7968 70.5 60.0206 70.2796 60.3023 70.1172C60.584 69.9548 60.8989 69.8321 61.2469 69.7493C61.5949 69.6664 61.9495 69.6035 62.3108 69.5604C62.7682 69.5073 63.1394 69.4643 63.4244 69.4311C63.7095 69.3946 63.9166 69.3366 64.0459 69.2571C64.1752 69.1776 64.2398 69.0483 64.2398 68.8693V68.8345C64.2398 68.4003 64.1172 68.0639 63.8719 67.8253C63.6299 67.5866 63.2687 67.4673 62.7881 67.4673C62.2876 67.4673 61.8932 67.5784 61.6048 67.8004C61.3198 68.0192 61.1226 68.2628 61.0132 68.5312L59.6162 68.2131C59.7819 67.7491 60.0239 67.3745 60.3421 67.0895C60.6636 66.8011 61.0331 66.5923 61.4507 66.4631C61.8683 66.3305 62.3075 66.2642 62.7682 66.2642C63.0731 66.2642 63.3963 66.3007 63.7377 66.3736C64.0824 66.4432 64.4039 66.5724 64.7021 66.7614C65.0038 66.9503 65.2507 67.2204 65.4429 67.5717C65.6352 67.9197 65.7313 68.3722 65.7313 68.929V74H64.2796V72.956H64.2199C64.1238 73.1482 63.9796 73.3371 63.7874 73.5227C63.5951 73.7083 63.3482 73.8625 63.0466 73.9851C62.745 74.1077 62.3837 74.169 61.9628 74.169ZM62.286 72.9759C62.6969 72.9759 63.0483 72.8946 63.3399 72.7322C63.6349 72.5698 63.8586 72.3577 64.0111 72.0959C64.1669 71.8307 64.2448 71.5473 64.2448 71.2457V70.2614C64.1917 70.3144 64.089 70.3641 63.9365 70.4105C63.7874 70.4536 63.6167 70.4917 63.4244 70.5249C63.2322 70.5547 63.045 70.5829 62.8627 70.6094C62.6804 70.6326 62.5279 70.6525 62.4053 70.669C62.1169 70.7055 61.8534 70.7668 61.6148 70.853C61.3795 70.9392 61.1905 71.0634 61.048 71.2259C60.9088 71.3849 60.8392 71.5971 60.8392 71.8622C60.8392 72.2301 60.9751 72.5085 61.2469 72.6974C61.5187 72.883 61.865 72.9759 62.286 72.9759ZM70.9129 77.0227C70.3064 77.0227 69.7844 76.9432 69.3469 76.7841C68.9127 76.625 68.558 76.4145 68.2829 76.1527C68.0078 75.8909 67.8023 75.6042 67.6665 75.2926L68.9442 74.7656C69.0336 74.9115 69.153 75.0656 69.3021 75.228C69.4546 75.3937 69.6601 75.5346 69.9186 75.6506C70.1804 75.7666 70.5168 75.8246 70.9278 75.8246C71.4913 75.8246 71.9569 75.687 72.3248 75.4119C72.6927 75.1402 72.8767 74.706 72.8767 74.1094V72.608H72.7822C72.6927 72.7704 72.5635 72.951 72.3944 73.1499C72.2287 73.3487 72 73.5211 71.7084 73.6669C71.4167 73.8127 71.0372 73.8857 70.5699 73.8857C69.9666 73.8857 69.4231 73.7448 68.9392 73.4631C68.4586 73.178 68.0774 72.7588 67.7957 72.2053C67.5173 71.6484 67.3781 70.964 67.3781 70.152C67.3781 69.34 67.5157 68.6439 67.7907 68.0639C68.0692 67.4839 68.4503 67.0398 68.9342 66.7315C69.4181 66.42 69.9666 66.2642 70.5798 66.2642C71.0538 66.2642 71.4366 66.3438 71.7282 66.5028C72.0199 66.6586 72.247 66.8409 72.4094 67.0497C72.5751 67.2585 72.7027 67.4425 72.7922 67.6016H72.9015V66.3636H74.3582V74.169C74.3582 74.8253 74.2058 75.3639 73.9008 75.7848C73.5959 76.2057 73.1833 76.5173 72.6629 76.7195C72.1459 76.9216 71.5625 77.0227 70.9129 77.0227ZM70.898 72.6527C71.3256 72.6527 71.6868 72.5533 71.9818 72.3544C72.2801 72.1522 72.5055 71.8639 72.6579 71.4893C72.8137 71.1115 72.8916 70.6591 72.8916 70.1321C72.8916 69.6184 72.8154 69.166 72.6629 68.7749C72.5104 68.3838 72.2867 68.0788 71.9917 67.8601C71.6968 67.638 71.3322 67.527 70.898 67.527C70.4506 67.527 70.0777 67.643 69.7794 67.875C69.4811 68.1037 69.2557 68.4152 69.1032 68.8097C68.9541 69.2041 68.8795 69.6449 68.8795 70.1321C68.8795 70.6326 68.9558 71.0717 69.1082 71.4496C69.2607 71.8274 69.4861 72.1224 69.7844 72.3345C70.086 72.5466 70.4572 72.6527 70.898 72.6527ZM79.643 74.1541C78.8907 74.1541 78.2427 73.9934 77.6991 73.6719C77.1589 73.3471 76.7413 72.8913 76.4463 72.3047C76.1546 71.7147 76.0088 71.0237 76.0088 70.2315C76.0088 69.4493 76.1546 68.7599 76.4463 68.1634C76.7413 67.5668 77.1523 67.1011 77.6792 66.7663C78.2095 66.4316 78.8293 66.2642 79.5386 66.2642C79.9695 66.2642 80.3871 66.3355 80.7915 66.478C81.1958 66.6205 81.5587 66.8442 81.8802 67.1491C82.2017 67.4541 82.4553 67.8501 82.6409 68.3374C82.8265 68.8213 82.9193 69.4096 82.9193 70.1023V70.6293H76.849V69.5156H81.4626C81.4626 69.1245 81.3831 68.7782 81.224 68.4766C81.0649 68.1716 80.8412 67.9313 80.5528 67.7557C80.2678 67.58 79.933 67.4922 79.5486 67.4922C79.1309 67.4922 78.7664 67.5949 78.4548 67.8004C78.1466 68.0026 77.9079 68.2678 77.7389 68.5959C77.5732 68.9207 77.4903 69.2737 77.4903 69.6548V70.5249C77.4903 71.0353 77.5798 71.4695 77.7588 71.8274C77.9411 72.1854 78.1946 72.4588 78.5194 72.6477C78.8443 72.8333 79.2238 72.9261 79.6579 72.9261C79.9397 72.9261 80.1965 72.8864 80.4285 72.8068C80.6605 72.724 80.8611 72.6013 81.0301 72.4389C81.1991 72.2765 81.3284 72.076 81.4179 71.8374L82.8248 72.0909C82.7122 72.5052 82.51 72.8681 82.2183 73.1797C81.93 73.4879 81.567 73.7282 81.1295 73.9006C80.6953 74.0696 80.1998 74.1541 79.643 74.1541ZM90.2909 68.228L88.9436 68.4666C88.8873 68.2943 88.7978 68.1302 88.6752 67.9744C88.5558 67.8187 88.3934 67.6911 88.1879 67.5916C87.9825 67.4922 87.7256 67.4425 87.4173 67.4425C86.9964 67.4425 86.6451 67.5369 86.3634 67.7259C86.0816 67.9115 85.9408 68.1518 85.9408 68.4467C85.9408 68.7019 86.0352 68.9074 86.2242 69.0632C86.4131 69.219 86.718 69.3466 87.1389 69.446L88.352 69.7244C89.0547 69.8868 89.5783 70.1371 89.923 70.4751C90.2677 70.8132 90.4401 71.2524 90.4401 71.7926C90.4401 72.25 90.3075 72.6577 90.0423 73.0156C89.7805 73.3703 89.4143 73.6487 88.9436 73.8509C88.4763 74.053 87.9344 74.1541 87.3179 74.1541C86.4628 74.1541 85.7651 73.9718 85.2249 73.6072C84.6846 73.2393 84.3532 72.7173 84.2306 72.0412L85.6673 71.8224C85.7568 72.197 85.9408 72.4804 86.2192 72.6726C86.4976 72.8615 86.8605 72.956 87.308 72.956C87.7952 72.956 88.1846 72.8549 88.4763 72.6527C88.768 72.4472 88.9138 72.197 88.9138 71.902C88.9138 71.6634 88.8243 71.4628 88.6453 71.3004C88.4697 71.138 88.1995 71.0154 87.835 70.9325L86.5423 70.6491C85.8298 70.4867 85.3028 70.2282 84.9614 69.8736C84.6233 69.5189 84.4543 69.0698 84.4543 68.5263C84.4543 68.0755 84.5802 67.6811 84.8321 67.343C85.084 67.005 85.432 66.7415 85.8762 66.5526C86.3203 66.3603 86.829 66.2642 87.4024 66.2642C88.2277 66.2642 88.8773 66.4432 89.3513 66.8011C89.8253 67.1558 90.1385 67.6314 90.2909 68.228ZM94.0084 72.608L93.9339 73.1499C93.8841 73.5476 93.7996 73.9619 93.6803 74.3928C93.5643 74.8269 93.4433 75.2296 93.3174 75.6009C93.1948 75.9721 93.0937 76.267 93.0141 76.4858H91.9601C92.0032 76.2803 92.0629 76.0019 92.1391 75.6506C92.2153 75.3026 92.2899 74.9131 92.3628 74.4822C92.4358 74.0514 92.4904 73.6122 92.5269 73.1648L92.5766 72.608H94.0084ZM106.181 66.3636L103.412 74H101.821L99.0471 66.3636H100.643L102.577 72.2401H102.657L104.585 66.3636H106.181ZM107.578 74V66.3636H109.065V74H107.578ZM108.329 65.1854C108.071 65.1854 107.849 65.0992 107.663 64.9268C107.481 64.7512 107.389 64.5424 107.389 64.3004C107.389 64.0552 107.481 63.8464 107.663 63.674C107.849 63.4983 108.071 63.4105 108.329 63.4105C108.588 63.4105 108.808 63.4983 108.99 63.674C109.176 63.8464 109.269 64.0552 109.269 64.3004C109.269 64.5424 109.176 64.7512 108.99 64.9268C108.808 65.0992 108.588 65.1854 108.329 65.1854ZM113.923 74.1491C113.307 74.1491 112.757 73.9917 112.273 73.6768C111.792 73.3587 111.414 72.9062 111.139 72.3196C110.868 71.7296 110.732 71.022 110.732 70.1967C110.732 69.3714 110.869 68.6655 111.144 68.0788C111.423 67.4922 111.804 67.0431 112.288 66.7315C112.772 66.42 113.32 66.2642 113.933 66.2642C114.407 66.2642 114.788 66.3438 115.077 66.5028C115.368 66.6586 115.594 66.8409 115.753 67.0497C115.915 67.2585 116.041 67.4425 116.131 67.6016H116.22V63.8182H117.707V74H116.255V72.8118H116.131C116.041 72.9742 115.912 73.1598 115.743 73.3686C115.577 73.5774 115.349 73.7597 115.057 73.9155C114.765 74.0713 114.387 74.1491 113.923 74.1491ZM114.252 72.8814C114.679 72.8814 115.04 72.7687 115.335 72.5433C115.634 72.3146 115.859 71.9981 116.011 71.5938C116.167 71.1894 116.245 70.7187 116.245 70.1818C116.245 69.6515 116.169 69.1875 116.016 68.7898C115.864 68.392 115.64 68.0821 115.345 67.8601C115.05 67.638 114.686 67.527 114.252 67.527C113.804 67.527 113.431 67.643 113.133 67.875C112.835 68.107 112.609 68.4235 112.457 68.8246C112.308 69.2256 112.233 69.678 112.233 70.1818C112.233 70.6922 112.309 71.1513 112.462 71.5589C112.614 71.9666 112.84 72.2898 113.138 72.5284C113.439 72.7637 113.811 72.8814 114.252 72.8814ZM123.12 74.1541C122.367 74.1541 121.719 73.9934 121.176 73.6719C120.635 73.3471 120.218 72.8913 119.923 72.3047C119.631 71.7147 119.485 71.0237 119.485 70.2315C119.485 69.4493 119.631 68.7599 119.923 68.1634C120.218 67.5668 120.629 67.1011 121.156 66.7663C121.686 66.4316 122.306 66.2642 123.015 66.2642C123.446 66.2642 123.864 66.3355 124.268 66.478C124.672 66.6205 125.035 66.8442 125.357 67.1491C125.678 67.4541 125.932 67.8501 126.117 68.3374C126.303 68.8213 126.396 69.4096 126.396 70.1023V70.6293H120.326V69.5156H124.939C124.939 69.1245 124.86 68.7782 124.701 68.4766C124.541 68.1716 124.318 67.9313 124.029 67.7557C123.744 67.58 123.41 67.4922 123.025 67.4922C122.608 67.4922 122.243 67.5949 121.931 67.8004C121.623 68.0026 121.384 68.2678 121.215 68.5959C121.05 68.9207 120.967 69.2737 120.967 69.6548V70.5249C120.967 71.0353 121.056 71.4695 121.235 71.8274C121.418 72.1854 121.671 72.4588 121.996 72.6477C122.321 72.8333 122.7 72.9261 123.134 72.9261C123.416 72.9261 123.673 72.8864 123.905 72.8068C124.137 72.724 124.338 72.6013 124.507 72.4389C124.676 72.2765 124.805 72.076 124.894 71.8374L126.301 72.0909C126.189 72.5052 125.987 72.8681 125.695 73.1797C125.407 73.4879 125.044 73.7282 124.606 73.9006C124.172 74.0696 123.676 74.1541 123.12 74.1541ZM131.262 74.1541C130.546 74.1541 129.921 73.9901 129.388 73.6619C128.854 73.3338 128.44 72.8748 128.145 72.2848C127.85 71.6948 127.702 71.0054 127.702 70.2166C127.702 69.4245 127.85 68.7318 128.145 68.1385C128.44 67.5452 128.854 67.0845 129.388 66.7564C129.921 66.4283 130.546 66.2642 131.262 66.2642C131.978 66.2642 132.602 66.4283 133.136 66.7564C133.67 67.0845 134.084 67.5452 134.379 68.1385C134.674 68.7318 134.821 69.4245 134.821 70.2166C134.821 71.0054 134.674 71.6948 134.379 72.2848C134.084 72.8748 133.67 73.3338 133.136 73.6619C132.602 73.9901 131.978 74.1541 131.262 74.1541ZM131.267 72.9062C131.731 72.9062 132.115 72.7836 132.42 72.5384C132.725 72.2931 132.95 71.9666 133.096 71.5589C133.245 71.1513 133.32 70.7022 133.32 70.2116C133.32 69.7244 133.245 69.277 133.096 68.8693C132.95 68.4583 132.725 68.1286 132.42 67.88C132.115 67.6314 131.731 67.5071 131.267 67.5071C130.799 67.5071 130.412 67.6314 130.103 67.88C129.799 68.1286 129.571 68.4583 129.422 68.8693C129.276 69.277 129.204 69.7244 129.204 70.2116C129.204 70.7022 129.276 71.1513 129.422 71.5589C129.571 71.9666 129.799 72.2931 130.103 72.5384C130.412 72.7836 130.799 72.9062 131.267 72.9062ZM142.203 68.228L140.856 68.4666C140.799 68.2943 140.71 68.1302 140.587 67.9744C140.468 67.8187 140.306 67.6911 140.1 67.5916C139.895 67.4922 139.638 67.4425 139.329 67.4425C138.909 67.4425 138.557 67.5369 138.275 67.7259C137.994 67.9115 137.853 68.1518 137.853 68.4467C137.853 68.7019 137.947 68.9074 138.136 69.0632C138.325 69.219 138.63 69.3466 139.051 69.446L140.264 69.7244C140.967 69.8868 141.49 70.1371 141.835 70.4751C142.18 70.8132 142.352 71.2524 142.352 71.7926C142.352 72.25 142.22 72.6577 141.954 73.0156C141.693 73.3703 141.326 73.6487 140.856 73.8509C140.388 74.053 139.847 74.1541 139.23 74.1541C138.375 74.1541 137.677 73.9718 137.137 73.6072C136.597 73.2393 136.265 72.7173 136.143 72.0412L137.579 71.8224C137.669 72.197 137.853 72.4804 138.131 72.6726C138.41 72.8615 138.773 72.956 139.22 72.956C139.707 72.956 140.097 72.8549 140.388 72.6527C140.68 72.4472 140.826 72.197 140.826 71.902C140.826 71.6634 140.736 71.4628 140.557 71.3004C140.382 71.138 140.112 71.0154 139.747 70.9325L138.454 70.6491C137.742 70.4867 137.215 70.2282 136.873 69.8736C136.535 69.5189 136.366 69.0698 136.366 68.5263C136.366 68.0755 136.492 67.6811 136.744 67.343C136.996 67.005 137.344 66.7415 137.788 66.5526C138.232 66.3603 138.741 66.2642 139.315 66.2642C140.14 66.2642 140.789 66.4432 141.263 66.8011C141.737 67.1558 142.051 67.6314 142.203 68.228ZM145.921 72.608L145.846 73.1499C145.796 73.5476 145.712 73.9619 145.592 74.3928C145.476 74.8269 145.355 75.2296 145.229 75.6009C145.107 75.9721 145.006 76.267 144.926 76.4858H143.872C143.915 76.2803 143.975 76.0019 144.051 75.6506C144.127 75.3026 144.202 74.9131 144.275 74.4822C144.348 74.0514 144.403 73.6122 144.439 73.1648L144.489 72.608H145.921ZM155.125 66.3636V67.5568H150.954V66.3636H155.125ZM152.073 64.5341H153.559V71.7578C153.559 72.0462 153.602 72.2633 153.689 72.4091C153.775 72.5516 153.886 72.6494 154.022 72.7024C154.161 72.7521 154.312 72.777 154.474 72.777C154.593 72.777 154.698 72.7687 154.787 72.7521C154.877 72.7356 154.946 72.7223 154.996 72.7124L155.265 73.9403C155.178 73.9735 155.056 74.0066 154.897 74.0398C154.738 74.0762 154.539 74.0961 154.3 74.0994C153.909 74.1061 153.544 74.0365 153.206 73.8906C152.868 73.7448 152.595 73.5194 152.386 73.2145C152.177 72.9096 152.073 72.5268 152.073 72.0661V64.5341ZM159.979 74.1541C159.227 74.1541 158.579 73.9934 158.035 73.6719C157.495 73.3471 157.077 72.8913 156.782 72.3047C156.491 71.7147 156.345 71.0237 156.345 70.2315C156.345 69.4493 156.491 68.7599 156.782 68.1634C157.077 67.5668 157.488 67.1011 158.015 66.7663C158.545 66.4316 159.165 66.2642 159.875 66.2642C160.305 66.2642 160.723 66.3355 161.127 66.478C161.532 66.6205 161.895 66.8442 162.216 67.1491C162.538 67.4541 162.791 67.8501 162.977 68.3374C163.162 68.8213 163.255 69.4096 163.255 70.1023V70.6293H157.185V69.5156H161.799C161.799 69.1245 161.719 68.7782 161.56 68.4766C161.401 68.1716 161.177 67.9313 160.889 67.7557C160.604 67.58 160.269 67.4922 159.884 67.4922C159.467 67.4922 159.102 67.5949 158.791 67.8004C158.483 68.0026 158.244 68.2678 158.075 68.5959C157.909 68.9207 157.826 69.2737 157.826 69.6548V70.5249C157.826 71.0353 157.916 71.4695 158.095 71.8274C158.277 72.1854 158.531 72.4588 158.855 72.6477C159.18 72.8333 159.56 72.9261 159.994 72.9261C160.276 72.9261 160.532 72.8864 160.764 72.8068C160.996 72.724 161.197 72.6013 161.366 72.4389C161.535 72.2765 161.664 72.076 161.754 71.8374L163.161 72.0909C163.048 72.5052 162.846 72.8681 162.554 73.1797C162.266 73.4879 161.903 73.7282 161.465 73.9006C161.031 74.0696 160.536 74.1541 159.979 74.1541ZM165.9 66.3636L167.585 69.3366L169.286 66.3636H170.911L168.53 70.1818L170.931 74H169.306L167.585 71.1463L165.87 74H164.24L166.616 70.1818L164.269 66.3636H165.9ZM176.002 66.3636V67.5568H171.831V66.3636H176.002ZM172.95 64.5341H174.436V71.7578C174.436 72.0462 174.479 72.2633 174.566 72.4091C174.652 72.5516 174.763 72.6494 174.899 72.7024C175.038 72.7521 175.189 72.777 175.351 72.777C175.47 72.777 175.575 72.7687 175.664 72.7521C175.754 72.7356 175.823 72.7223 175.873 72.7124L176.142 73.9403C176.055 73.9735 175.933 74.0066 175.774 74.0398C175.615 74.0762 175.416 74.0961 175.177 74.0994C174.786 74.1061 174.421 74.0365 174.083 73.8906C173.745 73.7448 173.472 73.5194 173.263 73.2145C173.054 72.9096 172.95 72.5268 172.95 72.0661V64.5341ZM179.581 72.608L179.506 73.1499C179.456 73.5476 179.372 73.9619 179.253 74.3928C179.137 74.8269 179.016 75.2296 178.89 75.6009C178.767 75.9721 178.666 76.267 178.586 76.4858H177.532C177.575 76.2803 177.635 76.0019 177.711 75.6506C177.788 75.3026 177.862 74.9131 177.935 74.4822C178.008 74.0514 178.063 73.6122 178.099 73.1648L178.149 72.608H179.581ZM188.438 74.1541C187.722 74.1541 187.097 73.9901 186.563 73.6619C186.03 73.3338 185.615 72.8748 185.32 72.2848C185.025 71.6948 184.878 71.0054 184.878 70.2166C184.878 69.4245 185.025 68.7318 185.32 68.1385C185.615 67.5452 186.03 67.0845 186.563 66.7564C187.097 66.4283 187.722 66.2642 188.438 66.2642C189.153 66.2642 189.778 66.4283 190.312 66.7564C190.845 67.0845 191.26 67.5452 191.555 68.1385C191.85 68.7318 191.997 69.4245 191.997 70.2166C191.997 71.0054 191.85 71.6948 191.555 72.2848C191.26 72.8748 190.845 73.3338 190.312 73.6619C189.778 73.9901 189.153 74.1541 188.438 74.1541ZM188.443 72.9062C188.907 72.9062 189.291 72.7836 189.596 72.5384C189.901 72.2931 190.126 71.9666 190.272 71.5589C190.421 71.1513 190.496 70.7022 190.496 70.2116C190.496 69.7244 190.421 69.277 190.272 68.8693C190.126 68.4583 189.901 68.1286 189.596 67.88C189.291 67.6314 188.907 67.5071 188.443 67.5071C187.975 67.5071 187.587 67.6314 187.279 67.88C186.974 68.1286 186.747 68.4583 186.598 68.8693C186.452 69.277 186.379 69.7244 186.379 70.2116C186.379 70.7022 186.452 71.1513 186.598 71.5589C186.747 71.9666 186.974 72.2931 187.279 72.5384C187.587 72.7836 187.975 72.9062 188.443 72.9062ZM193.657 74V66.3636H195.093V67.5767H195.173C195.312 67.1657 195.557 66.8426 195.909 66.6072C196.263 66.3686 196.664 66.2493 197.112 66.2493C197.205 66.2493 197.314 66.2526 197.44 66.2592C197.569 66.2659 197.67 66.2741 197.743 66.2841V67.706C197.684 67.6894 197.577 67.6712 197.425 67.6513C197.273 67.6281 197.12 67.6165 196.968 67.6165C196.616 67.6165 196.303 67.6911 196.028 67.8402C195.756 67.986 195.541 68.1899 195.382 68.4517C195.223 68.7102 195.143 69.0052 195.143 69.3366V74H193.657ZM34.8341 95.1541C34.1182 95.1541 33.4934 94.9901 32.9598 94.6619C32.4262 94.3338 32.0119 93.8748 31.7169 93.2848C31.4219 92.6948 31.2744 92.0054 31.2744 91.2166C31.2744 90.4245 31.4219 89.7318 31.7169 89.1385C32.0119 88.5452 32.4262 88.0845 32.9598 87.7564C33.4934 87.4283 34.1182 87.2642 34.8341 87.2642C35.55 87.2642 36.1747 87.4283 36.7084 87.7564C37.242 88.0845 37.6563 88.5452 37.9513 89.1385C38.2462 89.7318 38.3937 90.4245 38.3937 91.2166C38.3937 92.0054 38.2462 92.6948 37.9513 93.2848C37.6563 93.8748 37.242 94.3338 36.7084 94.6619C36.1747 94.9901 35.55 95.1541 34.8341 95.1541ZM34.839 93.9062C35.3031 93.9062 35.6875 93.7836 35.9925 93.5384C36.2974 93.2931 36.5228 92.9666 36.6686 92.5589C36.8177 92.1513 36.8923 91.7022 36.8923 91.2116C36.8923 90.7244 36.8177 90.277 36.6686 89.8693C36.5228 89.4583 36.2974 89.1286 35.9925 88.88C35.6875 88.6314 35.3031 88.5071 34.839 88.5071C34.3717 88.5071 33.9839 88.6314 33.6757 88.88C33.3708 89.1286 33.1437 89.4583 32.9946 89.8693C32.8488 90.277 32.7758 90.7244 32.7758 91.2116C32.7758 91.7022 32.8488 92.1513 32.9946 92.5589C33.1437 92.9666 33.3708 93.2931 33.6757 93.5384C33.9839 93.7836 34.3717 93.9062 34.839 93.9062ZM40.1723 95V84.8182H41.6588V88.6016H41.7483C41.8345 88.4425 41.9588 88.2585 42.1212 88.0497C42.2836 87.8409 42.509 87.6586 42.7973 87.5028C43.0857 87.3438 43.4668 87.2642 43.9408 87.2642C44.5573 87.2642 45.1075 87.42 45.5914 87.7315C46.0753 88.0431 46.4548 88.4922 46.7298 89.0788C47.0083 89.6655 47.1475 90.3714 47.1475 91.1967C47.1475 92.022 47.0099 92.7296 46.7348 93.3196C46.4597 93.9062 46.0819 94.3587 45.6013 94.6768C45.1207 94.9917 44.5722 95.1491 43.9557 95.1491C43.4917 95.1491 43.1122 95.0713 42.8172 94.9155C42.5255 94.7597 42.2968 94.5774 42.1311 94.3686C41.9654 94.1598 41.8378 93.9742 41.7483 93.8118H41.624V95H40.1723ZM41.629 91.1818C41.629 91.7187 41.7069 92.1894 41.8627 92.5938C42.0184 92.9981 42.2438 93.3146 42.5388 93.5433C42.8338 93.7687 43.195 93.8814 43.6226 93.8814C44.0667 93.8814 44.4379 93.7637 44.7362 93.5284C45.0345 93.2898 45.2599 92.9666 45.4124 92.5589C45.5682 92.1513 45.646 91.6922 45.646 91.1818C45.646 90.678 45.5698 90.2256 45.4173 89.8246C45.2682 89.4235 45.0428 89.107 44.7412 88.875C44.4429 88.643 44.07 88.527 43.6226 88.527C43.1917 88.527 42.8271 88.638 42.5289 88.8601C42.2339 89.0821 42.0102 89.392 41.8577 89.7898C41.7052 90.1875 41.629 90.6515 41.629 91.1818ZM48.8167 87.3636H50.3032V95.4972C50.3032 96.0076 50.2104 96.4384 50.0248 96.7898C49.8425 97.1411 49.5707 97.4079 49.2094 97.5902C48.8515 97.7725 48.409 97.8636 47.882 97.8636C47.829 97.8636 47.7793 97.8636 47.7329 97.8636C47.6831 97.8636 47.6318 97.862 47.5787 97.8587V96.581C47.6251 96.581 47.6666 96.581 47.703 96.581C47.7362 96.581 47.7743 96.581 47.8174 96.581C48.1687 96.581 48.4223 96.4865 48.578 96.2976C48.7371 96.112 48.8167 95.8419 48.8167 95.4872V87.3636ZM49.5525 86.1854C49.2939 86.1854 49.0719 86.0992 48.8863 85.9268C48.704 85.7512 48.6128 85.5424 48.6128 85.3004C48.6128 85.0552 48.704 84.8464 48.8863 84.674C49.0719 84.4983 49.2939 84.4105 49.5525 84.4105C49.811 84.4105 50.0314 84.4983 50.2137 84.674C50.3993 84.8464 50.4921 85.0552 50.4921 85.3004C50.4921 85.5424 50.3993 85.7512 50.2137 85.9268C50.0314 86.0992 49.811 86.1854 49.5525 86.1854ZM55.5942 95.1541C54.8418 95.1541 54.1939 94.9934 53.6503 94.6719C53.1101 94.3471 52.6924 93.8913 52.3975 93.3047C52.1058 92.7147 51.96 92.0237 51.96 91.2315C51.96 90.4493 52.1058 89.7599 52.3975 89.1634C52.6924 88.5668 53.1034 88.1011 53.6304 87.7663C54.1607 87.4316 54.7805 87.2642 55.4898 87.2642C55.9207 87.2642 56.3383 87.3355 56.7426 87.478C57.147 87.6205 57.5099 87.8442 57.8314 88.1491C58.1529 88.4541 58.4065 88.8501 58.5921 89.3374C58.7777 89.8213 58.8705 90.4096 58.8705 91.1023V91.6293H52.8002V90.5156H57.4138C57.4138 90.1245 57.3343 89.7782 57.1752 89.4766C57.0161 89.1716 56.7923 88.9313 56.504 88.7557C56.219 88.58 55.8842 88.4922 55.4997 88.4922C55.0821 88.4922 54.7175 88.5949 54.406 88.8004C54.0977 89.0026 53.8591 89.2678 53.6901 89.5959C53.5244 89.9207 53.4415 90.2737 53.4415 90.6548V91.5249C53.4415 92.0353 53.531 92.4695 53.71 92.8274C53.8923 93.1854 54.1458 93.4588 54.4706 93.6477C54.7954 93.8333 55.1749 93.9261 55.6091 93.9261C55.8908 93.9261 56.1477 93.8864 56.3797 93.8068C56.6117 93.724 56.8122 93.6013 56.9813 93.4389C57.1503 93.2765 57.2796 93.076 57.3691 92.8374L58.776 93.0909C58.6633 93.5052 58.4611 93.8681 58.1695 94.1797C57.8811 94.4879 57.5182 94.7282 57.0807 94.9006C56.6465 95.0696 56.151 95.1541 55.5942 95.1541ZM63.7364 95.1541C62.9973 95.1541 62.3609 94.9867 61.8273 94.652C61.297 94.3139 60.8894 93.8482 60.6043 93.255C60.3193 92.6617 60.1768 91.9822 60.1768 91.2166C60.1768 90.4411 60.3226 89.7566 60.6143 89.1634C60.9059 88.5668 61.3169 88.1011 61.8472 87.7663C62.3775 87.4316 63.0023 87.2642 63.7215 87.2642C64.3015 87.2642 64.8186 87.3719 65.2726 87.5874C65.7267 87.7995 66.093 88.0978 66.3714 88.4822C66.6531 88.8667 66.8205 89.3158 66.8735 89.8295H65.4268C65.3472 89.4716 65.1649 89.1634 64.8799 88.9048C64.5982 88.6463 64.2203 88.517 63.7464 88.517C63.3321 88.517 62.9691 88.6264 62.6576 88.8452C62.3493 89.0606 62.109 89.3688 61.9367 89.7699C61.7644 90.1676 61.6782 90.6383 61.6782 91.1818C61.6782 91.7386 61.7627 92.2192 61.9317 92.6236C62.1008 93.0279 62.3394 93.3411 62.6476 93.5632C62.9592 93.7853 63.3254 93.8963 63.7464 93.8963C64.0281 93.8963 64.2833 93.8449 64.512 93.7422C64.744 93.6361 64.9379 93.4853 65.0937 93.2898C65.2528 93.0942 65.3638 92.8589 65.4268 92.5838H66.8735C66.8205 93.0777 66.6597 93.5185 66.3912 93.9062C66.1228 94.294 65.7632 94.599 65.3124 94.821C64.865 95.0431 64.3396 95.1541 63.7364 95.1541ZM72.0278 87.3636V88.5568H67.8566V87.3636H72.0278ZM68.9752 85.5341H70.4617V92.7578C70.4617 93.0462 70.5048 93.2633 70.591 93.4091C70.6772 93.5516 70.7882 93.6494 70.9241 93.7024C71.0633 93.7521 71.2141 93.777 71.3765 93.777C71.4958 93.777 71.6002 93.7687 71.6897 93.7521C71.7792 93.7356 71.8488 93.7223 71.8985 93.7124L72.167 94.9403C72.0808 94.9735 71.9582 95.0066 71.7991 95.0398C71.64 95.0762 71.4411 95.0961 71.2025 95.0994C70.8114 95.1061 70.4468 95.0365 70.1088 94.8906C69.7707 94.7448 69.4972 94.5194 69.2884 94.2145C69.0796 93.9096 68.9752 93.5268 68.9752 93.0661V85.5341ZM79.2714 89.228L77.9241 89.4666C77.8677 89.2943 77.7783 89.1302 77.6556 88.9744C77.5363 88.8187 77.3739 88.6911 77.1684 88.5916C76.9629 88.4922 76.7061 88.4425 76.3978 88.4425C75.9769 88.4425 75.6256 88.5369 75.3438 88.7259C75.0621 88.9115 74.9213 89.1518 74.9213 89.4467C74.9213 89.7019 75.0157 89.9074 75.2046 90.0632C75.3936 90.219 75.6985 90.3466 76.1194 90.446L77.3325 90.7244C78.0351 90.8868 78.5588 91.1371 78.9035 91.4751C79.2482 91.8132 79.4205 92.2524 79.4205 92.7926C79.4205 93.25 79.288 93.6577 79.0228 94.0156C78.761 94.3703 78.3947 94.6487 77.9241 94.8509C77.4568 95.053 76.9149 95.1541 76.2984 95.1541C75.4433 95.1541 74.7456 94.9718 74.2053 94.6072C73.6651 94.2393 73.3337 93.7173 73.211 93.0412L74.6478 92.8224C74.7373 93.197 74.9213 93.4804 75.1997 93.6726C75.4781 93.8615 75.841 93.956 76.2884 93.956C76.7757 93.956 77.1651 93.8549 77.4568 93.6527C77.7484 93.4472 77.8943 93.197 77.8943 92.902C77.8943 92.6634 77.8048 92.4628 77.6258 92.3004C77.4501 92.138 77.18 92.0154 76.8154 91.9325L75.5228 91.6491C74.8102 91.4867 74.2832 91.2282 73.9419 90.8736C73.6038 90.5189 73.4347 90.0698 73.4347 89.5263C73.4347 89.0755 73.5607 88.6811 73.8126 88.343C74.0645 88.005 74.4125 87.7415 74.8566 87.5526C75.3008 87.3603 75.8095 87.2642 76.3829 87.2642C77.2082 87.2642 77.8578 87.4432 78.3318 87.8011C78.8057 88.1558 79.1189 88.6314 79.2714 89.228ZM88.3247 87.3636V88.5568H84.1535V87.3636H88.3247ZM85.2721 85.5341H86.7586V92.7578C86.7586 93.0462 86.8017 93.2633 86.8879 93.4091C86.974 93.5516 87.0851 93.6494 87.221 93.7024C87.3602 93.7521 87.511 93.777 87.6734 93.777C87.7927 93.777 87.8971 93.7687 87.9866 93.7521C88.0761 93.7356 88.1457 93.7223 88.1954 93.7124L88.4639 94.9403C88.3777 94.9735 88.2551 95.0066 88.096 95.0398C87.9369 95.0762 87.738 95.0961 87.4994 95.0994C87.1083 95.1061 86.7437 95.0365 86.4056 94.8906C86.0676 94.7448 85.7941 94.5194 85.5853 94.2145C85.3765 93.9096 85.2721 93.5268 85.2721 93.0661V85.5341ZM93.1036 95.1541C92.3877 95.1541 91.7629 94.9901 91.2293 94.6619C90.6957 94.3338 90.2814 93.8748 89.9864 93.2848C89.6914 92.6948 89.5439 92.0054 89.5439 91.2166C89.5439 90.4245 89.6914 89.7318 89.9864 89.1385C90.2814 88.5452 90.6957 88.0845 91.2293 87.7564C91.7629 87.4283 92.3877 87.2642 93.1036 87.2642C93.8195 87.2642 94.4443 87.4283 94.9779 87.7564C95.5115 88.0845 95.9258 88.5452 96.2208 89.1385C96.5158 89.7318 96.6633 90.4245 96.6633 91.2166C96.6633 92.0054 96.5158 92.6948 96.2208 93.2848C95.9258 93.8748 95.5115 94.3338 94.9779 94.6619C94.4443 94.9901 93.8195 95.1541 93.1036 95.1541ZM93.1086 93.9062C93.5726 93.9062 93.9571 93.7836 94.262 93.5384C94.5669 93.2931 94.7923 92.9666 94.9381 92.5589C95.0873 92.1513 95.1618 91.7022 95.1618 91.2116C95.1618 90.7244 95.0873 90.277 94.9381 89.8693C94.7923 89.4583 94.5669 89.1286 94.262 88.88C93.9571 88.6314 93.5726 88.5071 93.1086 88.5071C92.6412 88.5071 92.2535 88.6314 91.9452 88.88C91.6403 89.1286 91.4133 89.4583 91.2641 89.8693C91.1183 90.277 91.0454 90.7244 91.0454 91.2116C91.0454 91.7022 91.1183 92.1513 91.2641 92.5589C91.4133 92.9666 91.6403 93.2931 91.9452 93.5384C92.2535 93.7836 92.6412 93.9062 93.1086 93.9062ZM105.229 98.0227C104.623 98.0227 104.101 97.9432 103.663 97.7841C103.229 97.625 102.874 97.4145 102.599 97.1527C102.324 96.8909 102.119 96.6042 101.983 96.2926L103.261 95.7656C103.35 95.9115 103.469 96.0656 103.619 96.228C103.771 96.3937 103.976 96.5346 104.235 96.6506C104.497 96.7666 104.833 96.8246 105.244 96.8246C105.808 96.8246 106.273 96.687 106.641 96.4119C107.009 96.1402 107.193 95.706 107.193 95.1094V93.608H107.099C107.009 93.7704 106.88 93.951 106.711 94.1499C106.545 94.3487 106.316 94.5211 106.025 94.6669C105.733 94.8127 105.354 94.8857 104.886 94.8857C104.283 94.8857 103.739 94.7448 103.256 94.4631C102.775 94.178 102.394 93.7588 102.112 93.2053C101.834 92.6484 101.695 91.964 101.695 91.152C101.695 90.34 101.832 89.6439 102.107 89.0639C102.386 88.4839 102.767 88.0398 103.251 87.7315C103.735 87.42 104.283 87.2642 104.896 87.2642C105.37 87.2642 105.753 87.3438 106.045 87.5028C106.336 87.6586 106.563 87.8409 106.726 88.0497C106.891 88.2585 107.019 88.4425 107.109 88.6016H107.218V87.3636H108.675V95.169C108.675 95.8253 108.522 96.3639 108.217 96.7848C107.912 97.2057 107.5 97.5173 106.979 97.7195C106.462 97.9216 105.879 98.0227 105.229 98.0227ZM105.214 93.6527C105.642 93.6527 106.003 93.5533 106.298 93.3544C106.597 93.1522 106.822 92.8639 106.974 92.4893C107.13 92.1115 107.208 91.6591 107.208 91.1321C107.208 90.6184 107.132 90.166 106.979 89.7749C106.827 89.3838 106.603 89.0788 106.308 88.8601C106.013 88.638 105.649 88.527 105.214 88.527C104.767 88.527 104.394 88.643 104.096 88.875C103.797 89.1037 103.572 89.4152 103.42 89.8097C103.271 90.2041 103.196 90.6449 103.196 91.1321C103.196 91.6326 103.272 92.0717 103.425 92.4496C103.577 92.8274 103.802 93.1224 104.101 93.3345C104.402 93.5466 104.774 93.6527 105.214 93.6527ZM113.959 95.1541C113.207 95.1541 112.559 94.9934 112.016 94.6719C111.475 94.3471 111.058 93.8913 110.763 93.3047C110.471 92.7147 110.325 92.0237 110.325 91.2315C110.325 90.4493 110.471 89.7599 110.763 89.1634C111.058 88.5668 111.469 88.1011 111.996 87.7663C112.526 87.4316 113.146 87.2642 113.855 87.2642C114.286 87.2642 114.704 87.3355 115.108 87.478C115.512 87.6205 115.875 87.8442 116.197 88.1491C116.518 88.4541 116.772 88.8501 116.957 89.3374C117.143 89.8213 117.236 90.4096 117.236 91.1023V91.6293H111.165V90.5156H115.779C115.779 90.1245 115.699 89.7782 115.54 89.4766C115.381 89.1716 115.158 88.9313 114.869 88.7557C114.584 88.58 114.249 88.4922 113.865 88.4922C113.447 88.4922 113.083 88.5949 112.771 88.8004C112.463 89.0026 112.224 89.2678 112.055 89.5959C111.89 89.9207 111.807 90.2737 111.807 90.6548V91.5249C111.807 92.0353 111.896 92.4695 112.075 92.8274C112.257 93.1854 112.511 93.4588 112.836 93.6477C113.161 93.8333 113.54 93.9261 113.974 93.9261C114.256 93.9261 114.513 93.8864 114.745 93.8068C114.977 93.724 115.177 93.6013 115.347 93.4389C115.516 93.2765 115.645 93.076 115.734 92.8374L117.141 93.0909C117.029 93.5052 116.826 93.8681 116.535 94.1797C116.246 94.4879 115.883 94.7282 115.446 94.9006C115.012 95.0696 114.516 95.1541 113.959 95.1541ZM122.45 87.3636V88.5568H118.278V87.3636H122.45ZM119.397 85.5341H120.884V92.7578C120.884 93.0462 120.927 93.2633 121.013 93.4091C121.099 93.5516 121.21 93.6494 121.346 93.7024C121.485 93.7521 121.636 93.777 121.798 93.777C121.918 93.777 122.022 93.7687 122.112 93.7521C122.201 93.7356 122.271 93.7223 122.32 93.7124L122.589 94.9403C122.503 94.9735 122.38 95.0066 122.221 95.0398C122.062 95.0762 121.863 95.0961 121.624 95.0994C121.233 95.1061 120.869 95.0365 120.531 94.8906C120.193 94.7448 119.919 94.5194 119.71 94.2145C119.502 93.9096 119.397 93.5268 119.397 93.0661V85.5341ZM133.521 89.228L132.174 89.4666C132.118 89.2943 132.028 89.1302 131.906 88.9744C131.786 88.8187 131.624 88.6911 131.418 88.5916C131.213 88.4922 130.956 88.4425 130.648 88.4425C130.227 88.4425 129.876 88.5369 129.594 88.7259C129.312 88.9115 129.171 89.1518 129.171 89.4467C129.171 89.7019 129.266 89.9074 129.455 90.0632C129.644 90.219 129.948 90.3466 130.369 90.446L131.582 90.7244C132.285 90.8868 132.809 91.1371 133.153 91.4751C133.498 91.8132 133.671 92.2524 133.671 92.7926C133.671 93.25 133.538 93.6577 133.273 94.0156C133.011 94.3703 132.645 94.6487 132.174 94.8509C131.707 95.053 131.165 95.1541 130.548 95.1541C129.693 95.1541 128.996 94.9718 128.455 94.6072C127.915 94.2393 127.584 93.7173 127.461 93.0412L128.898 92.8224C128.987 93.197 129.171 93.4804 129.45 93.6726C129.728 93.8615 130.091 93.956 130.538 93.956C131.026 93.956 131.415 93.8549 131.707 93.6527C131.998 93.4472 132.144 93.197 132.144 92.902C132.144 92.6634 132.055 92.4628 131.876 92.3004C131.7 92.138 131.43 92.0154 131.065 91.9325L129.773 91.6491C129.06 91.4867 128.533 91.2282 128.192 90.8736C127.854 90.5189 127.685 90.0698 127.685 89.5263C127.685 89.0755 127.811 88.6811 128.063 88.343C128.314 88.005 128.662 87.7415 129.107 87.5526C129.551 87.3603 130.06 87.2642 130.633 87.2642C131.458 87.2642 132.108 87.4432 132.582 87.8011C133.056 88.1558 133.369 88.6314 133.521 89.228ZM138.87 87.3636V88.5568H134.698V87.3636H138.87ZM135.817 85.5341H137.304V92.7578C137.304 93.0462 137.347 93.2633 137.433 93.4091C137.519 93.5516 137.63 93.6494 137.766 93.7024C137.905 93.7521 138.056 93.777 138.218 93.777C138.338 93.777 138.442 93.7687 138.532 93.7521C138.621 93.7356 138.691 93.7223 138.74 93.7124L139.009 94.9403C138.923 94.9735 138.8 95.0066 138.641 95.0398C138.482 95.0762 138.283 95.0961 138.044 95.0994C137.653 95.1061 137.289 95.0365 136.951 94.8906C136.612 94.7448 136.339 94.5194 136.13 94.2145C135.921 93.9096 135.817 93.5268 135.817 93.0661V85.5341ZM142.736 95.169C142.252 95.169 141.815 95.0795 141.424 94.9006C141.033 94.7183 140.723 94.4548 140.494 94.1101C140.269 93.7654 140.156 93.3428 140.156 92.8423C140.156 92.4115 140.239 92.0568 140.405 91.7784C140.57 91.5 140.794 91.2796 141.076 91.1172C141.357 90.9548 141.672 90.8321 142.02 90.7493C142.368 90.6664 142.723 90.6035 143.084 90.5604C143.542 90.5073 143.913 90.4643 144.198 90.4311C144.483 90.3946 144.69 90.3366 144.819 90.2571C144.949 90.1776 145.013 90.0483 145.013 89.8693V89.8345C145.013 89.4003 144.891 89.0639 144.645 88.8253C144.403 88.5866 144.042 88.4673 143.562 88.4673C143.061 88.4673 142.667 88.5784 142.378 88.8004C142.093 89.0192 141.896 89.2628 141.787 89.5312L140.39 89.2131C140.555 88.7491 140.797 88.3745 141.116 88.0895C141.437 87.8011 141.807 87.5923 142.224 87.4631C142.642 87.3305 143.081 87.2642 143.542 87.2642C143.847 87.2642 144.17 87.3007 144.511 87.3736C144.856 87.4432 145.177 87.5724 145.476 87.7614C145.777 87.9503 146.024 88.2204 146.216 88.5717C146.409 88.9197 146.505 89.3722 146.505 89.929V95H145.053V93.956H144.993C144.897 94.1482 144.753 94.3371 144.561 94.5227C144.369 94.7083 144.122 94.8625 143.82 94.9851C143.518 95.1077 143.157 95.169 142.736 95.169ZM143.059 93.9759C143.47 93.9759 143.822 93.8946 144.113 93.7322C144.408 93.5698 144.632 93.3577 144.785 93.0959C144.94 92.8307 145.018 92.5473 145.018 92.2457V91.2614C144.965 91.3144 144.862 91.3641 144.71 91.4105C144.561 91.4536 144.39 91.4917 144.198 91.5249C144.006 91.5547 143.818 91.5829 143.636 91.6094C143.454 91.6326 143.301 91.6525 143.179 91.669C142.89 91.7055 142.627 91.7668 142.388 91.853C142.153 91.9392 141.964 92.0634 141.821 92.2259C141.682 92.3849 141.613 92.5971 141.613 92.8622C141.613 93.2301 141.749 93.5085 142.02 93.6974C142.292 93.883 142.638 93.9759 143.059 93.9759ZM148.485 95V87.3636H149.921V88.5767H150.001C150.14 88.1657 150.385 87.8426 150.737 87.6072C151.091 87.3686 151.492 87.2493 151.94 87.2493C152.033 87.2493 152.142 87.2526 152.268 87.2592C152.397 87.2659 152.498 87.2741 152.571 87.2841V88.706C152.512 88.6894 152.406 88.6712 152.253 88.6513C152.101 88.6281 151.948 88.6165 151.796 88.6165C151.444 88.6165 151.131 88.6911 150.856 88.8402C150.584 88.986 150.369 89.1899 150.21 89.4517C150.051 89.7102 149.971 90.0052 149.971 90.3366V95H148.485ZM157.873 87.3636V88.5568H153.702V87.3636H157.873ZM154.821 85.5341H156.307V92.7578C156.307 93.0462 156.351 93.2633 156.437 93.4091C156.523 93.5516 156.634 93.6494 156.77 93.7024C156.909 93.7521 157.06 93.777 157.222 93.777C157.342 93.777 157.446 93.7687 157.535 93.7521C157.625 93.7356 157.695 93.7223 157.744 93.7124L158.013 94.9403C157.927 94.9735 157.804 95.0066 157.645 95.0398C157.486 95.0762 157.287 95.0961 157.048 95.0994C156.657 95.1061 156.293 95.0365 155.954 94.8906C155.616 94.7448 155.343 94.5194 155.134 94.2145C154.925 93.9096 154.821 93.5268 154.821 93.0661V85.5341ZM162.727 95.1541C161.975 95.1541 161.327 94.9934 160.783 94.6719C160.243 94.3471 159.825 93.8913 159.53 93.3047C159.239 92.7147 159.093 92.0237 159.093 91.2315C159.093 90.4493 159.239 89.7599 159.53 89.1634C159.825 88.5668 160.236 88.1011 160.763 87.7663C161.294 87.4316 161.913 87.2642 162.623 87.2642C163.053 87.2642 163.471 87.3355 163.875 87.478C164.28 87.6205 164.643 87.8442 164.964 88.1491C165.286 88.4541 165.539 88.8501 165.725 89.3374C165.91 89.8213 166.003 90.4096 166.003 91.1023V91.6293H159.933V90.5156H164.547C164.547 90.1245 164.467 89.7782 164.308 89.4766C164.149 89.1716 163.925 88.9313 163.637 88.7557C163.352 88.58 163.017 88.4922 162.633 88.4922C162.215 88.4922 161.85 88.5949 161.539 88.8004C161.231 89.0026 160.992 89.2678 160.823 89.5959C160.657 89.9207 160.574 90.2737 160.574 90.6548V91.5249C160.574 92.0353 160.664 92.4695 160.843 92.8274C161.025 93.1854 161.279 93.4588 161.603 93.6477C161.928 93.8333 162.308 93.9261 162.742 93.9261C163.024 93.9261 163.281 93.8864 163.513 93.8068C163.745 93.724 163.945 93.6013 164.114 93.4389C164.283 93.2765 164.412 93.076 164.502 92.8374L165.909 93.0909C165.796 93.5052 165.594 93.8681 165.302 94.1797C165.014 94.4879 164.651 94.7282 164.214 94.9006C163.779 95.0696 163.284 95.1541 162.727 95.1541ZM170.511 95.1491C169.895 95.1491 169.345 94.9917 168.861 94.6768C168.38 94.3587 168.002 93.9062 167.727 93.3196C167.455 92.7296 167.32 92.022 167.32 91.1967C167.32 90.3714 167.457 89.6655 167.732 89.0788C168.011 88.4922 168.392 88.0431 168.876 87.7315C169.36 87.42 169.908 87.2642 170.521 87.2642C170.995 87.2642 171.376 87.3438 171.665 87.5028C171.956 87.6586 172.182 87.8409 172.341 88.0497C172.503 88.2585 172.629 88.4425 172.719 88.6016H172.808V84.8182H174.295V95H172.843V93.8118H172.719C172.629 93.9742 172.5 94.1598 172.331 94.3686C172.165 94.5774 171.936 94.7597 171.645 94.9155C171.353 95.0713 170.975 95.1491 170.511 95.1491ZM170.839 93.8814C171.267 93.8814 171.628 93.7687 171.923 93.5433C172.222 93.3146 172.447 92.9981 172.599 92.5938C172.755 92.1894 172.833 91.7187 172.833 91.1818C172.833 90.6515 172.757 90.1875 172.604 89.7898C172.452 89.392 172.228 89.0821 171.933 88.8601C171.638 88.638 171.274 88.527 170.839 88.527C170.392 88.527 170.019 88.643 169.721 88.875C169.422 89.107 169.197 89.4235 169.045 89.8246C168.896 90.2256 168.821 90.678 168.821 91.1818C168.821 91.6922 168.897 92.1513 169.05 92.5589C169.202 92.9666 169.427 93.2898 169.726 93.5284C170.027 93.7637 170.399 93.8814 170.839 93.8814ZM177.396 95.0945C177.124 95.0945 176.89 94.9983 176.695 94.8061C176.499 94.6106 176.401 94.3752 176.401 94.1001C176.401 93.8284 176.499 93.5964 176.695 93.4041C176.89 93.2086 177.124 93.1108 177.396 93.1108C177.667 93.1108 177.901 93.2086 178.097 93.4041C178.292 93.5964 178.39 93.8284 178.39 94.1001C178.39 94.2824 178.344 94.4498 178.251 94.6023C178.161 94.7514 178.042 94.8707 177.893 94.9602C177.744 95.0497 177.578 95.0945 177.396 95.0945Z" fill="#A0A5D0"/>
<path d="M105 1.83334L95.833 6.41668L105 11L114.166 6.41668L105 1.83334Z" stroke="#A3A9CE" stroke-width="1.5" stroke-linecap="round" stroke-linejoin="round"/>
<path d="M95.833 15.5833L105 20.1667L114.166 15.5833" stroke="#A3A9CE" stroke-width="1.5" stroke-linecap="round" stroke-linejoin="round"/>
<path d="M95.833 11L105 15.5833L114.166 11" stroke="#A3A9CE" stroke-width="1.5" stroke-linecap="round" stroke-linejoin="round"/>
</svg>
