<svg width="73" height="14" viewBox="0 0 73 14" fill="none" xmlns="http://www.w3.org/2000/svg">
<path d="M59.8952 4.53964C59.504 4.26149 59.2197 3.97951 59.2197 3.63165H57.0442C57.0442 4.25766 56.7599 4.53964 56.4091 4.53964H55.8281V10.8955H67.1254V4.53964H59.8546H59.8952ZM59.2196 6.35555H57.1838V5.44757H59.4433V6.17819L59.2196 6.35555ZM63.0436 9.89042C61.7547 9.89042 60.706 8.85042 60.706 7.57201C60.706 6.2936 61.7546 5.30705 63.0436 5.30705C64.3325 5.30705 65.3811 6.29354 65.3811 7.57201C65.3811 8.8504 64.3325 9.89042 63.0436 9.89042ZM64.3002 7.57201C64.3002 8.25921 63.7365 8.81841 63.0437 8.81841C62.3508 8.81841 61.7871 8.25922 61.7871 7.57201C61.7871 6.88472 62.3508 6.32572 63.0437 6.32572C63.7365 6.32572 64.3002 6.88481 64.3002 7.57201ZM73.0003 3.67502L70.1877 10.8785L68.0295 10.0089V8.7813L69.5283 9.39751L71.5074 4.32917L64.0914 1.48045L63.4041 3.63171H62.1666L63.432 -0.000244141L73.0004 3.67511L73.0003 3.67502Z" fill="#A0A5D0"/>
<path d="M4.81955 3.22208C6.68273 3.1791 8.43155 4.70157 8.62836 6.56812C8.86374 8.20861 7.90311 9.91229 6.39766 10.578C5.48572 11.0329 4.45588 10.8931 3.47496 10.9164H2.51666V14.0008H0.998754C1.00201 11.6208 0.992627 9.24071 1.0034 6.86069C1.05309 5.08799 2.49817 3.49996 4.2429 3.26396C4.43365 3.2355 4.62713 3.22158 4.81955 3.22191V3.22208ZM4.81955 9.39102C5.91451 9.4186 6.94142 8.56035 7.10484 7.47057C7.32306 6.37357 6.62652 5.19484 5.56176 4.86584C4.53332 4.49922 3.29598 4.98189 2.79379 5.95752C2.40406 6.62412 2.54249 7.41219 2.51663 8.14668V9.39107C3.28429 9.39106 4.05191 9.39106 4.81957 9.39105L4.81955 9.39102Z" fill="#A0A5D0"/>
<path d="M9.3623 3.18457H10.8631V10.8791H9.3623V3.18457Z" fill="#A0A5D0"/>
<path d="M15.373 8.04272H15.4277L17.561 10.9003H19.4208L16.5217 6.94366L19.0926 3.20679H17.2328L15.4277 5.84456H15.373L13.5679 3.20679H11.7081L14.279 6.94366L11.3799 10.9003H13.2397L15.373 8.04272Z" fill="#A0A5D0"/>
<path d="M22.8197 3.18475C24.3398 3.1546 25.7978 4.15505 26.3603 5.56748C26.654 6.22348 26.6499 6.95022 26.6405 7.65443V10.8791C25.2859 10.8745 23.9309 10.8885 22.5766 10.8718C21.0193 10.7955 19.5954 9.65472 19.1496 8.15783C18.7409 6.85637 19.0804 5.34515 20.0424 4.37326C20.761 3.62644 21.7822 3.17481 22.8197 3.18475H22.8197ZM25.1226 9.35414C25.1161 8.4986 25.1363 7.64221 25.1114 6.78727C25.0216 5.64103 23.9647 4.68071 22.8197 4.7102C21.731 4.68379 20.7047 5.53229 20.5344 6.61511C20.3348 7.6542 20.9287 8.78644 21.9157 9.17424C22.5237 9.44062 23.1952 9.33079 23.8378 9.35414C24.2661 9.35415 24.6943 9.35414 25.1226 9.35414V9.35414Z" fill="#A0A5D0"/>
<path d="M31.2091 3.22196C33.0068 3.17744 34.6866 4.59836 34.9728 6.37708C35.2976 8.06274 34.3497 9.88393 32.7872 10.5779C31.2603 11.3019 29.2969 10.8354 28.2469 9.50868C27.5961 8.73853 27.3156 7.71456 27.3711 6.71611V0.137451H28.889V3.22187C29.6624 3.22197 30.4359 3.22167 31.2092 3.22202L31.2091 3.22196ZM31.2091 9.3909C32.362 9.42189 33.4159 8.44943 33.5004 7.29718C33.645 6.15187 32.8 5.00007 31.6717 4.79193C31.0477 4.70613 30.4139 4.76385 29.7854 4.74696H28.8891C28.8988 5.61623 28.8684 6.48712 28.9065 7.35527C29.0271 8.5037 30.0609 9.41344 31.2091 9.3909V9.3909Z" fill="#A0A5D0"/>
<path d="M39.4359 3.18475C40.956 3.1546 42.4139 4.1551 42.9765 5.56748C43.2702 6.22348 43.2661 6.95022 43.2567 7.65443V10.8791C41.9021 10.8745 40.5471 10.8885 39.1928 10.8718C37.6356 10.7955 36.2116 9.65472 35.7658 8.15783C35.3571 6.85637 35.6967 5.34515 36.6586 4.37326C37.3772 3.62644 38.3984 3.17481 39.4358 3.18475H39.4359ZM41.7388 9.35414C41.7323 8.4986 41.7524 7.64221 41.7276 6.78727C41.6378 5.64103 40.5809 4.68071 39.4358 4.7102C38.3472 4.68379 37.3209 5.53229 37.1505 6.61511C36.951 7.6542 37.5448 8.78644 38.5319 9.17424C39.1398 9.44062 39.8113 9.33079 40.454 9.35414C40.8822 9.35415 41.3105 9.35414 41.7388 9.35414V9.35414Z" fill="#A0A5D0"/>
<path d="M51.6103 3.20337C51.6071 5.57761 51.6165 7.95222 51.6057 10.3262C51.5506 12.1947 49.9523 13.8741 48.0862 13.9718C47.7317 13.9906 47.3765 13.9791 47.0217 13.9823V12.4574C47.6694 12.4541 48.3624 12.5202 48.936 12.1516C49.6526 11.7478 50.108 10.9334 50.0918 10.1098C48.7463 11.1997 46.6604 11.1431 45.3519 10.0181C44.3986 9.24491 43.8776 8.00113 43.9512 6.77719V3.20351H45.4691C45.4761 4.56185 45.4549 5.92114 45.4803 7.27887C45.5628 8.39706 46.5552 9.34332 47.6706 9.37006C48.8008 9.45732 49.8887 8.57552 50.0573 7.45219C50.1254 6.78018 50.0771 6.10137 50.0916 5.42633V3.20347C50.5978 3.20344 51.1039 3.2034 51.6101 3.20337H51.6103Z" fill="#A0A5D0"/>
</svg>
