<svg width="225" height="34" viewBox="0 0 225 34" fill="none" xmlns="http://www.w3.org/2000/svg">
<rect x="0.5" y="0.5" width="224" height="33" rx="4.5" fill="#141629" stroke="#222544"/>
<g filter="url(#filter0_ii_1109_33)">
<path fill-rule="evenodd" clip-rule="evenodd" d="M23.4446 10H12.5556C11.6965 10 11 10.6965 11 11.5556V22.4446C11 23.3037 11.6965 24.0002 12.5556 24.0002H12.6757L20.9766 15.3759C21.1462 15.1996 21.3803 15.1 21.625 15.1C21.8697 15.1 22.1038 15.1996 22.2734 15.3759L25.0002 18.2088V11.5556C25.0002 10.6965 24.3037 10 23.4446 10ZM23.4446 24.0002H15.174L21.625 17.2978L25.0002 20.8045V22.4446C25.0002 23.3037 24.3037 24.0002 23.4446 24.0002ZM17 14.5C17 15.3284 16.3284 16 15.5 16C14.6716 16 14 15.3284 14 14.5C14 13.6716 14.6716 13 15.5 13C16.3284 13 17 13.6716 17 14.5Z" fill="#A0A5D0"/>
</g>
<rect x="68" y="5" width="32" height="23" rx="2" fill="#3C406E"/>
<path d="M33.8237 22V11.8182H35.3599V16.2429H40.4359V11.8182H41.9771V22H40.4359V17.5604H35.3599V22H33.8237ZM47.3116 22.1541C46.5957 22.1541 45.9709 21.9901 45.4373 21.6619C44.9037 21.3338 44.4894 20.8748 44.1944 20.2848C43.8994 19.6948 43.752 19.0054 43.752 18.2166C43.752 17.4245 43.8994 16.7318 44.1944 16.1385C44.4894 15.5452 44.9037 15.0845 45.4373 14.7564C45.9709 14.4283 46.5957 14.2642 47.3116 14.2642C48.0275 14.2642 48.6523 14.4283 49.1859 14.7564C49.7195 15.0845 50.1338 15.5452 50.4288 16.1385C50.7238 16.7318 50.8713 17.4245 50.8713 18.2166C50.8713 19.0054 50.7238 19.6948 50.4288 20.2848C50.1338 20.8748 49.7195 21.3338 49.1859 21.6619C48.6523 21.9901 48.0275 22.1541 47.3116 22.1541ZM47.3166 20.9062C47.7806 20.9062 48.1651 20.7836 48.47 20.5384C48.7749 20.2931 49.0003 19.9666 49.1461 19.5589C49.2953 19.1513 49.3699 18.7022 49.3699 18.2116C49.3699 17.7244 49.2953 17.277 49.1461 16.8693C49.0003 16.4583 48.7749 16.1286 48.47 15.88C48.1651 15.6314 47.7806 15.5071 47.3166 15.5071C46.8493 15.5071 46.4615 15.6314 46.1532 15.88C45.8483 16.1286 45.6213 16.4583 45.4721 16.8693C45.3263 17.277 45.2534 17.7244 45.2534 18.2116C45.2534 18.7022 45.3263 19.1513 45.4721 19.5589C45.6213 19.9666 45.8483 20.2931 46.1532 20.5384C46.4615 20.7836 46.8493 20.9062 47.3166 20.9062ZM54.017 11.8182V22H52.5305V11.8182H54.017ZM58.8755 22.1491C58.2591 22.1491 57.7089 21.9917 57.225 21.6768C56.7444 21.3587 56.3665 20.9062 56.0914 20.3196C55.8197 19.7296 55.6838 19.022 55.6838 18.1967C55.6838 17.3714 55.8213 16.6655 56.0964 16.0788C56.3748 15.4922 56.756 15.0431 57.2399 14.7315C57.7238 14.42 58.2723 14.2642 58.8855 14.2642C59.3594 14.2642 59.7406 14.3438 60.0289 14.5028C60.3206 14.6586 60.546 14.8409 60.7051 15.0497C60.8675 15.2585 60.9934 15.4425 61.0829 15.6016H61.1724V11.8182H62.6589V22H61.2072V20.8118H61.0829C60.9934 20.9742 60.8642 21.1598 60.6951 21.3686C60.5294 21.5774 60.3007 21.7597 60.0091 21.9155C59.7174 22.0713 59.3395 22.1491 58.8755 22.1491ZM59.2037 20.8814C59.6312 20.8814 59.9925 20.7687 60.2875 20.5433C60.5858 20.3146 60.8111 19.9981 60.9636 19.5938C61.1194 19.1894 61.1973 18.7187 61.1973 18.1818C61.1973 17.6515 61.121 17.1875 60.9686 16.7898C60.8161 16.392 60.5924 16.0821 60.2974 15.8601C60.0024 15.638 59.6378 15.527 59.2037 15.527C58.7562 15.527 58.3833 15.643 58.085 15.875C57.7868 16.107 57.5614 16.4235 57.4089 16.8246C57.2598 17.2256 57.1852 17.678 57.1852 18.1818C57.1852 18.6922 57.2614 19.1513 57.4139 19.5589C57.5663 19.9666 57.7917 20.2898 58.09 20.5284C58.3916 20.7637 58.7628 20.8814 59.2037 20.8814ZM107.529 14.3636V15.5568H103.358V14.3636H107.529ZM104.476 12.5341H105.963V19.7578C105.963 20.0462 106.006 20.2633 106.092 20.4091C106.178 20.5516 106.289 20.6494 106.425 20.7024C106.564 20.7521 106.715 20.777 106.877 20.777C106.997 20.777 107.101 20.7687 107.191 20.7521C107.28 20.7356 107.35 20.7223 107.4 20.7124L107.668 21.9403C107.582 21.9735 107.459 22.0066 107.3 22.0398C107.141 22.0762 106.942 22.0961 106.703 22.0994C106.312 22.1061 105.948 22.0365 105.61 21.8906C105.272 21.7448 104.998 21.5194 104.789 21.2145C104.581 20.9096 104.476 20.5268 104.476 20.0661V12.5341ZM112.308 22.1541C111.592 22.1541 110.967 21.9901 110.433 21.6619C109.9 21.3338 109.485 20.8748 109.191 20.2848C108.896 19.6948 108.748 19.0054 108.748 18.2166C108.748 17.4245 108.896 16.7318 109.191 16.1385C109.485 15.5452 109.9 15.0845 110.433 14.7564C110.967 14.4283 111.592 14.2642 112.308 14.2642C113.024 14.2642 113.648 14.4283 114.182 14.7564C114.716 15.0845 115.13 15.5452 115.425 16.1385C115.72 16.7318 115.867 17.4245 115.867 18.2166C115.867 19.0054 115.72 19.6948 115.425 20.2848C115.13 20.8748 114.716 21.3338 114.182 21.6619C113.648 21.9901 113.024 22.1541 112.308 22.1541ZM112.313 20.9062C112.777 20.9062 113.161 20.7836 113.466 20.5384C113.771 20.2931 113.996 19.9666 114.142 19.5589C114.291 19.1513 114.366 18.7022 114.366 18.2116C114.366 17.7244 114.291 17.277 114.142 16.8693C113.996 16.4583 113.771 16.1286 113.466 15.88C113.161 15.6314 112.777 15.5071 112.313 15.5071C111.845 15.5071 111.458 15.6314 111.149 15.88C110.844 16.1286 110.617 16.4583 110.468 16.8693C110.322 17.277 110.249 17.7244 110.249 18.2116C110.249 18.7022 110.322 19.1513 110.468 19.5589C110.617 19.9666 110.844 20.2931 111.149 20.5384C111.458 20.7836 111.845 20.9062 112.313 20.9062ZM121.232 22V14.3636H122.669V15.5767H122.748C122.887 15.1657 123.133 14.8426 123.484 14.6072C123.838 14.3686 124.24 14.2493 124.687 14.2493C124.78 14.2493 124.889 14.2526 125.015 14.2592C125.144 14.2659 125.245 14.2741 125.318 14.2841V15.706C125.259 15.6894 125.153 15.6712 125 15.6513C124.848 15.6281 124.695 15.6165 124.543 15.6165C124.191 15.6165 123.878 15.6911 123.603 15.8402C123.331 15.986 123.116 16.1899 122.957 16.4517C122.798 16.7102 122.718 17.0052 122.718 17.3366V22H121.232ZM129.623 22.1541C128.87 22.1541 128.222 21.9934 127.679 21.6719C127.138 21.3471 126.721 20.8913 126.426 20.3047C126.134 19.7147 125.988 19.0237 125.988 18.2315C125.988 17.4493 126.134 16.7599 126.426 16.1634C126.721 15.5668 127.132 15.1011 127.659 14.7663C128.189 14.4316 128.809 14.2642 129.518 14.2642C129.949 14.2642 130.367 14.3355 130.771 14.478C131.175 14.6205 131.538 14.8442 131.86 15.1491C132.181 15.4541 132.435 15.8501 132.62 16.3374C132.806 16.8213 132.899 17.4096 132.899 18.1023V18.6293H126.828V17.5156H131.442C131.442 17.1245 131.363 16.7782 131.203 16.4766C131.044 16.1716 130.821 15.9313 130.532 15.7557C130.247 15.58 129.913 15.4922 129.528 15.4922C129.11 15.4922 128.746 15.5949 128.434 15.8004C128.126 16.0026 127.887 16.2678 127.718 16.5959C127.553 16.9207 127.47 17.2737 127.47 17.6548V18.5249C127.47 19.0353 127.559 19.4695 127.738 19.8274C127.921 20.1854 128.174 20.4588 128.499 20.6477C128.824 20.8333 129.203 20.9261 129.637 20.9261C129.919 20.9261 130.176 20.8864 130.408 20.8068C130.64 20.724 130.841 20.6013 131.01 20.4389C131.179 20.2765 131.308 20.076 131.397 19.8374L132.804 20.0909C132.692 20.5052 132.489 20.8681 132.198 21.1797C131.909 21.4879 131.547 21.7282 131.109 21.9006C130.675 22.0696 130.179 22.1541 129.623 22.1541ZM134.548 24.8636V14.3636H136V15.6016H136.124C136.21 15.4425 136.335 15.2585 136.497 15.0497C136.659 14.8409 136.885 14.6586 137.173 14.5028C137.461 14.3438 137.843 14.2642 138.317 14.2642C138.933 14.2642 139.483 14.42 139.967 14.7315C140.451 15.0431 140.831 15.4922 141.106 16.0788C141.384 16.6655 141.523 17.3714 141.523 18.1967C141.523 19.022 141.386 19.7296 141.111 20.3196C140.836 20.9062 140.458 21.3587 139.977 21.6768C139.497 21.9917 138.948 22.1491 138.331 22.1491C137.867 22.1491 137.488 22.0713 137.193 21.9155C136.901 21.7597 136.673 21.5774 136.507 21.3686C136.341 21.1598 136.214 20.9742 136.124 20.8118H136.035V24.8636H134.548ZM136.005 18.1818C136.005 18.7187 136.083 19.1894 136.238 19.5938C136.394 19.9981 136.62 20.3146 136.915 20.5433C137.21 20.7687 137.571 20.8814 137.998 20.8814C138.443 20.8814 138.814 20.7637 139.112 20.5284C139.41 20.2898 139.636 19.9666 139.788 19.5589C139.944 19.1513 140.022 18.6922 140.022 18.1818C140.022 17.678 139.946 17.2256 139.793 16.8246C139.644 16.4235 139.419 16.107 139.117 15.875C138.819 15.643 138.446 15.527 137.998 15.527C137.568 15.527 137.203 15.638 136.905 15.8601C136.61 16.0821 136.386 16.392 136.233 16.7898C136.081 17.1875 136.005 17.6515 136.005 18.1818ZM144.675 11.8182V22H143.189V11.8182H144.675ZM148.897 22.169C148.413 22.169 147.976 22.0795 147.585 21.9006C147.194 21.7183 146.884 21.4548 146.655 21.1101C146.43 20.7654 146.317 20.3428 146.317 19.8423C146.317 19.4115 146.4 19.0568 146.566 18.7784C146.731 18.5 146.955 18.2796 147.237 18.1172C147.519 17.9548 147.833 17.8321 148.181 17.7493C148.529 17.6664 148.884 17.6035 149.245 17.5604C149.703 17.5073 150.074 17.4643 150.359 17.4311C150.644 17.3946 150.851 17.3366 150.98 17.2571C151.11 17.1776 151.174 17.0483 151.174 16.8693V16.8345C151.174 16.4003 151.052 16.0639 150.806 15.8253C150.565 15.5866 150.203 15.4673 149.723 15.4673C149.222 15.4673 148.828 15.5784 148.539 15.8004C148.254 16.0192 148.057 16.2628 147.948 16.5312L146.551 16.2131C146.717 15.7491 146.958 15.3745 147.277 15.0895C147.598 14.8011 147.968 14.5923 148.385 14.4631C148.803 14.3305 149.242 14.2642 149.703 14.2642C150.008 14.2642 150.331 14.3007 150.672 14.3736C151.017 14.4432 151.338 14.5724 151.637 14.7614C151.938 14.9503 152.185 15.2204 152.377 15.5717C152.57 15.9197 152.666 16.3722 152.666 16.929V22H151.214V20.956H151.154C151.058 21.1482 150.914 21.3371 150.722 21.5227C150.53 21.7083 150.283 21.8625 149.981 21.9851C149.68 22.1077 149.318 22.169 148.897 22.169ZM149.221 20.9759C149.632 20.9759 149.983 20.8946 150.275 20.7322C150.569 20.5698 150.793 20.3577 150.946 20.0959C151.101 19.8307 151.179 19.5473 151.179 19.2457V18.2614C151.126 18.3144 151.024 18.3641 150.871 18.4105C150.722 18.4536 150.551 18.4917 150.359 18.5249C150.167 18.5547 149.98 18.5829 149.797 18.6094C149.615 18.6326 149.462 18.6525 149.34 18.669C149.051 18.7055 148.788 18.7668 148.549 18.853C148.314 18.9392 148.125 19.0634 147.983 19.2259C147.843 19.3849 147.774 19.5971 147.774 19.8622C147.774 20.2301 147.91 20.5085 148.181 20.6974C148.453 20.883 148.8 20.9759 149.221 20.9759ZM157.862 22.1541C157.123 22.1541 156.487 21.9867 155.953 21.652C155.423 21.3139 155.015 20.8482 154.73 20.255C154.445 19.6617 154.303 18.9822 154.303 18.2166C154.303 17.4411 154.449 16.7566 154.74 16.1634C155.032 15.5668 155.443 15.1011 155.973 14.7663C156.503 14.4316 157.128 14.2642 157.847 14.2642C158.427 14.2642 158.945 14.3719 159.399 14.5874C159.853 14.7995 160.219 15.0978 160.497 15.4822C160.779 15.8667 160.946 16.3158 160.999 16.8295H159.553C159.473 16.4716 159.291 16.1634 159.006 15.9048C158.724 15.6463 158.346 15.517 157.872 15.517C157.458 15.517 157.095 15.6264 156.784 15.8452C156.475 16.0606 156.235 16.3688 156.063 16.7699C155.89 17.1676 155.804 17.6383 155.804 18.1818C155.804 18.7386 155.889 19.2192 156.058 19.6236C156.227 20.0279 156.465 20.3411 156.774 20.5632C157.085 20.7853 157.451 20.8963 157.872 20.8963C158.154 20.8963 158.409 20.8449 158.638 20.7422C158.87 20.6361 159.064 20.4853 159.22 20.2898C159.379 20.0942 159.49 19.8589 159.553 19.5838H160.999C160.946 20.0777 160.786 20.5185 160.517 20.9062C160.249 21.294 159.889 21.599 159.438 21.821C158.991 22.0431 158.466 22.1541 157.862 22.1541ZM165.88 22.1541C165.128 22.1541 164.48 21.9934 163.936 21.6719C163.396 21.3471 162.979 20.8913 162.684 20.3047C162.392 19.7147 162.246 19.0237 162.246 18.2315C162.246 17.4493 162.392 16.7599 162.684 16.1634C162.979 15.5668 163.39 15.1011 163.917 14.7663C164.447 14.4316 165.067 14.2642 165.776 14.2642C166.207 14.2642 166.624 14.3355 167.029 14.478C167.433 14.6205 167.796 14.8442 168.118 15.1491C168.439 15.4541 168.693 15.8501 168.878 16.3374C169.064 16.8213 169.157 17.4096 169.157 18.1023V18.6293H163.086V17.5156H167.7C167.7 17.1245 167.62 16.7782 167.461 16.4766C167.302 16.1716 167.078 15.9313 166.79 15.7557C166.505 15.58 166.17 15.4922 165.786 15.4922C165.368 15.4922 165.004 15.5949 164.692 15.8004C164.384 16.0026 164.145 16.2678 163.976 16.5959C163.81 16.9207 163.728 17.2737 163.728 17.6548V18.5249C163.728 19.0353 163.817 19.4695 163.996 19.8274C164.178 20.1854 164.432 20.4588 164.757 20.6477C165.082 20.8333 165.461 20.9261 165.895 20.9261C166.177 20.9261 166.434 20.8864 166.666 20.8068C166.898 20.724 167.098 20.6013 167.267 20.4389C167.436 20.2765 167.566 20.076 167.655 19.8374L169.062 20.0909C168.949 20.5052 168.747 20.8681 168.456 21.1797C168.167 21.4879 167.804 21.7282 167.367 21.9006C166.933 22.0696 166.437 22.1541 165.88 22.1541ZM174.511 22V14.3636H175.998V22H174.511ZM175.262 13.1854C175.003 13.1854 174.781 13.0992 174.596 12.9268C174.413 12.7512 174.322 12.5424 174.322 12.3004C174.322 12.0552 174.413 11.8464 174.596 11.674C174.781 11.4983 175.003 11.4105 175.262 11.4105C175.52 11.4105 175.741 11.4983 175.923 11.674C176.109 11.8464 176.201 12.0552 176.201 12.3004C176.201 12.5424 176.109 12.7512 175.923 12.9268C175.741 13.0992 175.52 13.1854 175.262 13.1854ZM177.997 22V14.3636H179.424V15.6065H179.519C179.678 15.1856 179.938 14.8575 180.299 14.6222C180.66 14.3835 181.093 14.2642 181.597 14.2642C182.107 14.2642 182.535 14.3835 182.879 14.6222C183.227 14.8608 183.484 15.1889 183.65 15.6065H183.73C183.912 15.1989 184.202 14.8741 184.6 14.6321C184.997 14.3868 185.471 14.2642 186.021 14.2642C186.714 14.2642 187.279 14.4813 187.717 14.9155C188.158 15.3497 188.378 16.0043 188.378 16.8793V22H186.892V17.0185C186.892 16.5014 186.751 16.1269 186.469 15.8949C186.187 15.6629 185.851 15.5469 185.46 15.5469C184.976 15.5469 184.6 15.696 184.331 15.9943C184.063 16.2893 183.928 16.6688 183.928 17.1328V22H182.447V16.924C182.447 16.5097 182.318 16.1766 182.059 15.9247C181.801 15.6728 181.464 15.5469 181.05 15.5469C180.768 15.5469 180.508 15.6214 180.269 15.7706C180.034 15.9164 179.843 16.1203 179.698 16.3821C179.555 16.6439 179.484 16.9472 179.484 17.2919V22H177.997ZM192.593 22.169C192.109 22.169 191.671 22.0795 191.28 21.9006C190.889 21.7183 190.579 21.4548 190.35 21.1101C190.125 20.7654 190.012 20.3428 190.012 19.8423C190.012 19.4115 190.095 19.0568 190.261 18.7784C190.427 18.5 190.65 18.2796 190.932 18.1172C191.214 17.9548 191.529 17.8321 191.877 17.7493C192.225 17.6664 192.579 17.6035 192.941 17.5604C193.398 17.5073 193.769 17.4643 194.054 17.4311C194.339 17.3946 194.547 17.3366 194.676 17.2571C194.805 17.1776 194.87 17.0483 194.87 16.8693V16.8345C194.87 16.4003 194.747 16.0639 194.502 15.8253C194.26 15.5866 193.899 15.4673 193.418 15.4673C192.917 15.4673 192.523 15.5784 192.235 15.8004C191.95 16.0192 191.752 16.2628 191.643 16.5312L190.246 16.2131C190.412 15.7491 190.654 15.3745 190.972 15.0895C191.293 14.8011 191.663 14.5923 192.081 14.4631C192.498 14.3305 192.937 14.2642 193.398 14.2642C193.703 14.2642 194.026 14.3007 194.368 14.3736C194.712 14.4432 195.034 14.5724 195.332 14.7614C195.634 14.9503 195.881 15.2204 196.073 15.5717C196.265 15.9197 196.361 16.3722 196.361 16.929V22H194.909V20.956H194.85C194.754 21.1482 194.609 21.3371 194.417 21.5227C194.225 21.7083 193.978 21.8625 193.676 21.9851C193.375 22.1077 193.014 22.169 192.593 22.169ZM192.916 20.9759C193.327 20.9759 193.678 20.8946 193.97 20.7322C194.265 20.5698 194.489 20.3577 194.641 20.0959C194.797 19.8307 194.875 19.5473 194.875 19.2457V18.2614C194.822 18.3144 194.719 18.3641 194.566 18.4105C194.417 18.4536 194.247 18.4917 194.054 18.5249C193.862 18.5547 193.675 18.5829 193.493 18.6094C193.31 18.6326 193.158 18.6525 193.035 18.669C192.747 18.7055 192.483 18.7668 192.245 18.853C192.009 18.9392 191.82 19.0634 191.678 19.2259C191.539 19.3849 191.469 19.5971 191.469 19.8622C191.469 20.2301 191.605 20.5085 191.877 20.6974C192.149 20.883 192.495 20.9759 192.916 20.9759ZM201.543 25.0227C200.936 25.0227 200.414 24.9432 199.977 24.7841C199.543 24.625 199.188 24.4145 198.913 24.1527C198.638 23.8909 198.432 23.6042 198.296 23.2926L199.574 22.7656C199.664 22.9115 199.783 23.0656 199.932 23.228C200.084 23.3937 200.29 23.5346 200.548 23.6506C200.81 23.7666 201.147 23.8246 201.558 23.8246C202.121 23.8246 202.587 23.687 202.955 23.4119C203.323 23.1402 203.507 22.706 203.507 22.1094V20.608H203.412C203.323 20.7704 203.193 20.951 203.024 21.1499C202.859 21.3487 202.63 21.5211 202.338 21.6669C202.047 21.8127 201.667 21.8857 201.2 21.8857C200.597 21.8857 200.053 21.7448 199.569 21.4631C199.088 21.178 198.707 20.7588 198.426 20.2053C198.147 19.6484 198.008 18.964 198.008 18.152C198.008 17.34 198.146 16.6439 198.421 16.0639C198.699 15.4839 199.08 15.0398 199.564 14.7315C200.048 14.42 200.597 14.2642 201.21 14.2642C201.684 14.2642 202.066 14.3438 202.358 14.5028C202.65 14.6586 202.877 14.8409 203.039 15.0497C203.205 15.2585 203.333 15.4425 203.422 15.6016H203.531V14.3636H204.988V22.169C204.988 22.8253 204.836 23.3639 204.531 23.7848C204.226 24.2057 203.813 24.5173 203.293 24.7195C202.776 24.9216 202.192 25.0227 201.543 25.0227ZM201.528 20.6527C201.955 20.6527 202.317 20.5533 202.612 20.3544C202.91 20.1522 203.135 19.8639 203.288 19.4893C203.444 19.1115 203.521 18.6591 203.521 18.1321C203.521 17.6184 203.445 17.166 203.293 16.7749C203.14 16.3838 202.917 16.0788 202.622 15.8601C202.327 15.638 201.962 15.527 201.528 15.527C201.08 15.527 200.708 15.643 200.409 15.875C200.111 16.1037 199.886 16.4152 199.733 16.8097C199.584 17.2041 199.509 17.6449 199.509 18.1321C199.509 18.6326 199.586 19.0717 199.738 19.4496C199.891 19.8274 200.116 20.1224 200.414 20.3345C200.716 20.5466 201.087 20.6527 201.528 20.6527ZM210.273 22.1541C209.521 22.1541 208.873 21.9934 208.329 21.6719C207.789 21.3471 207.371 20.8913 207.076 20.3047C206.785 19.7147 206.639 19.0237 206.639 18.2315C206.639 17.4493 206.785 16.7599 207.076 16.1634C207.371 15.5668 207.782 15.1011 208.309 14.7663C208.839 14.4316 209.459 14.2642 210.169 14.2642C210.599 14.2642 211.017 14.3355 211.421 14.478C211.826 14.6205 212.189 14.8442 212.51 15.1491C212.832 15.4541 213.085 15.8501 213.271 16.3374C213.456 16.8213 213.549 17.4096 213.549 18.1023V18.6293H207.479V17.5156H212.093C212.093 17.1245 212.013 16.7782 211.854 16.4766C211.695 16.1716 211.471 15.9313 211.183 15.7557C210.898 15.58 210.563 15.4922 210.178 15.4922C209.761 15.4922 209.396 15.5949 209.085 15.8004C208.776 16.0026 208.538 16.2678 208.369 16.5959C208.203 16.9207 208.12 17.2737 208.12 17.6548V18.5249C208.12 19.0353 208.21 19.4695 208.389 19.8274C208.571 20.1854 208.825 20.4588 209.149 20.6477C209.474 20.8333 209.854 20.9261 210.288 20.9261C210.57 20.9261 210.826 20.8864 211.058 20.8068C211.29 20.724 211.491 20.6013 211.66 20.4389C211.829 20.2765 211.958 20.076 212.048 19.8374L213.455 20.0909C213.342 20.5052 213.14 20.8681 212.848 21.1797C212.56 21.4879 212.197 21.7282 211.759 21.9006C211.325 22.0696 210.83 22.1541 210.273 22.1541Z" fill="white"/>
<path d="M80.7667 15.1293H79.2156C79.1559 14.7978 79.0449 14.5062 78.8825 14.2543C78.7201 14.0024 78.5212 13.7886 78.2859 13.6129C78.0505 13.4373 77.7871 13.3047 77.4954 13.2152C77.207 13.1257 76.9005 13.081 76.5756 13.081C75.989 13.081 75.4637 13.2285 74.9996 13.5234C74.5389 13.8184 74.1744 14.2509 73.9059 14.821C73.6407 15.3911 73.5082 16.0871 73.5082 16.9091C73.5082 17.7377 73.6407 18.437 73.9059 19.0071C74.1744 19.5772 74.5406 20.008 75.0046 20.2997C75.4686 20.5914 75.9906 20.7372 76.5707 20.7372C76.8922 20.7372 77.1971 20.6941 77.4854 20.608C77.7771 20.5185 78.0406 20.3875 78.2759 20.2152C78.5112 20.0429 78.7101 19.8324 78.8725 19.5838C79.0382 19.3319 79.1526 19.0436 79.2156 18.7188L80.7667 18.7237C80.6838 19.2242 80.5231 19.6849 80.2844 20.1058C80.0491 20.5234 79.7459 20.8847 79.3746 21.1896C79.0067 21.4912 78.5858 21.7249 78.1119 21.8906C77.6379 22.0563 77.1209 22.1392 76.5607 22.1392C75.6791 22.1392 74.8936 21.9304 74.2042 21.5128C73.5148 21.0919 72.9712 20.4903 72.5735 19.7081C72.1791 18.9259 71.9819 17.9929 71.9819 16.9091C71.9819 15.822 72.1808 14.889 72.5785 14.1101C72.9762 13.3279 73.5198 12.728 74.2092 12.3104C74.8986 11.8894 75.6824 11.679 76.5607 11.679C77.101 11.679 77.6048 11.7569 78.0721 11.9126C78.5427 12.0651 78.9653 12.2905 79.3398 12.5888C79.7144 12.8838 80.0243 13.245 80.2695 13.6726C80.5148 14.0968 80.6805 14.5824 80.7667 15.1293ZM86.0502 14.3636V15.5568H81.8791V14.3636H86.0502ZM82.9977 12.5341H84.4842V19.7578C84.4842 20.0462 84.5273 20.2633 84.6135 20.4091C84.6996 20.5516 84.8107 20.6494 84.9466 20.7024C85.0858 20.7521 85.2366 20.777 85.399 20.777C85.5183 20.777 85.6227 20.7687 85.7122 20.7521C85.8017 20.7356 85.8713 20.7223 85.921 20.7124L86.1895 21.9403C86.1033 21.9735 85.9806 22.0066 85.8216 22.0398C85.6625 22.0762 85.4636 22.0961 85.225 22.0994C84.8339 22.1061 84.4693 22.0365 84.1312 21.8906C83.7931 21.7448 83.5197 21.5194 83.3109 21.2145C83.1021 20.9096 82.9977 20.5268 82.9977 20.0661V12.5341ZM87.6946 22V14.3636H89.1314V15.5767H89.2109C89.3501 15.1657 89.5954 14.8426 89.9467 14.6072C90.3014 14.3686 90.7024 14.2493 91.1499 14.2493C91.2427 14.2493 91.352 14.2526 91.478 14.2592C91.6072 14.2659 91.7083 14.2741 91.7812 14.2841V15.706C91.7216 15.6894 91.6155 15.6712 91.4631 15.6513C91.3106 15.6281 91.1581 15.6165 91.0057 15.6165C90.6544 15.6165 90.3411 15.6911 90.0661 15.8402C89.7943 15.986 89.5788 16.1899 89.4197 16.4517C89.2607 16.7102 89.1811 17.0052 89.1811 17.3366V22H87.6946ZM94.5542 11.8182V22H93.0676V11.8182H94.5542Z" fill="#A0A5D0"/>
<defs>
<filter id="filter0_ii_1109_33" x="11" y="9" width="14" height="17" filterUnits="userSpaceOnUse" color-interpolation-filters="sRGB">
<feFlood flood-opacity="0" result="BackgroundImageFix"/>
<feBlend mode="normal" in="SourceGraphic" in2="BackgroundImageFix" result="shape"/>
<feColorMatrix in="SourceAlpha" type="matrix" values="0 0 0 0 0 0 0 0 0 0 0 0 0 0 0 0 0 0 127 0" result="hardAlpha"/>
<feOffset dy="-2"/>
<feGaussianBlur stdDeviation="0.5"/>
<feComposite in2="hardAlpha" operator="arithmetic" k2="-1" k3="1"/>
<feColorMatrix type="matrix" values="0 0 0 0 0 0 0 0 0 0 0 0 0 0 0 0 0 0 0.05 0"/>
<feBlend mode="normal" in2="shape" result="effect1_innerShadow_1109_33"/>
<feColorMatrix in="SourceAlpha" type="matrix" values="0 0 0 0 0 0 0 0 0 0 0 0 0 0 0 0 0 0 127 0" result="hardAlpha"/>
<feOffset dy="2"/>
<feGaussianBlur stdDeviation="1"/>
<feComposite in2="hardAlpha" operator="arithmetic" k2="-1" k3="1"/>
<feColorMatrix type="matrix" values="0 0 0 0 1 0 0 0 0 1 0 0 0 0 1 0 0 0 0.05 0"/>
<feBlend mode="normal" in2="effect1_innerShadow_1109_33" result="effect2_innerShadow_1109_33"/>
</filter>
</defs>
</svg>
