<svg width="79" height="79" viewBox="0 0 79 79" fill="none" xmlns="http://www.w3.org/2000/svg">
<path d="M29.7188 54.5653C29.6733 54.1619 29.4858 53.8494 29.1562 53.6278C28.8267 53.4034 28.4119 53.2912 27.9119 53.2912C27.554 53.2912 27.2443 53.348 26.983 53.4616C26.7216 53.5724 26.5185 53.7259 26.3736 53.9219C26.2315 54.1151 26.1605 54.3352 26.1605 54.5824C26.1605 54.7898 26.2088 54.9687 26.3054 55.1193C26.4048 55.2699 26.5341 55.3963 26.6932 55.4986C26.8551 55.598 27.0284 55.6818 27.2131 55.75C27.3977 55.8153 27.5753 55.8693 27.7457 55.9119L28.598 56.1335C28.8764 56.2017 29.1619 56.294 29.4545 56.4105C29.7472 56.527 30.0185 56.6804 30.2685 56.8707C30.5185 57.0611 30.7202 57.2969 30.8736 57.5781C31.0298 57.8594 31.108 58.196 31.108 58.5881C31.108 59.0824 30.9801 59.5213 30.7244 59.9048C30.4716 60.2884 30.1037 60.5909 29.6207 60.8125C29.1406 61.0341 28.5597 61.1449 27.8778 61.1449C27.2244 61.1449 26.6591 61.0412 26.1818 60.8338C25.7045 60.6264 25.331 60.3324 25.0611 59.9517C24.7912 59.5682 24.642 59.1136 24.6136 58.5881H25.9347C25.9602 58.9034 26.0625 59.1662 26.2415 59.3764C26.4233 59.5838 26.6548 59.7386 26.9361 59.8409C27.2202 59.9403 27.5312 59.9901 27.8693 59.9901C28.2415 59.9901 28.5724 59.9318 28.8622 59.8153C29.1548 59.696 29.3849 59.5312 29.5526 59.321C29.7202 59.108 29.804 58.8594 29.804 58.5753C29.804 58.3168 29.7301 58.1051 29.5824 57.9403C29.4375 57.7756 29.2401 57.6392 28.9901 57.5312C28.7429 57.4233 28.4631 57.3281 28.1506 57.2457L27.1193 56.9645C26.4205 56.7741 25.8665 56.4943 25.4574 56.125C25.0511 55.7557 24.848 55.267 24.848 54.6591C24.848 54.1562 24.9844 53.7173 25.2571 53.3423C25.5298 52.9673 25.8991 52.6761 26.3651 52.4688C26.831 52.2585 27.3565 52.1534 27.9418 52.1534C28.5327 52.1534 29.054 52.2571 29.5057 52.4645C29.9602 52.6719 30.3182 52.9574 30.5795 53.321C30.8409 53.6818 30.9773 54.0966 30.9886 54.5653H29.7188ZM35.3363 61.1321C34.7028 61.1321 34.1573 60.9886 33.6999 60.7017C33.2454 60.4119 32.896 60.0128 32.6516 59.5043C32.4073 58.9957 32.2852 58.4134 32.2852 57.7571C32.2852 57.0923 32.4102 56.5057 32.6602 55.9972C32.9102 55.4858 33.2624 55.0866 33.717 54.7997C34.1715 54.5128 34.707 54.3693 35.3235 54.3693C35.8207 54.3693 36.2638 54.4616 36.6531 54.6463C37.0423 54.8281 37.3562 55.0838 37.5948 55.4134C37.8363 55.7429 37.9798 56.1278 38.0252 56.5682H36.7852C36.717 56.2614 36.5607 55.9972 36.3164 55.7756C36.0749 55.554 35.7511 55.4432 35.3448 55.4432C34.9897 55.4432 34.6786 55.5369 34.4116 55.7244C34.1474 55.9091 33.9414 56.1733 33.7937 56.517C33.646 56.858 33.5721 57.2614 33.5721 57.7273C33.5721 58.2045 33.6445 58.6165 33.7894 58.9631C33.9343 59.3097 34.1388 59.5781 34.4031 59.7685C34.6701 59.9588 34.984 60.054 35.3448 60.054C35.5863 60.054 35.805 60.0099 36.0011 59.9219C36.1999 59.831 36.3661 59.7017 36.4996 59.5341C36.636 59.3665 36.7312 59.1648 36.7852 58.929H38.0252C37.9798 59.3523 37.842 59.7301 37.6119 60.0625C37.3817 60.3949 37.0735 60.6562 36.6871 60.8466C36.3036 61.0369 35.8533 61.1321 35.3363 61.1321ZM41.2926 61.1449C40.8778 61.1449 40.5028 61.0682 40.1676 60.9148C39.8324 60.7585 39.5668 60.5327 39.3707 60.2372C39.1776 59.9418 39.081 59.5795 39.081 59.1506C39.081 58.7812 39.152 58.4773 39.294 58.2386C39.4361 58 39.6278 57.8111 39.8693 57.6719C40.1108 57.5327 40.3807 57.4276 40.679 57.3565C40.9773 57.2855 41.2813 57.2315 41.5909 57.1946C41.983 57.1491 42.3011 57.1122 42.5455 57.0838C42.7898 57.0526 42.9673 57.0028 43.0781 56.9347C43.1889 56.8665 43.2443 56.7557 43.2443 56.6023V56.5724C43.2443 56.2003 43.1392 55.9119 42.929 55.7074C42.7216 55.5028 42.4119 55.4006 42 55.4006C41.571 55.4006 41.233 55.4957 40.9858 55.6861C40.7415 55.8736 40.5724 56.0824 40.4787 56.3125L39.2812 56.0398C39.4233 55.642 39.6307 55.321 39.9034 55.0767C40.179 54.8295 40.4957 54.6506 40.8537 54.5398C41.2116 54.4261 41.5881 54.3693 41.983 54.3693C42.2443 54.3693 42.5213 54.4006 42.8139 54.4631C43.1094 54.5227 43.3849 54.6335 43.6406 54.7955C43.8991 54.9574 44.1108 55.1889 44.2756 55.4901C44.4403 55.7884 44.5227 56.1761 44.5227 56.6534V61H43.2784V60.1051H43.2273C43.1449 60.2699 43.0213 60.4318 42.8565 60.5909C42.6918 60.75 42.4801 60.8821 42.2216 60.9872C41.9631 61.0923 41.6534 61.1449 41.2926 61.1449ZM41.5696 60.1222C41.9219 60.1222 42.223 60.0526 42.473 59.9134C42.7259 59.7741 42.9176 59.5923 43.0483 59.3679C43.1818 59.1406 43.2486 58.8977 43.2486 58.6392V57.7955C43.2031 57.8409 43.1151 57.8835 42.9844 57.9233C42.8565 57.9602 42.7102 57.9929 42.5455 58.0213C42.3807 58.0469 42.2202 58.071 42.0639 58.0938C41.9077 58.1136 41.777 58.1307 41.6719 58.1449C41.4247 58.1761 41.1989 58.2287 40.9943 58.3026C40.7926 58.3764 40.6307 58.483 40.5085 58.6222C40.3892 58.7585 40.3295 58.9403 40.3295 59.1676C40.3295 59.483 40.446 59.7216 40.679 59.8835C40.9119 60.0426 41.2088 60.1222 41.5696 60.1222ZM47.494 52.2727V61H46.2198V52.2727H47.494ZM52.0291 61.1321C51.3842 61.1321 50.8288 60.9943 50.3629 60.7188C49.8999 60.4403 49.5419 60.0497 49.2891 59.5469C49.0391 59.0412 48.9141 58.4489 48.9141 57.7699C48.9141 57.0994 49.0391 56.5085 49.2891 55.9972C49.5419 55.4858 49.8942 55.0866 50.3459 54.7997C50.8004 54.5128 51.3317 54.3693 51.9396 54.3693C52.3089 54.3693 52.6669 54.4304 53.0135 54.5526C53.3601 54.6747 53.6712 54.8665 53.9467 55.1278C54.2223 55.3892 54.4396 55.7287 54.5987 56.1463C54.7578 56.5611 54.8374 57.0653 54.8374 57.6591V58.1108H49.6342V57.1562H53.5888C53.5888 56.821 53.5206 56.5241 53.3842 56.2656C53.2479 56.0043 53.0561 55.7983 52.8089 55.6477C52.5646 55.4972 52.2777 55.4219 51.9482 55.4219C51.5902 55.4219 51.2777 55.5099 51.0107 55.6861C50.7464 55.8594 50.5419 56.0866 50.397 56.3679C50.255 56.6463 50.1839 56.9489 50.1839 57.2756V58.0213C50.1839 58.4588 50.2607 58.831 50.4141 59.1378C50.5703 59.4446 50.7876 59.679 51.0661 59.8409C51.3445 60 51.6697 60.0795 52.0419 60.0795C52.2834 60.0795 52.5036 60.0455 52.7024 59.9773C52.9013 59.9062 53.0732 59.8011 53.218 59.6619C53.3629 59.5227 53.4737 59.3509 53.5504 59.1463L54.7564 59.3636C54.6598 59.7187 54.4865 60.0298 54.2365 60.2969C53.9893 60.5611 53.6783 60.767 53.3033 60.9148C52.9311 61.0597 52.5064 61.1321 52.0291 61.1321Z" fill="#A2A7D1"/>
<path d="M23.6719 36H19.5156L24.9141 20H30.0625L35.4609 36H31.3047L27.5469 24.0312H27.4219L23.6719 36ZM23.1172 29.7031H31.8047V32.6406H23.1172V29.7031ZM37.0735 36V21.4545H43.1388C44.2279 21.4545 45.1393 21.6084 45.8732 21.9162C46.6119 22.224 47.1658 22.6548 47.5352 23.2088C47.9092 23.7628 48.0962 24.4044 48.0962 25.1335C48.0962 25.6875 47.9802 26.1823 47.7482 26.6179C47.5162 27.0488 47.1966 27.4062 46.7894 27.6903C46.3822 27.9744 45.9111 28.1733 45.3761 28.2869V28.429C45.9632 28.4574 46.5053 28.616 47.0025 28.9048C47.5044 29.1937 47.9068 29.5961 48.2099 30.1122C48.5129 30.6236 48.6644 31.2296 48.6644 31.9304C48.6644 32.7116 48.4656 33.41 48.0678 34.0256C47.6701 34.6364 47.0948 35.1193 46.342 35.4744C45.5891 35.8248 44.6753 36 43.6005 36H37.0735ZM40.5891 33.1662H42.7624C43.5247 33.1662 44.0858 33.0218 44.4457 32.733C44.8103 32.4441 44.9925 32.0417 44.9925 31.5256C44.9925 31.1515 44.9049 30.8295 44.7298 30.5597C44.5546 30.285 44.306 30.0743 43.984 29.9276C43.6621 29.776 43.2762 29.7003 42.8263 29.7003H40.5891V33.1662ZM40.5891 27.4347H42.5352C42.9187 27.4347 43.2596 27.3707 43.5579 27.2429C43.8562 27.1151 44.0882 26.9304 44.2539 26.6889C44.4244 26.4474 44.5096 26.1562 44.5096 25.8153C44.5096 25.3277 44.3368 24.9441 43.9911 24.6648C43.6455 24.3854 43.1791 24.2457 42.592 24.2457H40.5891V27.4347Z" fill="#165FCD"/>
<path d="M59.2667 29.5071H56.7809C56.7478 29.2519 56.6798 29.0215 56.5771 28.8161C56.4743 28.6106 56.3384 28.4349 56.1694 28.2891C56.0004 28.1432 55.7998 28.0322 55.5678 27.956C55.3391 27.8764 55.0856 27.8366 54.8072 27.8366C54.3133 27.8366 53.8874 27.9576 53.5295 28.1996C53.1748 28.4415 52.9014 28.7912 52.7092 29.2486C52.5202 29.706 52.4258 30.2595 52.4258 30.9091C52.4258 31.5852 52.5219 32.152 52.7141 32.6094C52.9097 33.0634 53.1831 33.4065 53.5344 33.6385C53.8891 33.8672 54.3084 33.9815 54.7923 33.9815C55.064 33.9815 55.311 33.9467 55.533 33.8771C55.7584 33.8075 55.9556 33.7064 56.1246 33.5739C56.297 33.438 56.4379 33.2739 56.5472 33.0817C56.6599 32.8861 56.7378 32.6657 56.7809 32.4205L59.2667 32.4354C59.2236 32.8861 59.0927 33.3303 58.8739 33.7678C58.6585 34.2053 58.3619 34.6046 57.984 34.9659C57.6062 35.3239 57.1455 35.6089 56.6019 35.821C56.0617 36.0331 55.4419 36.1392 54.7425 36.1392C53.8211 36.1392 52.9959 35.937 52.2667 35.5327C51.5408 35.125 50.9674 34.5317 50.5465 33.7528C50.1256 32.974 49.9151 32.026 49.9151 30.9091C49.9151 29.7888 50.1289 28.8393 50.5565 28.0604C50.984 27.2815 51.5624 26.6899 52.2915 26.2855C53.0207 25.8812 53.8377 25.679 54.7425 25.679C55.359 25.679 55.9291 25.7652 56.4528 25.9375C56.9764 26.1065 57.4371 26.3551 57.8349 26.6832C58.2326 27.008 58.5558 27.4074 58.8043 27.8814C59.0529 28.3554 59.207 28.8973 59.2667 29.5071Z" fill="#165FCD" fill-opacity="0.5"/>
</svg>
