<svg width="79" height="79" viewBox="0 0 79 79" fill="none" xmlns="http://www.w3.org/2000/svg">
<path d="M26.7188 58.5653C26.6733 58.1619 26.4858 57.8494 26.1562 57.6278C25.8267 57.4034 25.4119 57.2912 24.9119 57.2912C24.554 57.2912 24.2443 57.348 23.983 57.4616C23.7216 57.5724 23.5185 57.7259 23.3736 57.9219C23.2315 58.1151 23.1605 58.3352 23.1605 58.5824C23.1605 58.7898 23.2088 58.9687 23.3054 59.1193C23.4048 59.2699 23.5341 59.3963 23.6932 59.4986C23.8551 59.598 24.0284 59.6818 24.2131 59.75C24.3977 59.8153 24.5753 59.8693 24.7457 59.9119L25.598 60.1335C25.8764 60.2017 26.1619 60.294 26.4545 60.4105C26.7472 60.527 27.0185 60.6804 27.2685 60.8707C27.5185 61.0611 27.7202 61.2969 27.8736 61.5781C28.0298 61.8594 28.108 62.196 28.108 62.5881C28.108 63.0824 27.9801 63.5213 27.7244 63.9048C27.4716 64.2884 27.1037 64.5909 26.6207 64.8125C26.1406 65.0341 25.5597 65.1449 24.8778 65.1449C24.2244 65.1449 23.6591 65.0412 23.1818 64.8338C22.7045 64.6264 22.331 64.3324 22.0611 63.9517C21.7912 63.5682 21.642 63.1136 21.6136 62.5881H22.9347C22.9602 62.9034 23.0625 63.1662 23.2415 63.3764C23.4233 63.5838 23.6548 63.7386 23.9361 63.8409C24.2202 63.9403 24.5312 63.9901 24.8693 63.9901C25.2415 63.9901 25.5724 63.9318 25.8622 63.8153C26.1548 63.696 26.3849 63.5312 26.5526 63.321C26.7202 63.108 26.804 62.8594 26.804 62.5753C26.804 62.3168 26.7301 62.1051 26.5824 61.9403C26.4375 61.7756 26.2401 61.6392 25.9901 61.5312C25.7429 61.4233 25.4631 61.3281 25.1506 61.2457L24.1193 60.9645C23.4205 60.7741 22.8665 60.4943 22.4574 60.125C22.0511 59.7557 21.848 59.267 21.848 58.6591C21.848 58.1562 21.9844 57.7173 22.2571 57.3423C22.5298 56.9673 22.8991 56.6761 23.3651 56.4688C23.831 56.2585 24.3565 56.1534 24.9418 56.1534C25.5327 56.1534 26.054 56.2571 26.5057 56.4645C26.9602 56.6719 27.3182 56.9574 27.5795 57.321C27.8409 57.6818 27.9773 58.0966 27.9886 58.5653H26.7188ZM30.8533 61.1136V65H29.5792V56.2727H30.8363V59.5199H30.9173C31.0707 59.1676 31.305 58.8878 31.6204 58.6804C31.9357 58.473 32.3477 58.3693 32.8562 58.3693C33.305 58.3693 33.6971 58.4616 34.0323 58.6463C34.3704 58.831 34.6317 59.1065 34.8164 59.473C35.0039 59.8366 35.0977 60.2912 35.0977 60.8366V65H33.8235V60.9901C33.8235 60.5099 33.6999 60.1378 33.4528 59.8736C33.2056 59.6065 32.8619 59.473 32.4215 59.473C32.1204 59.473 31.8505 59.5369 31.6119 59.6648C31.3761 59.7926 31.19 59.9801 31.0536 60.2273C30.9201 60.4716 30.8533 60.767 30.8533 61.1136ZM36.7979 65V58.4545H38.0295V59.4943H38.0977C38.217 59.142 38.4272 58.8651 38.7283 58.6634C39.0323 58.4588 39.3761 58.3565 39.7596 58.3565C39.8391 58.3565 39.9329 58.3594 40.0408 58.3651C40.1516 58.3707 40.2383 58.3778 40.3008 58.3864V59.6051C40.2496 59.5909 40.1587 59.5753 40.0281 59.5582C39.8974 59.5384 39.7667 59.5284 39.636 59.5284C39.3349 59.5284 39.0664 59.5923 38.8306 59.7202C38.5977 59.8452 38.413 60.0199 38.2766 60.2443C38.1403 60.4659 38.0721 60.7187 38.0721 61.0028V65H36.7979ZM41.4034 65V58.4545H42.6776V65H41.4034ZM42.0469 57.4446C41.8253 57.4446 41.6349 57.3707 41.4759 57.223C41.3196 57.0724 41.2415 56.8935 41.2415 56.6861C41.2415 56.4759 41.3196 56.2969 41.4759 56.1491C41.6349 55.9986 41.8253 55.9233 42.0469 55.9233C42.2685 55.9233 42.4574 55.9986 42.6136 56.1491C42.7727 56.2969 42.8523 56.4759 42.8523 56.6861C42.8523 56.8935 42.7727 57.0724 42.6136 57.223C42.4574 57.3707 42.2685 57.4446 42.0469 57.4446ZM45.6658 61.1136V65H44.3917V58.4545H45.6147V59.5199H45.6957C45.8462 59.1733 46.082 58.8949 46.4031 58.6847C46.7269 58.4744 47.1346 58.3693 47.6261 58.3693C48.0721 58.3693 48.4627 58.4631 48.7979 58.6506C49.1332 58.8352 49.3931 59.1108 49.5778 59.4773C49.7624 59.8437 49.8548 60.2969 49.8548 60.8366V65H48.5806V60.9901C48.5806 60.5156 48.457 60.1449 48.2099 59.8778C47.9627 59.608 47.6232 59.473 47.1914 59.473C46.896 59.473 46.6332 59.5369 46.4031 59.6648C46.1758 59.7926 45.9954 59.9801 45.8619 60.2273C45.7312 60.4716 45.6658 60.767 45.6658 61.1136ZM52.7354 62.7798L52.7269 61.2244H52.9485L55.5565 58.4545H57.082L54.1076 61.608H53.9073L52.7354 62.7798ZM51.5636 65V56.2727H52.8377V65H51.5636ZM55.6971 65L53.3533 61.8892L54.2312 60.9986L57.261 65H55.6971Z" fill="#A2A7D1"/>
<path d="M17.6719 40H13.5156L18.9141 24H24.0625L29.4609 40H25.3047L21.5469 28.0312H21.4219L17.6719 40ZM17.1172 33.7031H25.8047V36.6406H17.1172V33.7031ZM31.0735 40V25.4545H37.1388C38.2279 25.4545 39.1393 25.6084 39.8732 25.9162C40.6119 26.224 41.1658 26.6548 41.5352 27.2088C41.9092 27.7628 42.0962 28.4044 42.0962 29.1335C42.0962 29.6875 41.9802 30.1823 41.7482 30.6179C41.5162 31.0488 41.1966 31.4062 40.7894 31.6903C40.3822 31.9744 39.9111 32.1733 39.3761 32.2869V32.429C39.9632 32.4574 40.5053 32.616 41.0025 32.9048C41.5044 33.1937 41.9068 33.5961 42.2099 34.1122C42.5129 34.6236 42.6644 35.2296 42.6644 35.9304C42.6644 36.7116 42.4656 37.41 42.0678 38.0256C41.6701 38.6364 41.0948 39.1193 40.342 39.4744C39.5891 39.8248 38.6753 40 37.6005 40H31.0735ZM34.5891 37.1662H36.7624C37.5247 37.1662 38.0858 37.0218 38.4457 36.733C38.8103 36.4441 38.9925 36.0417 38.9925 35.5256C38.9925 35.1515 38.9049 34.8295 38.7298 34.5597C38.5546 34.285 38.306 34.0743 37.984 33.9276C37.6621 33.776 37.2762 33.7003 36.8263 33.7003H34.5891V37.1662ZM34.5891 31.4347H36.5352C36.9187 31.4347 37.2596 31.3707 37.5579 31.2429C37.8562 31.1151 38.0882 30.9304 38.2539 30.6889C38.4244 30.4474 38.5096 30.1562 38.5096 29.8153C38.5096 29.3277 38.3368 28.9441 37.9911 28.6648C37.6455 28.3854 37.1791 28.2457 36.592 28.2457H34.5891V31.4347Z" fill="#165FCD"/>
<path d="M64.7099 26.0866H59.3832C59.3121 25.5398 59.1665 25.0462 58.9464 24.6058C58.7262 24.1655 58.435 23.7891 58.0728 23.4766C57.7106 23.1641 57.2809 22.9261 56.7837 22.7628C56.2937 22.5923 55.7504 22.5071 55.1538 22.5071C54.0955 22.5071 53.1829 22.7663 52.4158 23.2848C51.6559 23.8033 51.07 24.5526 50.658 25.5327C50.2532 26.5128 50.0508 27.6989 50.0508 29.0909C50.0508 30.5398 50.2567 31.7543 50.6687 32.7344C51.0877 33.7074 51.6737 34.4425 52.4265 34.9396C53.1864 35.4297 54.0849 35.6747 55.1218 35.6747C55.7042 35.6747 56.2333 35.6001 56.7092 35.451C57.1921 35.3018 57.6147 35.0852 57.9769 34.8011C58.3462 34.5099 58.6481 34.1584 58.8825 33.7464C59.1239 33.3274 59.2908 32.8551 59.3832 32.3295L64.7099 32.3615C64.6175 33.3274 64.337 34.2791 63.8683 35.2166C63.4066 36.1541 62.771 37.0099 61.9613 37.7841C61.1516 38.5511 60.1644 39.1619 58.9996 39.6165C57.842 40.071 56.5138 40.2983 55.0153 40.2983C53.0408 40.2983 51.2724 39.8651 49.7099 38.9986C48.1545 38.125 46.9258 36.8537 46.0238 35.1847C45.1218 33.5156 44.6708 31.4844 44.6708 29.0909C44.6708 26.6903 45.1289 24.6555 46.0451 22.9865C46.9613 21.3175 48.2006 20.0497 49.7631 19.1832C51.3256 18.3168 53.0763 17.8835 55.0153 17.8835C56.3363 17.8835 57.5579 18.0682 58.68 18.4375C59.8022 18.7997 60.7894 19.3324 61.6417 20.0355C62.494 20.7315 63.1864 21.5874 63.7191 22.603C64.2518 23.6186 64.582 24.7798 64.7099 26.0866Z" fill="#165FCD" fill-opacity="0.5"/>
</svg>
