<svg width="79" height="79" viewBox="0 0 79 79" fill="none" xmlns="http://www.w3.org/2000/svg">
<path d="M15.7188 54.5653C15.6733 54.1619 15.4858 53.8494 15.1562 53.6278C14.8267 53.4034 14.4119 53.2912 13.9119 53.2912C13.554 53.2912 13.2443 53.348 12.983 53.4616C12.7216 53.5724 12.5185 53.7259 12.3736 53.9219C12.2315 54.1151 12.1605 54.3352 12.1605 54.5824C12.1605 54.7898 12.2088 54.9687 12.3054 55.1193C12.4048 55.2699 12.5341 55.3963 12.6932 55.4986C12.8551 55.598 13.0284 55.6818 13.2131 55.75C13.3977 55.8153 13.5753 55.8693 13.7457 55.9119L14.598 56.1335C14.8764 56.2017 15.1619 56.294 15.4545 56.4105C15.7472 56.527 16.0185 56.6804 16.2685 56.8707C16.5185 57.0611 16.7202 57.2969 16.8736 57.5781C17.0298 57.8594 17.108 58.196 17.108 58.5881C17.108 59.0824 16.9801 59.5213 16.7244 59.9048C16.4716 60.2884 16.1037 60.5909 15.6207 60.8125C15.1406 61.0341 14.5597 61.1449 13.8778 61.1449C13.2244 61.1449 12.6591 61.0412 12.1818 60.8338C11.7045 60.6264 11.331 60.3324 11.0611 59.9517C10.7912 59.5682 10.642 59.1136 10.6136 58.5881H11.9347C11.9602 58.9034 12.0625 59.1662 12.2415 59.3764C12.4233 59.5838 12.6548 59.7386 12.9361 59.8409C13.2202 59.9403 13.5312 59.9901 13.8693 59.9901C14.2415 59.9901 14.5724 59.9318 14.8622 59.8153C15.1548 59.696 15.3849 59.5312 15.5526 59.321C15.7202 59.108 15.804 58.8594 15.804 58.5753C15.804 58.3168 15.7301 58.1051 15.5824 57.9403C15.4375 57.7756 15.2401 57.6392 14.9901 57.5312C14.7429 57.4233 14.4631 57.3281 14.1506 57.2457L13.1193 56.9645C12.4205 56.7741 11.8665 56.4943 11.4574 56.125C11.0511 55.7557 10.848 55.267 10.848 54.6591C10.848 54.1562 10.9844 53.7173 11.2571 53.3423C11.5298 52.9673 11.8991 52.6761 12.3651 52.4688C12.831 52.2585 13.3565 52.1534 13.9418 52.1534C14.5327 52.1534 15.054 52.2571 15.5057 52.4645C15.9602 52.6719 16.3182 52.9574 16.5795 53.321C16.8409 53.6818 16.9773 54.0966 16.9886 54.5653H15.7188ZM19.8533 52.2727V61H18.5792V52.2727H19.8533ZM21.5675 61V54.4545H22.8416V61H21.5675ZM22.2109 53.4446C21.9893 53.4446 21.799 53.3707 21.6399 53.223C21.4837 53.0724 21.4055 52.8935 21.4055 52.6861C21.4055 52.4759 21.4837 52.2969 21.6399 52.1491C21.799 51.9986 21.9893 51.9233 22.2109 51.9233C22.4325 51.9233 22.6214 51.9986 22.7777 52.1491C22.9368 52.2969 23.0163 52.4759 23.0163 52.6861C23.0163 52.8935 22.9368 53.0724 22.7777 53.223C22.6214 53.3707 22.4325 53.4446 22.2109 53.4446ZM27.006 61.1278C26.4776 61.1278 26.006 60.9929 25.5913 60.723C25.1793 60.4503 24.8555 60.0625 24.6197 59.5597C24.3867 59.054 24.2702 58.4474 24.2702 57.7401C24.2702 57.0327 24.3881 56.4276 24.6239 55.9247C24.8626 55.4219 25.1893 55.0369 25.604 54.7699C26.0188 54.5028 26.489 54.3693 27.0146 54.3693C27.4208 54.3693 27.7475 54.4375 27.9947 54.5739C28.2447 54.7074 28.4379 54.8636 28.5742 55.0426C28.7134 55.2216 28.8214 55.3793 28.8981 55.5156H28.9748V52.2727H30.2489V61H29.0046V59.9815H28.8981C28.8214 60.1207 28.7106 60.2798 28.5657 60.4588C28.4237 60.6378 28.2276 60.794 27.9776 60.9276C27.7276 61.0611 27.4038 61.1278 27.006 61.1278ZM27.2873 60.0412C27.6538 60.0412 27.9634 59.9446 28.2163 59.7514C28.4719 59.5554 28.6651 59.2841 28.7958 58.9375C28.9293 58.5909 28.9961 58.1875 28.9961 57.7273C28.9961 57.2727 28.9308 56.875 28.8001 56.5341C28.6694 56.1932 28.4776 55.9276 28.2248 55.7372C27.9719 55.5469 27.6594 55.4517 27.2873 55.4517C26.9038 55.4517 26.5842 55.5511 26.3285 55.75C26.0728 55.9489 25.8796 56.2202 25.7489 56.5639C25.6211 56.9077 25.5572 57.2955 25.5572 57.7273C25.5572 58.1648 25.6225 58.5582 25.7532 58.9077C25.8839 59.2571 26.0771 59.5341 26.3327 59.7386C26.5913 59.9403 26.9094 60.0412 27.2873 60.0412ZM34.8885 61.1321C34.2436 61.1321 33.6882 60.9943 33.2223 60.7188C32.7592 60.4403 32.4013 60.0497 32.1484 59.5469C31.8984 59.0412 31.7734 58.4489 31.7734 57.7699C31.7734 57.0994 31.8984 56.5085 32.1484 55.9972C32.4013 55.4858 32.7536 55.0866 33.2053 54.7997C33.6598 54.5128 34.1911 54.3693 34.799 54.3693C35.1683 54.3693 35.5263 54.4304 35.8729 54.5526C36.2195 54.6747 36.5305 54.8665 36.8061 55.1278C37.0817 55.3892 37.299 55.7287 37.4581 56.1463C37.6172 56.5611 37.6967 57.0653 37.6967 57.6591V58.1108H32.4936V57.1562H36.4482C36.4482 56.821 36.38 56.5241 36.2436 56.2656C36.1072 56.0043 35.9155 55.7983 35.6683 55.6477C35.424 55.4972 35.1371 55.4219 34.8075 55.4219C34.4496 55.4219 34.1371 55.5099 33.87 55.6861C33.6058 55.8594 33.4013 56.0866 33.2564 56.3679C33.1143 56.6463 33.0433 56.9489 33.0433 57.2756V58.0213C33.0433 58.4588 33.12 58.831 33.2734 59.1378C33.4297 59.4446 33.647 59.679 33.9254 59.8409C34.2038 60 34.5291 60.0795 34.9013 60.0795C35.1428 60.0795 35.3629 60.0455 35.5618 59.9773C35.7607 59.9062 35.9325 59.8011 36.0774 59.6619C36.2223 59.5227 36.3331 59.3509 36.4098 59.1463L37.6158 59.3636C37.5192 59.7187 37.3459 60.0298 37.0959 60.2969C36.8487 60.5611 36.5376 60.767 36.1626 60.9148C35.7905 61.0597 35.3658 61.1321 34.8885 61.1321ZM42.2862 61V54.4545H43.5178V55.4943H43.5859C43.7053 55.142 43.9155 54.8651 44.2166 54.6634C44.5206 54.4588 44.8643 54.3565 45.2479 54.3565C45.3274 54.3565 45.4212 54.3594 45.5291 54.3651C45.6399 54.3707 45.7266 54.3778 45.7891 54.3864V55.6051C45.7379 55.5909 45.647 55.5753 45.5163 55.5582C45.3857 55.5384 45.255 55.5284 45.1243 55.5284C44.8232 55.5284 44.5547 55.5923 44.3189 55.7202C44.0859 55.8452 43.9013 56.0199 43.7649 56.2443C43.6286 56.4659 43.5604 56.7187 43.5604 57.0028V61H42.2862ZM46.8917 61V54.4545H48.1658V61H46.8917ZM47.5352 53.4446C47.3136 53.4446 47.1232 53.3707 46.9641 53.223C46.8079 53.0724 46.7298 52.8935 46.7298 52.6861C46.7298 52.4759 46.8079 52.2969 46.9641 52.1491C47.1232 51.9986 47.3136 51.9233 47.5352 51.9233C47.7567 51.9233 47.9457 51.9986 48.1019 52.1491C48.261 52.2969 48.3406 52.4759 48.3406 52.6861C48.3406 52.8935 48.261 53.0724 48.1019 53.223C47.9457 53.3707 47.7567 53.4446 47.5352 53.4446ZM52.6243 63.5909C52.1044 63.5909 51.657 63.5227 51.282 63.3864C50.9098 63.25 50.6058 63.0696 50.37 62.8452C50.1342 62.6207 49.9581 62.375 49.8416 62.108L50.9368 61.6562C51.0135 61.7812 51.1158 61.9134 51.2436 62.0526C51.3743 62.1946 51.5504 62.3153 51.772 62.4148C51.9964 62.5142 52.2848 62.5639 52.6371 62.5639C53.12 62.5639 53.5192 62.446 53.8345 62.2102C54.1499 61.9773 54.3075 61.6051 54.3075 61.0938V59.8068H54.2266C54.1499 59.946 54.0391 60.1009 53.8942 60.2713C53.7521 60.4418 53.5561 60.5895 53.3061 60.7145C53.0561 60.8395 52.7308 60.902 52.3303 60.902C51.8132 60.902 51.3473 60.7812 50.9325 60.5398C50.5206 60.2955 50.1939 59.9361 49.9524 59.4616C49.7138 58.9844 49.5945 58.3977 49.5945 57.7017C49.5945 57.0057 49.7124 56.4091 49.9482 55.9119C50.1868 55.4148 50.5135 55.0341 50.9283 54.7699C51.343 54.5028 51.8132 54.3693 52.3388 54.3693C52.745 54.3693 53.0732 54.4375 53.3232 54.5739C53.5732 54.7074 53.7678 54.8636 53.907 55.0426C54.049 55.2216 54.1584 55.3793 54.2351 55.5156H54.3288V54.4545H55.5774V61.1449C55.5774 61.7074 55.4467 62.169 55.1854 62.5298C54.924 62.8906 54.5703 63.1577 54.1243 63.331C53.6811 63.5043 53.1811 63.5909 52.6243 63.5909ZM52.6115 59.8452C52.978 59.8452 53.2876 59.7599 53.5405 59.5895C53.7962 59.4162 53.9893 59.169 54.12 58.848C54.2536 58.5241 54.3203 58.1364 54.3203 57.6847C54.3203 57.2443 54.255 56.8565 54.1243 56.5213C53.9936 56.1861 53.8018 55.9247 53.549 55.7372C53.2962 55.5469 52.9837 55.4517 52.6115 55.4517C52.228 55.4517 51.9084 55.5511 51.6527 55.75C51.397 55.946 51.2038 56.2131 51.0732 56.5511C50.9453 56.8892 50.8814 57.267 50.8814 57.6847C50.8814 58.1136 50.9467 58.4901 51.0774 58.8139C51.2081 59.1378 51.4013 59.3906 51.657 59.5724C51.9155 59.7543 52.2337 59.8452 52.6115 59.8452ZM58.5604 57.1136V61H57.2862V52.2727H58.5433V55.5199H58.6243C58.7777 55.1676 59.0121 54.8878 59.3274 54.6804C59.6428 54.473 60.0547 54.3693 60.5632 54.3693C61.0121 54.3693 61.4041 54.4616 61.7393 54.6463C62.0774 54.831 62.3388 55.1065 62.5234 55.473C62.7109 55.8366 62.8047 56.2912 62.8047 56.8366V61H61.5305V56.9901C61.5305 56.5099 61.407 56.1378 61.1598 55.8736C60.9126 55.6065 60.5689 55.473 60.1286 55.473C59.8274 55.473 59.5575 55.5369 59.3189 55.6648C59.0831 55.7926 58.897 55.9801 58.7607 56.2273C58.6271 56.4716 58.5604 56.767 58.5604 57.1136ZM67.5604 54.4545V55.4773H63.9851V54.4545H67.5604ZM64.9439 52.8864H66.218V59.0781C66.218 59.3253 66.255 59.5114 66.3288 59.6364C66.4027 59.7585 66.4979 59.8423 66.6143 59.8878C66.7337 59.9304 66.8629 59.9517 67.0021 59.9517C67.1044 59.9517 67.1939 59.9446 67.2706 59.9304C67.3473 59.9162 67.407 59.9048 67.4496 59.8963L67.6797 60.9489C67.6058 60.9773 67.5007 61.0057 67.3643 61.0341C67.228 61.0653 67.0575 61.0824 66.853 61.0852C66.5178 61.0909 66.2053 61.0312 65.9155 60.9062C65.6257 60.7812 65.3913 60.5881 65.2124 60.3267C65.0334 60.0653 64.9439 59.7372 64.9439 59.3423V52.8864Z" fill="#A2A7D1"/>
<path d="M16.6719 36H12.5156L17.9141 20H23.0625L28.4609 36H24.3047L20.5469 24.0312H20.4219L16.6719 36ZM16.1172 29.7031H24.8047V32.6406H16.1172V29.7031ZM30.1836 36V20H36.8555C38.0534 20 39.056 20.1693 39.8633 20.5078C40.6758 20.8464 41.2852 21.3203 41.6914 21.9297C42.1029 22.5391 42.3086 23.2448 42.3086 24.0469C42.3086 24.6562 42.181 25.2005 41.9258 25.6797C41.6706 26.1536 41.319 26.5469 40.8711 26.8594C40.4232 27.1719 39.9049 27.3906 39.3164 27.5156V27.6719C39.9622 27.7031 40.5586 27.8776 41.1055 28.1953C41.6576 28.513 42.1003 28.9557 42.4336 29.5234C42.7669 30.0859 42.9336 30.7526 42.9336 31.5234C42.9336 32.3828 42.7148 33.151 42.2773 33.8281C41.8398 34.5 41.207 35.0312 40.3789 35.4219C39.5508 35.8073 38.5456 36 37.3633 36H30.1836ZM34.0508 32.8828H36.4414C37.2799 32.8828 37.8971 32.724 38.293 32.4062C38.694 32.0885 38.8945 31.6458 38.8945 31.0781C38.8945 30.6667 38.7982 30.3125 38.6055 30.0156C38.4128 29.7135 38.1393 29.4818 37.7852 29.3203C37.431 29.1536 37.0065 29.0703 36.5117 29.0703H34.0508V32.8828ZM34.0508 26.5781H36.1914C36.6133 26.5781 36.9883 26.5078 37.3164 26.3672C37.6445 26.2266 37.8997 26.0234 38.082 25.7578C38.2695 25.4922 38.3633 25.1719 38.3633 24.7969C38.3633 24.2604 38.1732 23.8385 37.793 23.5312C37.4128 23.224 36.8997 23.0703 36.2539 23.0703H34.0508V26.5781Z" fill="#165FCD"/>
<path opacity="0.5" d="M64.7344 25.7969H60.8281C60.776 25.3958 60.6693 25.0339 60.5078 24.7109C60.3464 24.388 60.1328 24.112 59.8672 23.8828C59.6016 23.6536 59.2865 23.4792 58.9219 23.3594C58.5625 23.2344 58.1641 23.1719 57.7266 23.1719C56.9505 23.1719 56.2813 23.362 55.7188 23.7422C55.1615 24.1224 54.7318 24.6719 54.4297 25.3906C54.1328 26.1094 53.9844 26.9792 53.9844 28C53.9844 29.0625 54.1354 29.9531 54.4375 30.6719C54.7448 31.3854 55.1745 31.9245 55.7266 32.2891C56.2839 32.6484 56.9427 32.8281 57.7031 32.8281C58.1302 32.8281 58.5182 32.7734 58.8672 32.6641C59.2214 32.5547 59.5313 32.3958 59.7969 32.1875C60.0677 31.974 60.2891 31.7161 60.4609 31.4141C60.638 31.1068 60.7604 30.7604 60.8281 30.375L64.7344 30.3984C64.6667 31.1068 64.4609 31.8047 64.1172 32.4922C63.7786 33.1797 63.3125 33.8073 62.7188 34.375C62.125 34.9375 61.401 35.3854 60.5469 35.7187C59.6979 36.0521 58.724 36.2187 57.625 36.2187C56.1771 36.2187 54.8802 35.901 53.7344 35.2656C52.5938 34.625 51.6927 33.6927 51.0313 32.4687C50.3698 31.2448 50.0391 29.7552 50.0391 28C50.0391 26.2396 50.375 24.7474 51.0469 23.5234C51.7188 22.2995 52.6276 21.3698 53.7734 20.7344C54.9193 20.099 56.2031 19.7812 57.625 19.7812C58.5938 19.7812 59.4896 19.9167 60.3125 20.1875C61.1354 20.4531 61.8594 20.8437 62.4844 21.3594C63.1094 21.8698 63.6172 22.4974 64.0078 23.2422C64.3984 23.987 64.6406 24.8385 64.7344 25.7969Z" fill="#165FCD"/>
</svg>
