<svg width="79" height="79" viewBox="0 0 79 79" fill="none" xmlns="http://www.w3.org/2000/svg">
<path d="M19.7188 58.5653C19.6733 58.1619 19.4858 57.8494 19.1562 57.6278C18.8267 57.4034 18.4119 57.2912 17.9119 57.2912C17.554 57.2912 17.2443 57.348 16.983 57.4616C16.7216 57.5724 16.5185 57.7259 16.3736 57.9219C16.2315 58.1151 16.1605 58.3352 16.1605 58.5824C16.1605 58.7898 16.2088 58.9687 16.3054 59.1193C16.4048 59.2699 16.5341 59.3963 16.6932 59.4986C16.8551 59.598 17.0284 59.6818 17.2131 59.75C17.3977 59.8153 17.5753 59.8693 17.7457 59.9119L18.598 60.1335C18.8764 60.2017 19.1619 60.294 19.4545 60.4105C19.7472 60.527 20.0185 60.6804 20.2685 60.8707C20.5185 61.0611 20.7202 61.2969 20.8736 61.5781C21.0298 61.8594 21.108 62.196 21.108 62.5881C21.108 63.0824 20.9801 63.5213 20.7244 63.9048C20.4716 64.2884 20.1037 64.5909 19.6207 64.8125C19.1406 65.0341 18.5597 65.1449 17.8778 65.1449C17.2244 65.1449 16.6591 65.0412 16.1818 64.8338C15.7045 64.6264 15.331 64.3324 15.0611 63.9517C14.7912 63.5682 14.642 63.1136 14.6136 62.5881H15.9347C15.9602 62.9034 16.0625 63.1662 16.2415 63.3764C16.4233 63.5838 16.6548 63.7386 16.9361 63.8409C17.2202 63.9403 17.5312 63.9901 17.8693 63.9901C18.2415 63.9901 18.5724 63.9318 18.8622 63.8153C19.1548 63.696 19.3849 63.5312 19.5526 63.321C19.7202 63.108 19.804 62.8594 19.804 62.5753C19.804 62.3168 19.7301 62.1051 19.5824 61.9403C19.4375 61.7756 19.2401 61.6392 18.9901 61.5312C18.7429 61.4233 18.4631 61.3281 18.1506 61.2457L17.1193 60.9645C16.4205 60.7741 15.8665 60.4943 15.4574 60.125C15.0511 59.7557 14.848 59.267 14.848 58.6591C14.848 58.1562 14.9844 57.7173 15.2571 57.3423C15.5298 56.9673 15.8991 56.6761 16.3651 56.4688C16.831 56.2585 17.3565 56.1534 17.9418 56.1534C18.5327 56.1534 19.054 56.2571 19.5057 56.4645C19.9602 56.6719 20.3182 56.9574 20.5795 57.321C20.8409 57.6818 20.9773 58.0966 20.9886 58.5653H19.7188ZM23.8533 56.2727V65H22.5792V56.2727H23.8533ZM25.5675 65V58.4545H26.8416V65H25.5675ZM26.2109 57.4446C25.9893 57.4446 25.799 57.3707 25.6399 57.223C25.4837 57.0724 25.4055 56.8935 25.4055 56.6861C25.4055 56.4759 25.4837 56.2969 25.6399 56.1491C25.799 55.9986 25.9893 55.9233 26.2109 55.9233C26.4325 55.9233 26.6214 55.9986 26.7777 56.1491C26.9368 56.2969 27.0163 56.4759 27.0163 56.6861C27.0163 56.8935 26.9368 57.0724 26.7777 57.223C26.6214 57.3707 26.4325 57.4446 26.2109 57.4446ZM31.006 65.1278C30.4776 65.1278 30.006 64.9929 29.5913 64.723C29.1793 64.4503 28.8555 64.0625 28.6197 63.5597C28.3867 63.054 28.2702 62.4474 28.2702 61.7401C28.2702 61.0327 28.3881 60.4276 28.6239 59.9247C28.8626 59.4219 29.1893 59.0369 29.604 58.7699C30.0188 58.5028 30.489 58.3693 31.0146 58.3693C31.4208 58.3693 31.7475 58.4375 31.9947 58.5739C32.2447 58.7074 32.4379 58.8636 32.5742 59.0426C32.7134 59.2216 32.8214 59.3793 32.8981 59.5156H32.9748V56.2727H34.2489V65H33.0046V63.9815H32.8981C32.8214 64.1207 32.7106 64.2798 32.5657 64.4588C32.4237 64.6378 32.2276 64.794 31.9776 64.9276C31.7276 65.0611 31.4038 65.1278 31.006 65.1278ZM31.2873 64.0412C31.6538 64.0412 31.9634 63.9446 32.2163 63.7514C32.4719 63.5554 32.6651 63.2841 32.7958 62.9375C32.9293 62.5909 32.9961 62.1875 32.9961 61.7273C32.9961 61.2727 32.9308 60.875 32.8001 60.5341C32.6694 60.1932 32.4776 59.9276 32.2248 59.7372C31.9719 59.5469 31.6594 59.4517 31.2873 59.4517C30.9038 59.4517 30.5842 59.5511 30.3285 59.75C30.0728 59.9489 29.8796 60.2202 29.7489 60.5639C29.6211 60.9077 29.5572 61.2955 29.5572 61.7273C29.5572 62.1648 29.6225 62.5582 29.7532 62.9077C29.8839 63.2571 30.0771 63.5341 30.3327 63.7386C30.5913 63.9403 30.9094 64.0412 31.2873 64.0412ZM38.8885 65.1321C38.2436 65.1321 37.6882 64.9943 37.2223 64.7188C36.7592 64.4403 36.4013 64.0497 36.1484 63.5469C35.8984 63.0412 35.7734 62.4489 35.7734 61.7699C35.7734 61.0994 35.8984 60.5085 36.1484 59.9972C36.4013 59.4858 36.7536 59.0866 37.2053 58.7997C37.6598 58.5128 38.1911 58.3693 38.799 58.3693C39.1683 58.3693 39.5263 58.4304 39.8729 58.5526C40.2195 58.6747 40.5305 58.8665 40.8061 59.1278C41.0817 59.3892 41.299 59.7287 41.4581 60.1463C41.6172 60.5611 41.6967 61.0653 41.6967 61.6591V62.1108H36.4936V61.1562H40.4482C40.4482 60.821 40.38 60.5241 40.2436 60.2656C40.1072 60.0043 39.9155 59.7983 39.6683 59.6477C39.424 59.4972 39.1371 59.4219 38.8075 59.4219C38.4496 59.4219 38.1371 59.5099 37.87 59.6861C37.6058 59.8594 37.4013 60.0866 37.2564 60.3679C37.1143 60.6463 37.0433 60.9489 37.0433 61.2756V62.0213C37.0433 62.4588 37.12 62.831 37.2734 63.1378C37.4297 63.4446 37.647 63.679 37.9254 63.8409C38.2038 64 38.5291 64.0795 38.9013 64.0795C39.1428 64.0795 39.3629 64.0455 39.5618 63.9773C39.7607 63.9062 39.9325 63.8011 40.0774 63.6619C40.2223 63.5227 40.3331 63.3509 40.4098 63.1463L41.6158 63.3636C41.5192 63.7187 41.3459 64.0298 41.0959 64.2969C40.8487 64.5611 40.5376 64.767 40.1626 64.9148C39.7905 65.0597 39.3658 65.1321 38.8885 65.1321ZM49.3416 58.4545V59.4773H45.7663V58.4545H49.3416ZM46.7251 56.8864H47.9993V63.0781C47.9993 63.3253 48.0362 63.5114 48.1101 63.6364C48.1839 63.7585 48.2791 63.8423 48.3956 63.8878C48.5149 63.9304 48.6442 63.9517 48.7834 63.9517C48.8857 63.9517 48.9751 63.9446 49.0518 63.9304C49.1286 63.9162 49.1882 63.9048 49.2308 63.8963L49.4609 64.9489C49.3871 64.9773 49.282 65.0057 49.1456 65.0341C49.0092 65.0653 48.8388 65.0824 48.6342 65.0852C48.299 65.0909 47.9865 65.0312 47.6967 64.9062C47.407 64.7812 47.1726 64.5881 46.9936 64.3267C46.8146 64.0653 46.7251 63.7372 46.7251 63.3423V56.8864ZM53.4379 65.1321C52.8242 65.1321 52.2887 64.9915 51.8313 64.7102C51.3739 64.429 51.0188 64.0355 50.766 63.5298C50.5131 63.0241 50.3867 62.4332 50.3867 61.7571C50.3867 61.0781 50.5131 60.4844 50.766 59.9759C51.0188 59.4673 51.3739 59.0724 51.8313 58.7912C52.2887 58.5099 52.8242 58.3693 53.4379 58.3693C54.0515 58.3693 54.587 58.5099 55.0444 58.7912C55.5018 59.0724 55.8569 59.4673 56.1097 59.9759C56.3626 60.4844 56.489 61.0781 56.489 61.7571C56.489 62.4332 56.3626 63.0241 56.1097 63.5298C55.8569 64.0355 55.5018 64.429 55.0444 64.7102C54.587 64.9915 54.0515 65.1321 53.4379 65.1321ZM53.4421 64.0625C53.8398 64.0625 54.1694 63.9574 54.4308 63.7472C54.6921 63.5369 54.8853 63.2571 55.0103 62.9077C55.1381 62.5582 55.2021 62.1733 55.2021 61.7528C55.2021 61.3352 55.1381 60.9517 55.0103 60.6023C54.8853 60.25 54.6921 59.9673 54.4308 59.7543C54.1694 59.5412 53.8398 59.4347 53.4421 59.4347C53.0415 59.4347 52.7092 59.5412 52.445 59.7543C52.1836 59.9673 51.989 60.25 51.8612 60.6023C51.7362 60.9517 51.6737 61.3352 51.6737 61.7528C51.6737 62.1733 51.7362 62.5582 51.8612 62.9077C51.989 63.2571 52.1836 63.5369 52.445 63.7472C52.7092 63.9574 53.0415 64.0625 53.4421 64.0625ZM57.9112 67.4545V58.4545H59.1555V59.5156H59.2621C59.3359 59.3793 59.4425 59.2216 59.5817 59.0426C59.7209 58.8636 59.9141 58.7074 60.1612 58.5739C60.4084 58.4375 60.7351 58.3693 61.1413 58.3693C61.6697 58.3693 62.1413 58.5028 62.5561 58.7699C62.9709 59.0369 63.2962 59.4219 63.532 59.9247C63.7706 60.4276 63.8899 61.0327 63.8899 61.7401C63.8899 62.4474 63.772 63.054 63.5362 63.5597C63.3004 64.0625 62.9766 64.4503 62.5646 64.723C62.1527 64.9929 61.6825 65.1278 61.1541 65.1278C60.7564 65.1278 60.4311 65.0611 60.1783 64.9276C59.9283 64.794 59.7322 64.6378 59.5902 64.4588C59.4482 64.2798 59.3388 64.1207 59.2621 63.9815H59.1854V67.4545H57.9112ZM59.1598 61.7273C59.1598 62.1875 59.2266 62.5909 59.3601 62.9375C59.4936 63.2841 59.6868 63.5554 59.9396 63.7514C60.1925 63.9446 60.5021 64.0412 60.8686 64.0412C61.2493 64.0412 61.5675 63.9403 61.8232 63.7386C62.0788 63.5341 62.272 63.2571 62.4027 62.9077C62.5362 62.5582 62.603 62.1648 62.603 61.7273C62.603 61.2955 62.5376 60.9077 62.407 60.5639C62.2791 60.2202 62.0859 59.9489 61.8274 59.75C61.5717 59.5511 61.2521 59.4517 60.8686 59.4517C60.4993 59.4517 60.1868 59.5469 59.9311 59.7372C59.6783 59.9276 59.4865 60.1932 59.3558 60.5341C59.2251 60.875 59.1598 61.2727 59.1598 61.7273Z" fill="#A2A7D1"/>
<path d="M19.6719 40H15.5156L20.9141 24H26.0625L31.4609 40H27.3047L23.5469 28.0312H23.4219L19.6719 40ZM19.1172 33.7031H27.8047V36.6406H19.1172V33.7031ZM33.1836 40V24H39.8555C41.0534 24 42.056 24.1693 42.8633 24.5078C43.6758 24.8464 44.2852 25.3203 44.6914 25.9297C45.1029 26.5391 45.3086 27.2448 45.3086 28.0469C45.3086 28.6562 45.181 29.2005 44.9258 29.6797C44.6706 30.1536 44.319 30.5469 43.8711 30.8594C43.4232 31.1719 42.9049 31.3906 42.3164 31.5156V31.6719C42.9622 31.7031 43.5586 31.8776 44.1055 32.1953C44.6576 32.513 45.1003 32.9557 45.4336 33.5234C45.7669 34.0859 45.9336 34.7526 45.9336 35.5234C45.9336 36.3828 45.7148 37.151 45.2773 37.8281C44.8398 38.5 44.207 39.0312 43.3789 39.4219C42.5508 39.8073 41.5456 40 40.3633 40H33.1836ZM37.0508 36.8828H39.4414C40.2799 36.8828 40.8971 36.724 41.293 36.4062C41.694 36.0885 41.8945 35.6458 41.8945 35.0781C41.8945 34.6667 41.7982 34.3125 41.6055 34.0156C41.4128 33.7135 41.1393 33.4818 40.7852 33.3203C40.431 33.1536 40.0065 33.0703 39.5117 33.0703H37.0508V36.8828ZM37.0508 30.5781H39.1914C39.6133 30.5781 39.9883 30.5078 40.3164 30.3672C40.6445 30.2266 40.8997 30.0234 41.082 29.7578C41.2695 29.4922 41.3633 29.1719 41.3633 28.7969C41.3633 28.2604 41.1732 27.8385 40.793 27.5312C40.4128 27.224 39.8997 27.0703 39.2539 27.0703H37.0508V30.5781Z" fill="#165FCD"/>
<path opacity="0.5" d="M62.7344 21.7969H58.8281C58.776 21.3958 58.6693 21.0339 58.5078 20.7109C58.3464 20.388 58.1328 20.112 57.8672 19.8828C57.6016 19.6536 57.2865 19.4792 56.9219 19.3594C56.5625 19.2344 56.1641 19.1719 55.7266 19.1719C54.9505 19.1719 54.2813 19.362 53.7188 19.7422C53.1615 20.1224 52.7318 20.6719 52.4297 21.3906C52.1328 22.1094 51.9844 22.9792 51.9844 24C51.9844 25.0625 52.1354 25.9531 52.4375 26.6719C52.7448 27.3854 53.1745 27.9245 53.7266 28.2891C54.2839 28.6484 54.9427 28.8281 55.7031 28.8281C56.1302 28.8281 56.5182 28.7734 56.8672 28.6641C57.2214 28.5547 57.5313 28.3958 57.7969 28.1875C58.0677 27.974 58.2891 27.7161 58.4609 27.4141C58.638 27.1068 58.7604 26.7604 58.8281 26.375L62.7344 26.3984C62.6667 27.1068 62.4609 27.8047 62.1172 28.4922C61.7786 29.1797 61.3125 29.8073 60.7188 30.375C60.125 30.9375 59.401 31.3854 58.5469 31.7187C57.6979 32.0521 56.724 32.2187 55.625 32.2187C54.1771 32.2187 52.8802 31.901 51.7344 31.2656C50.5938 30.625 49.6927 29.6927 49.0313 28.4687C48.3698 27.2448 48.0391 25.7552 48.0391 24C48.0391 22.2396 48.375 20.7474 49.0469 19.5234C49.7188 18.2995 50.6276 17.3698 51.7734 16.7344C52.9193 16.099 54.2031 15.7812 55.625 15.7812C56.5938 15.7812 57.4896 15.9167 58.3125 16.1875C59.1354 16.4531 59.8594 16.8437 60.4844 17.3594C61.1094 17.8698 61.6172 18.4974 62.0078 19.2422C62.3984 19.987 62.6406 20.8385 62.7344 21.7969Z" fill="#165FCD"/>
</svg>
