<svg width="79" height="79" viewBox="0 0 79 79" fill="none" xmlns="http://www.w3.org/2000/svg">
<path d="M8.71875 54.5653C8.6733 54.1619 8.4858 53.8494 8.15625 53.6278C7.8267 53.4034 7.41193 53.2912 6.91193 53.2912C6.55398 53.2912 6.24432 53.348 5.98295 53.4616C5.72159 53.5724 5.51847 53.7259 5.37358 53.9219C5.23153 54.1151 5.16051 54.3352 5.16051 54.5824C5.16051 54.7898 5.20881 54.9687 5.3054 55.1193C5.40483 55.2699 5.53409 55.3963 5.69318 55.4986C5.85511 55.598 6.02841 55.6818 6.21307 55.75C6.39773 55.8153 6.57528 55.8693 6.74574 55.9119L7.59801 56.1335C7.87642 56.2017 8.16193 56.294 8.45455 56.4105C8.74716 56.527 9.01847 56.6804 9.26847 56.8707C9.51847 57.0611 9.72017 57.2969 9.87358 57.5781C10.0298 57.8594 10.108 58.196 10.108 58.5881C10.108 59.0824 9.98011 59.5213 9.72443 59.9048C9.47159 60.2884 9.10369 60.5909 8.62074 60.8125C8.14063 61.0341 7.55966 61.1449 6.87784 61.1449C6.22443 61.1449 5.65909 61.0412 5.18182 60.8338C4.70455 60.6264 4.33097 60.3324 4.06108 59.9517C3.79119 59.5682 3.64205 59.1136 3.61364 58.5881H4.93466C4.96023 58.9034 5.0625 59.1662 5.24148 59.3764C5.4233 59.5838 5.65483 59.7386 5.93608 59.8409C6.22017 59.9403 6.53125 59.9901 6.86932 59.9901C7.24148 59.9901 7.57244 59.9318 7.86222 59.8153C8.15483 59.696 8.38494 59.5312 8.55256 59.321C8.72017 59.108 8.80398 58.8594 8.80398 58.5753C8.80398 58.3168 8.73011 58.1051 8.58239 57.9403C8.4375 57.7756 8.24006 57.6392 7.99006 57.5312C7.7429 57.4233 7.46307 57.3281 7.15057 57.2457L6.11932 56.9645C5.42045 56.7741 4.86648 56.4943 4.45739 56.125C4.05114 55.7557 3.84801 55.267 3.84801 54.6591C3.84801 54.1562 3.98438 53.7173 4.2571 53.3423C4.52983 52.9673 4.89915 52.6761 5.36506 52.4688C5.83097 52.2585 6.35653 52.1534 6.94176 52.1534C7.53267 52.1534 8.05398 52.2571 8.50568 52.4645C8.96023 52.6719 9.31818 52.9574 9.57955 53.321C9.84091 53.6818 9.97727 54.0966 9.98864 54.5653H8.71875ZM12.8533 52.2727V61H11.5792V52.2727H12.8533ZM14.5675 61V54.4545H15.8416V61H14.5675ZM15.2109 53.4446C14.9893 53.4446 14.799 53.3707 14.6399 53.223C14.4837 53.0724 14.4055 52.8935 14.4055 52.6861C14.4055 52.4759 14.4837 52.2969 14.6399 52.1491C14.799 51.9986 14.9893 51.9233 15.2109 51.9233C15.4325 51.9233 15.6214 51.9986 15.7777 52.1491C15.9368 52.2969 16.0163 52.4759 16.0163 52.6861C16.0163 52.8935 15.9368 53.0724 15.7777 53.223C15.6214 53.3707 15.4325 53.4446 15.2109 53.4446ZM20.006 61.1278C19.4776 61.1278 19.006 60.9929 18.5913 60.723C18.1793 60.4503 17.8555 60.0625 17.6197 59.5597C17.3867 59.054 17.2702 58.4474 17.2702 57.7401C17.2702 57.0327 17.3881 56.4276 17.6239 55.9247C17.8626 55.4219 18.1893 55.0369 18.604 54.7699C19.0188 54.5028 19.489 54.3693 20.0146 54.3693C20.4208 54.3693 20.7475 54.4375 20.9947 54.5739C21.2447 54.7074 21.4379 54.8636 21.5742 55.0426C21.7134 55.2216 21.8214 55.3793 21.8981 55.5156H21.9748V52.2727H23.2489V61H22.0046V59.9815H21.8981C21.8214 60.1207 21.7106 60.2798 21.5657 60.4588C21.4237 60.6378 21.2276 60.794 20.9776 60.9276C20.7276 61.0611 20.4038 61.1278 20.006 61.1278ZM20.2873 60.0412C20.6538 60.0412 20.9634 59.9446 21.2163 59.7514C21.4719 59.5554 21.6651 59.2841 21.7958 58.9375C21.9293 58.5909 21.9961 58.1875 21.9961 57.7273C21.9961 57.2727 21.9308 56.875 21.8001 56.5341C21.6694 56.1932 21.4776 55.9276 21.2248 55.7372C20.9719 55.5469 20.6594 55.4517 20.2873 55.4517C19.9038 55.4517 19.5842 55.5511 19.3285 55.75C19.0728 55.9489 18.8796 56.2202 18.7489 56.5639C18.6211 56.9077 18.5572 57.2955 18.5572 57.7273C18.5572 58.1648 18.6225 58.5582 18.7532 58.9077C18.8839 59.2571 19.0771 59.5341 19.3327 59.7386C19.5913 59.9403 19.9094 60.0412 20.2873 60.0412ZM27.8885 61.1321C27.2436 61.1321 26.6882 60.9943 26.2223 60.7188C25.7592 60.4403 25.4013 60.0497 25.1484 59.5469C24.8984 59.0412 24.7734 58.4489 24.7734 57.7699C24.7734 57.0994 24.8984 56.5085 25.1484 55.9972C25.4013 55.4858 25.7536 55.0866 26.2053 54.7997C26.6598 54.5128 27.1911 54.3693 27.799 54.3693C28.1683 54.3693 28.5263 54.4304 28.8729 54.5526C29.2195 54.6747 29.5305 54.8665 29.8061 55.1278C30.0817 55.3892 30.299 55.7287 30.4581 56.1463C30.6172 56.5611 30.6967 57.0653 30.6967 57.6591V58.1108H25.4936V57.1562H29.4482C29.4482 56.821 29.38 56.5241 29.2436 56.2656C29.1072 56.0043 28.9155 55.7983 28.6683 55.6477C28.424 55.4972 28.1371 55.4219 27.8075 55.4219C27.4496 55.4219 27.1371 55.5099 26.87 55.6861C26.6058 55.8594 26.4013 56.0866 26.2564 56.3679C26.1143 56.6463 26.0433 56.9489 26.0433 57.2756V58.0213C26.0433 58.4588 26.12 58.831 26.2734 59.1378C26.4297 59.4446 26.647 59.679 26.9254 59.8409C27.2038 60 27.5291 60.0795 27.9013 60.0795C28.1428 60.0795 28.3629 60.0455 28.5618 59.9773C28.7607 59.9062 28.9325 59.8011 29.0774 59.6619C29.2223 59.5227 29.3331 59.3509 29.4098 59.1463L30.6158 59.3636C30.5192 59.7187 30.3459 60.0298 30.0959 60.2969C29.8487 60.5611 29.5376 60.767 29.1626 60.9148C28.7905 61.0597 28.3658 61.1321 27.8885 61.1321ZM35.3885 61V52.2727H36.6626V55.5156H36.7393C36.8132 55.3793 36.9197 55.2216 37.0589 55.0426C37.1982 54.8636 37.3913 54.7074 37.6385 54.5739C37.8857 54.4375 38.2124 54.3693 38.6186 54.3693C39.147 54.3693 39.6186 54.5028 40.0334 54.7699C40.4482 55.0369 40.7734 55.4219 41.0092 55.9247C41.2479 56.4276 41.3672 57.0327 41.3672 57.7401C41.3672 58.4474 41.2493 59.054 41.0135 59.5597C40.7777 60.0625 40.4538 60.4503 40.0419 60.723C39.63 60.9929 39.1598 61.1278 38.6314 61.1278C38.2337 61.1278 37.9084 61.0611 37.6555 60.9276C37.4055 60.794 37.2095 60.6378 37.0675 60.4588C36.9254 60.2798 36.8161 60.1207 36.7393 59.9815H36.6328V61H35.3885ZM36.6371 57.7273C36.6371 58.1875 36.7038 58.5909 36.8374 58.9375C36.9709 59.2841 37.1641 59.5554 37.4169 59.7514C37.6697 59.9446 37.9794 60.0412 38.3459 60.0412C38.7266 60.0412 39.0447 59.9403 39.3004 59.7386C39.5561 59.5341 39.7493 59.2571 39.88 58.9077C40.0135 58.5582 40.0803 58.1648 40.0803 57.7273C40.0803 57.2955 40.0149 56.9077 39.8842 56.5639C39.7564 56.2202 39.5632 55.9489 39.3047 55.75C39.049 55.5511 38.7294 55.4517 38.3459 55.4517C37.9766 55.4517 37.6641 55.5469 37.4084 55.7372C37.1555 55.9276 36.9638 56.1932 36.8331 56.5341C36.7024 56.875 36.6371 57.2727 36.6371 57.7273ZM45.555 61.1321C44.9414 61.1321 44.4059 60.9915 43.9485 60.7102C43.4911 60.429 43.136 60.0355 42.8832 59.5298C42.6303 59.0241 42.5039 58.4332 42.5039 57.7571C42.5039 57.0781 42.6303 56.4844 42.8832 55.9759C43.136 55.4673 43.4911 55.0724 43.9485 54.7912C44.4059 54.5099 44.9414 54.3693 45.555 54.3693C46.1687 54.3693 46.7042 54.5099 47.1616 54.7912C47.619 55.0724 47.9741 55.4673 48.2269 55.9759C48.4798 56.4844 48.6062 57.0781 48.6062 57.7571C48.6062 58.4332 48.4798 59.0241 48.2269 59.5298C47.9741 60.0355 47.619 60.429 47.1616 60.7102C46.7042 60.9915 46.1687 61.1321 45.555 61.1321ZM45.5593 60.0625C45.957 60.0625 46.2866 59.9574 46.5479 59.7472C46.8093 59.5369 47.0025 59.2571 47.1275 58.9077C47.2553 58.5582 47.3192 58.1733 47.3192 57.7528C47.3192 57.3352 47.2553 56.9517 47.1275 56.6023C47.0025 56.25 46.8093 55.9673 46.5479 55.7543C46.2866 55.5412 45.957 55.4347 45.5593 55.4347C45.1587 55.4347 44.8263 55.5412 44.5621 55.7543C44.3008 55.9673 44.1062 56.25 43.9783 56.6023C43.8533 56.9517 43.7908 57.3352 43.7908 57.7528C43.7908 58.1733 43.8533 58.5582 43.9783 58.9077C44.1062 59.2571 44.3008 59.5369 44.5621 59.7472C44.8263 59.9574 45.1587 60.0625 45.5593 60.0625ZM53.0838 54.4545V55.4773H49.5085V54.4545H53.0838ZM50.4673 52.8864H51.7415V59.0781C51.7415 59.3253 51.7784 59.5114 51.8523 59.6364C51.9261 59.7585 52.0213 59.8423 52.1378 59.8878C52.2571 59.9304 52.3864 59.9517 52.5256 59.9517C52.6278 59.9517 52.7173 59.9446 52.794 59.9304C52.8707 59.9162 52.9304 59.9048 52.973 59.8963L53.2031 60.9489C53.1293 60.9773 53.0241 61.0057 52.8878 61.0341C52.7514 61.0653 52.581 61.0824 52.3764 61.0852C52.0412 61.0909 51.7287 61.0312 51.4389 60.9062C51.1491 60.7812 50.9148 60.5881 50.7358 60.3267C50.5568 60.0653 50.4673 59.7372 50.4673 59.3423V52.8864ZM57.5487 54.4545V55.4773H53.9734V54.4545H57.5487ZM54.9322 52.8864H56.2063V59.0781C56.2063 59.3253 56.2433 59.5114 56.3171 59.6364C56.391 59.7585 56.4862 59.8423 56.6026 59.8878C56.7219 59.9304 56.8512 59.9517 56.9904 59.9517C57.0927 59.9517 57.1822 59.9446 57.2589 59.9304C57.3356 59.9162 57.3952 59.9048 57.4379 59.8963L57.668 60.9489C57.5941 60.9773 57.489 61.0057 57.3526 61.0341C57.2163 61.0653 57.0458 61.0824 56.8413 61.0852C56.506 61.0909 56.1935 61.0312 55.9038 60.9062C55.614 60.7812 55.3796 60.5881 55.2006 60.3267C55.0217 60.0653 54.9322 59.7372 54.9322 59.3423V52.8864ZM61.6449 61.1321C61.0313 61.1321 60.4957 60.9915 60.0384 60.7102C59.581 60.429 59.2259 60.0355 58.973 59.5298C58.7202 59.0241 58.5938 58.4332 58.5938 57.7571C58.5938 57.0781 58.7202 56.4844 58.973 55.9759C59.2259 55.4673 59.581 55.0724 60.0384 54.7912C60.4957 54.5099 61.0313 54.3693 61.6449 54.3693C62.2585 54.3693 62.794 54.5099 63.2514 54.7912C63.7088 55.0724 64.0639 55.4673 64.3168 55.9759C64.5696 56.4844 64.696 57.0781 64.696 57.7571C64.696 58.4332 64.5696 59.0241 64.3168 59.5298C64.0639 60.0355 63.7088 60.429 63.2514 60.7102C62.794 60.9915 62.2585 61.1321 61.6449 61.1321ZM61.6491 60.0625C62.0469 60.0625 62.3764 59.9574 62.6378 59.7472C62.8991 59.5369 63.0923 59.2571 63.2173 58.9077C63.3452 58.5582 63.4091 58.1733 63.4091 57.7528C63.4091 57.3352 63.3452 56.9517 63.2173 56.6023C63.0923 56.25 62.8991 55.9673 62.6378 55.7543C62.3764 55.5412 62.0469 55.4347 61.6491 55.4347C61.2486 55.4347 60.9162 55.5412 60.652 55.7543C60.3906 55.9673 60.196 56.25 60.0682 56.6023C59.9432 56.9517 59.8807 57.3352 59.8807 57.7528C59.8807 58.1733 59.9432 58.5582 60.0682 58.9077C60.196 59.2571 60.3906 59.5369 60.652 59.7472C60.9162 59.9574 61.2486 60.0625 61.6491 60.0625ZM66.1183 61V54.4545H67.3413V55.5199H67.4222C67.5586 55.1591 67.7816 54.8778 68.0913 54.6761C68.4009 54.4716 68.7717 54.3693 69.2035 54.3693C69.641 54.3693 70.0075 54.4716 70.3029 54.6761C70.6012 54.8807 70.8214 55.1619 70.9634 55.5199H71.0316C71.1879 55.1705 71.4364 54.892 71.7773 54.6847C72.1183 54.4744 72.5245 54.3693 72.9961 54.3693C73.5898 54.3693 74.0742 54.5554 74.4492 54.9276C74.8271 55.2997 75.016 55.8608 75.016 56.6108V61H73.7418V56.7301C73.7418 56.2869 73.6211 55.9659 73.3796 55.767C73.1381 55.5682 72.8498 55.4688 72.5146 55.4688C72.0998 55.4688 71.7773 55.5966 71.5472 55.8523C71.3171 56.1051 71.2021 56.4304 71.2021 56.8281V61H69.9322V56.6491C69.9322 56.294 69.8214 56.0085 69.5998 55.7926C69.3782 55.5767 69.0898 55.4688 68.7347 55.4688C68.4933 55.4688 68.2702 55.5327 68.0657 55.6605C67.864 55.7855 67.7006 55.9602 67.5756 56.1847C67.4535 56.4091 67.3924 56.669 67.3924 56.9645V61H66.1183Z" fill="#A2A7D1"/>
<path d="M19.6719 36H15.5156L20.9141 20H26.0625L31.4609 36H27.3047L23.5469 24.0312H23.4219L19.6719 36ZM19.1172 29.7031H27.8047V32.6406H19.1172V29.7031ZM33.1836 36V20H39.8555C41.0534 20 42.056 20.1693 42.8633 20.5078C43.6758 20.8464 44.2852 21.3203 44.6914 21.9297C45.1029 22.5391 45.3086 23.2448 45.3086 24.0469C45.3086 24.6562 45.181 25.2005 44.9258 25.6797C44.6706 26.1536 44.319 26.5469 43.8711 26.8594C43.4232 27.1719 42.9049 27.3906 42.3164 27.5156V27.6719C42.9622 27.7031 43.5586 27.8776 44.1055 28.1953C44.6576 28.513 45.1003 28.9557 45.4336 29.5234C45.7669 30.0859 45.9336 30.7526 45.9336 31.5234C45.9336 32.3828 45.7148 33.151 45.2773 33.8281C44.8398 34.5 44.207 35.0312 43.3789 35.4219C42.5508 35.8073 41.5456 36 40.3633 36H33.1836ZM37.0508 32.8828H39.4414C40.2799 32.8828 40.8971 32.724 41.293 32.4062C41.694 32.0885 41.8945 31.6458 41.8945 31.0781C41.8945 30.6667 41.7982 30.3125 41.6055 30.0156C41.4128 29.7135 41.1393 29.4818 40.7852 29.3203C40.431 29.1536 40.0065 29.0703 39.5117 29.0703H37.0508V32.8828ZM37.0508 26.5781H39.1914C39.6133 26.5781 39.9883 26.5078 40.3164 26.3672C40.6445 26.2266 40.8997 26.0234 41.082 25.7578C41.2695 25.4922 41.3633 25.1719 41.3633 24.7969C41.3633 24.2604 41.1732 23.8385 40.793 23.5312C40.4128 23.224 39.8997 23.0703 39.2539 23.0703H37.0508V26.5781Z" fill="#165FCD"/>
<path opacity="0.5" d="M62.7344 32.7969H58.8281C58.776 32.3958 58.6693 32.0339 58.5078 31.7109C58.3464 31.388 58.1328 31.112 57.8672 30.8828C57.6016 30.6536 57.2865 30.4792 56.9219 30.3594C56.5625 30.2344 56.1641 30.1719 55.7266 30.1719C54.9505 30.1719 54.2813 30.362 53.7188 30.7422C53.1615 31.1224 52.7318 31.6719 52.4297 32.3906C52.1328 33.1094 51.9844 33.9792 51.9844 35C51.9844 36.0625 52.1354 36.9531 52.4375 37.6719C52.7448 38.3854 53.1745 38.9245 53.7266 39.2891C54.2839 39.6484 54.9427 39.8281 55.7031 39.8281C56.1302 39.8281 56.5182 39.7734 56.8672 39.6641C57.2214 39.5547 57.5313 39.3958 57.7969 39.1875C58.0677 38.974 58.2891 38.7161 58.4609 38.4141C58.638 38.1068 58.7604 37.7604 58.8281 37.375L62.7344 37.3984C62.6667 38.1068 62.4609 38.8047 62.1172 39.4922C61.7786 40.1797 61.3125 40.8073 60.7188 41.375C60.125 41.9375 59.401 42.3854 58.5469 42.7187C57.6979 43.0521 56.724 43.2187 55.625 43.2187C54.1771 43.2187 52.8802 42.901 51.7344 42.2656C50.5938 41.625 49.6927 40.6927 49.0313 39.4687C48.3698 38.2448 48.0391 36.7552 48.0391 35C48.0391 33.2396 48.375 31.7474 49.0469 30.5234C49.7188 29.2995 50.6276 28.3698 51.7734 27.7344C52.9193 27.099 54.2031 26.7812 55.625 26.7812C56.5938 26.7812 57.4896 26.9167 58.3125 27.1875C59.1354 27.4531 59.8594 27.8437 60.4844 28.3594C61.1094 28.8698 61.6172 29.4974 62.0078 30.2422C62.3984 30.987 62.6406 31.8385 62.7344 32.7969Z" fill="#165FCD"/>
</svg>
