<svg width="79" height="79" viewBox="0 0 79 79" fill="none" xmlns="http://www.w3.org/2000/svg">
<path d="M19.7188 54.5653C19.6733 54.1619 19.4858 53.8494 19.1562 53.6278C18.8267 53.4034 18.4119 53.2912 17.9119 53.2912C17.554 53.2912 17.2443 53.348 16.983 53.4616C16.7216 53.5724 16.5185 53.7259 16.3736 53.9219C16.2315 54.1151 16.1605 54.3352 16.1605 54.5824C16.1605 54.7898 16.2088 54.9687 16.3054 55.1193C16.4048 55.2699 16.5341 55.3963 16.6932 55.4986C16.8551 55.598 17.0284 55.6818 17.2131 55.75C17.3977 55.8153 17.5753 55.8693 17.7457 55.9119L18.598 56.1335C18.8764 56.2017 19.1619 56.294 19.4545 56.4105C19.7472 56.527 20.0185 56.6804 20.2685 56.8707C20.5185 57.0611 20.7202 57.2969 20.8736 57.5781C21.0298 57.8594 21.108 58.196 21.108 58.5881C21.108 59.0824 20.9801 59.5213 20.7244 59.9048C20.4716 60.2884 20.1037 60.5909 19.6207 60.8125C19.1406 61.0341 18.5597 61.1449 17.8778 61.1449C17.2244 61.1449 16.6591 61.0412 16.1818 60.8338C15.7045 60.6264 15.331 60.3324 15.0611 59.9517C14.7912 59.5682 14.642 59.1136 14.6136 58.5881H15.9347C15.9602 58.9034 16.0625 59.1662 16.2415 59.3764C16.4233 59.5838 16.6548 59.7386 16.9361 59.8409C17.2202 59.9403 17.5312 59.9901 17.8693 59.9901C18.2415 59.9901 18.5724 59.9318 18.8622 59.8153C19.1548 59.696 19.3849 59.5312 19.5526 59.321C19.7202 59.108 19.804 58.8594 19.804 58.5753C19.804 58.3168 19.7301 58.1051 19.5824 57.9403C19.4375 57.7756 19.2401 57.6392 18.9901 57.5312C18.7429 57.4233 18.4631 57.3281 18.1506 57.2457L17.1193 56.9645C16.4205 56.7741 15.8665 56.4943 15.4574 56.125C15.0511 55.7557 14.848 55.267 14.848 54.6591C14.848 54.1562 14.9844 53.7173 15.2571 53.3423C15.5298 52.9673 15.8991 52.6761 16.3651 52.4688C16.831 52.2585 17.3565 52.1534 17.9418 52.1534C18.5327 52.1534 19.054 52.2571 19.5057 52.4645C19.9602 52.6719 20.3182 52.9574 20.5795 53.321C20.8409 53.6818 20.9773 54.0966 20.9886 54.5653H19.7188ZM23.8533 52.2727V61H22.5792V52.2727H23.8533ZM25.5675 61V54.4545H26.8416V61H25.5675ZM26.2109 53.4446C25.9893 53.4446 25.799 53.3707 25.6399 53.223C25.4837 53.0724 25.4055 52.8935 25.4055 52.6861C25.4055 52.4759 25.4837 52.2969 25.6399 52.1491C25.799 51.9986 25.9893 51.9233 26.2109 51.9233C26.4325 51.9233 26.6214 51.9986 26.7777 52.1491C26.9368 52.2969 27.0163 52.4759 27.0163 52.6861C27.0163 52.8935 26.9368 53.0724 26.7777 53.223C26.6214 53.3707 26.4325 53.4446 26.2109 53.4446ZM31.006 61.1278C30.4776 61.1278 30.006 60.9929 29.5913 60.723C29.1793 60.4503 28.8555 60.0625 28.6197 59.5597C28.3867 59.054 28.2702 58.4474 28.2702 57.7401C28.2702 57.0327 28.3881 56.4276 28.6239 55.9247C28.8626 55.4219 29.1893 55.0369 29.604 54.7699C30.0188 54.5028 30.489 54.3693 31.0146 54.3693C31.4208 54.3693 31.7475 54.4375 31.9947 54.5739C32.2447 54.7074 32.4379 54.8636 32.5742 55.0426C32.7134 55.2216 32.8214 55.3793 32.8981 55.5156H32.9748V52.2727H34.2489V61H33.0046V59.9815H32.8981C32.8214 60.1207 32.7106 60.2798 32.5657 60.4588C32.4237 60.6378 32.2276 60.794 31.9776 60.9276C31.7276 61.0611 31.4038 61.1278 31.006 61.1278ZM31.2873 60.0412C31.6538 60.0412 31.9634 59.9446 32.2163 59.7514C32.4719 59.5554 32.6651 59.2841 32.7958 58.9375C32.9293 58.5909 32.9961 58.1875 32.9961 57.7273C32.9961 57.2727 32.9308 56.875 32.8001 56.5341C32.6694 56.1932 32.4776 55.9276 32.2248 55.7372C31.9719 55.5469 31.6594 55.4517 31.2873 55.4517C30.9038 55.4517 30.5842 55.5511 30.3285 55.75C30.0728 55.9489 29.8796 56.2202 29.7489 56.5639C29.6211 56.9077 29.5572 57.2955 29.5572 57.7273C29.5572 58.1648 29.6225 58.5582 29.7532 58.9077C29.8839 59.2571 30.0771 59.5341 30.3327 59.7386C30.5913 59.9403 30.9094 60.0412 31.2873 60.0412ZM38.8885 61.1321C38.2436 61.1321 37.6882 60.9943 37.2223 60.7188C36.7592 60.4403 36.4013 60.0497 36.1484 59.5469C35.8984 59.0412 35.7734 58.4489 35.7734 57.7699C35.7734 57.0994 35.8984 56.5085 36.1484 55.9972C36.4013 55.4858 36.7536 55.0866 37.2053 54.7997C37.6598 54.5128 38.1911 54.3693 38.799 54.3693C39.1683 54.3693 39.5263 54.4304 39.8729 54.5526C40.2195 54.6747 40.5305 54.8665 40.8061 55.1278C41.0817 55.3892 41.299 55.7287 41.4581 56.1463C41.6172 56.5611 41.6967 57.0653 41.6967 57.6591V58.1108H36.4936V57.1562H40.4482C40.4482 56.821 40.38 56.5241 40.2436 56.2656C40.1072 56.0043 39.9155 55.7983 39.6683 55.6477C39.424 55.4972 39.1371 55.4219 38.8075 55.4219C38.4496 55.4219 38.1371 55.5099 37.87 55.6861C37.6058 55.8594 37.4013 56.0866 37.2564 56.3679C37.1143 56.6463 37.0433 56.9489 37.0433 57.2756V58.0213C37.0433 58.4588 37.12 58.831 37.2734 59.1378C37.4297 59.4446 37.647 59.679 37.9254 59.8409C38.2038 60 38.5291 60.0795 38.9013 60.0795C39.1428 60.0795 39.3629 60.0455 39.5618 59.9773C39.7607 59.9062 39.9325 59.8011 40.0774 59.6619C40.2223 59.5227 40.3331 59.3509 40.4098 59.1463L41.6158 59.3636C41.5192 59.7187 41.3459 60.0298 41.0959 60.2969C40.8487 60.5611 40.5376 60.767 40.1626 60.9148C39.7905 61.0597 39.3658 61.1321 38.8885 61.1321ZM47.5604 52.2727V61H46.2862V52.2727H47.5604ZM52.0955 61.1321C51.4506 61.1321 50.8952 60.9943 50.4293 60.7188C49.9663 60.4403 49.6083 60.0497 49.3555 59.5469C49.1055 59.0412 48.9805 58.4489 48.9805 57.7699C48.9805 57.0994 49.1055 56.5085 49.3555 55.9972C49.6083 55.4858 49.9606 55.0866 50.4123 54.7997C50.8668 54.5128 51.3981 54.3693 52.006 54.3693C52.3754 54.3693 52.7333 54.4304 53.0799 54.5526C53.4265 54.6747 53.7376 54.8665 54.0131 55.1278C54.2887 55.3892 54.506 55.7287 54.6651 56.1463C54.8242 56.5611 54.9038 57.0653 54.9038 57.6591V58.1108H49.7006V57.1562H53.6552C53.6552 56.821 53.587 56.5241 53.4506 56.2656C53.3143 56.0043 53.1225 55.7983 52.8754 55.6477C52.631 55.4972 52.3441 55.4219 52.0146 55.4219C51.6566 55.4219 51.3441 55.5099 51.0771 55.6861C50.8129 55.8594 50.6083 56.0866 50.4634 56.3679C50.3214 56.6463 50.2504 56.9489 50.2504 57.2756V58.0213C50.2504 58.4588 50.3271 58.831 50.4805 59.1378C50.6367 59.4446 50.854 59.679 51.1325 59.8409C51.4109 60 51.7362 60.0795 52.1083 60.0795C52.3498 60.0795 52.57 60.0455 52.7688 59.9773C52.9677 59.9062 53.1396 59.8011 53.2844 59.6619C53.4293 59.5227 53.5401 59.3509 53.6168 59.1463L54.8228 59.3636C54.7262 59.7187 54.5529 60.0298 54.3029 60.2969C54.0558 60.5611 53.7447 60.767 53.3697 60.9148C52.9975 61.0597 52.5728 61.1321 52.0955 61.1321ZM59.4325 54.4545V55.4773H55.7337V54.4545H59.4325ZM56.7479 61V53.696C56.7479 53.2869 56.8374 52.9474 57.0163 52.6776C57.1953 52.4048 57.4325 52.2017 57.728 52.0682C58.0234 51.9318 58.3445 51.8636 58.6911 51.8636C58.9467 51.8636 59.1655 51.8849 59.3473 51.9276C59.5291 51.9673 59.6641 52.0043 59.7521 52.0384L59.4538 53.0696C59.3942 53.0526 59.3175 53.0327 59.2237 53.0099C59.13 52.9844 59.0163 52.9716 58.8828 52.9716C58.5732 52.9716 58.3516 53.0483 58.218 53.2017C58.0874 53.3551 58.022 53.5767 58.022 53.8665V61H56.7479ZM63.8026 54.4545V55.4773H60.2273V54.4545H63.8026ZM61.1861 52.8864H62.4602V59.0781C62.4602 59.3253 62.4972 59.5114 62.571 59.6364C62.6449 59.7585 62.7401 59.8423 62.8565 59.8878C62.9759 59.9304 63.1051 59.9517 63.2443 59.9517C63.3466 59.9517 63.4361 59.9446 63.5128 59.9304C63.5895 59.9162 63.6491 59.9048 63.6918 59.8963L63.9219 60.9489C63.848 60.9773 63.7429 61.0057 63.6065 61.0341C63.4702 61.0653 63.2997 61.0824 63.0952 61.0852C62.7599 61.0909 62.4474 61.0312 62.1577 60.9062C61.8679 60.7812 61.6335 60.5881 61.4545 60.3267C61.2756 60.0653 61.1861 59.7372 61.1861 59.3423V52.8864Z" fill="#A2A7D1"/>
<path d="M23.6719 36H19.5156L24.9141 20H30.0625L35.4609 36H31.3047L27.5469 24.0312H27.4219L23.6719 36ZM23.1172 29.7031H31.8047V32.6406H23.1172V29.7031ZM37.1836 36V20H43.8555C45.0534 20 46.056 20.1693 46.8633 20.5078C47.6758 20.8464 48.2852 21.3203 48.6914 21.9297C49.1029 22.5391 49.3086 23.2448 49.3086 24.0469C49.3086 24.6562 49.181 25.2005 48.9258 25.6797C48.6706 26.1536 48.319 26.5469 47.8711 26.8594C47.4232 27.1719 46.9049 27.3906 46.3164 27.5156V27.6719C46.9622 27.7031 47.5586 27.8776 48.1055 28.1953C48.6576 28.513 49.1003 28.9557 49.4336 29.5234C49.7669 30.0859 49.9336 30.7526 49.9336 31.5234C49.9336 32.3828 49.7148 33.151 49.2773 33.8281C48.8398 34.5 48.207 35.0312 47.3789 35.4219C46.5508 35.8073 45.5456 36 44.3633 36H37.1836ZM41.0508 32.8828H43.4414C44.2799 32.8828 44.8971 32.724 45.293 32.4062C45.694 32.0885 45.8945 31.6458 45.8945 31.0781C45.8945 30.6667 45.7982 30.3125 45.6055 30.0156C45.4128 29.7135 45.1393 29.4818 44.7852 29.3203C44.431 29.1536 44.0065 29.0703 43.5117 29.0703H41.0508V32.8828ZM41.0508 26.5781H43.1914C43.6133 26.5781 43.9883 26.5078 44.3164 26.3672C44.6445 26.2266 44.8997 26.0234 45.082 25.7578C45.2695 25.4922 45.3633 25.1719 45.3633 24.7969C45.3633 24.2604 45.1732 23.8385 44.793 23.5312C44.4128 23.224 43.8997 23.0703 43.2539 23.0703H41.0508V26.5781Z" fill="#165FCD"/>
<path opacity="0.5" d="M58.7344 25.7969H54.8281C54.776 25.3958 54.6693 25.0339 54.5078 24.7109C54.3464 24.388 54.1328 24.112 53.8672 23.8828C53.6016 23.6536 53.2865 23.4792 52.9219 23.3594C52.5625 23.2344 52.1641 23.1719 51.7266 23.1719C50.9505 23.1719 50.2813 23.362 49.7188 23.7422C49.1615 24.1224 48.7318 24.6719 48.4297 25.3906C48.1328 26.1094 47.9844 26.9792 47.9844 28C47.9844 29.0625 48.1354 29.9531 48.4375 30.6719C48.7448 31.3854 49.1745 31.9245 49.7266 32.2891C50.2839 32.6484 50.9427 32.8281 51.7031 32.8281C52.1302 32.8281 52.5182 32.7734 52.8672 32.6641C53.2214 32.5547 53.5313 32.3958 53.7969 32.1875C54.0677 31.974 54.2891 31.7161 54.4609 31.4141C54.638 31.1068 54.7604 30.7604 54.8281 30.375L58.7344 30.3984C58.6667 31.1068 58.4609 31.8047 58.1172 32.4922C57.7786 33.1797 57.3125 33.8073 56.7188 34.375C56.125 34.9375 55.401 35.3854 54.5469 35.7187C53.6979 36.0521 52.724 36.2187 51.625 36.2187C50.1771 36.2187 48.8802 35.901 47.7344 35.2656C46.5938 34.625 45.6927 33.6927 45.0313 32.4687C44.3698 31.2448 44.0391 29.7552 44.0391 28C44.0391 26.2396 44.375 24.7474 45.0469 23.5234C45.7188 22.2995 46.6276 21.3698 47.7734 20.7344C48.9193 20.099 50.2031 19.7812 51.625 19.7812C52.5938 19.7812 53.4896 19.9167 54.3125 20.1875C55.1354 20.4531 55.8594 20.8437 56.4844 21.3594C57.1094 21.8698 57.6172 22.4974 58.0078 23.2422C58.3984 23.987 58.6406 24.8385 58.7344 25.7969Z" fill="#165FCD"/>
</svg>
