<svg width="14" height="16" viewBox="0 0 14 16" fill="none" xmlns="http://www.w3.org/2000/svg">
<path fill-rule="evenodd" clip-rule="evenodd" d="M2.75018 4.25C2.75018 2.89571 4.24278 1.5 6.50018 1.5C7.6493 1.5 8.48907 1.73196 9.07934 2.12451C9.65454 2.50704 10.0614 3.08709 10.2726 3.9319C10.373 4.33375 10.7802 4.57807 11.1821 4.47761C11.5839 4.37715 11.8282 3.96994 11.7278 3.5681C11.439 2.41291 10.8385 1.49296 9.90998 0.875492C8.99657 0.268042 7.83633 0 6.50018 0C3.78701 0 1.25018 1.7383 1.25018 4.25C1.25018 4.78876 1.3669 5.29193 1.57704 5.75H3.37182C2.97122 5.29847 2.75018 4.77117 2.75018 4.25ZM11.4233 9.75H9.62853C10.0291 10.2015 10.2502 10.7288 10.2502 11.25C10.2502 12.6043 8.75758 14 6.50018 14C5.35105 14 4.51129 13.768 3.92102 13.3755C3.34582 12.993 2.93899 12.4129 2.72778 11.5681C2.62732 11.1663 2.22012 10.9219 1.81828 11.0224C1.41643 11.1229 1.17211 11.5301 1.27257 11.9319C1.56137 13.0871 2.1619 14.007 3.09038 14.6245C4.00379 15.232 5.16402 15.5 6.50018 15.5C9.21334 15.5 11.7502 13.7617 11.7502 11.25C11.7502 10.7112 11.6335 10.2081 11.4233 9.75Z" fill="#A0A5D0"/>
<path d="M1 7.75H12.3333" stroke="#A0A5D0" stroke-width="1.5" stroke-linecap="round" stroke-linejoin="round"/>
</svg>
