<svg width="39" height="39" viewBox="0 0 39 39" fill="none" xmlns="http://www.w3.org/2000/svg">
<path d="M21.3749 12.839L21.6869 14.2203L22.8843 13.4642L30.0793 8.92068L25.5358 16.1157L24.7797 17.3131L26.161 17.6251L34.4614 19.5L26.161 21.3749L24.7797 21.6869L25.5358 22.8843L30.0793 30.0793L22.8843 25.5358L21.6869 24.7797L21.3749 26.161L19.5 34.4614L17.6251 26.161L17.3131 24.7797L16.1157 25.5358L8.92068 30.0793L13.4642 22.8843L14.2203 21.6869L12.839 21.3749L4.53857 19.5L12.839 17.6251L14.2203 17.3131L13.4642 16.1157L8.92068 8.92068L16.1157 13.4642L17.3131 14.2203L17.6251 12.839L19.5 4.53857L21.3749 12.839Z" fill="#165FCD" fill-opacity="0.5" stroke="#165FCD" stroke-width="2"/>
</svg>
