<svg width="79" height="79" viewBox="0 0 79 79" fill="none" xmlns="http://www.w3.org/2000/svg">
<path d="M9.52841 53.4062V52.2727H16.2827V53.4062H13.5597V61H12.2472V53.4062H9.52841ZM17.7283 63.4545C17.538 63.4545 17.3647 63.4389 17.2085 63.4077C17.0522 63.3793 16.9357 63.348 16.859 63.3139L17.1658 62.2699C17.3988 62.3324 17.6062 62.3594 17.788 62.3509C17.9698 62.3423 18.1303 62.2741 18.2695 62.1463C18.4116 62.0185 18.5366 61.8097 18.6445 61.5199L18.8022 61.0852L16.4073 54.4545H17.771L19.4286 59.5341H19.4968L21.1545 54.4545H22.5224L19.8249 61.8736C19.6999 62.2145 19.5408 62.5028 19.3477 62.7386C19.1545 62.9773 18.9244 63.1563 18.6573 63.2756C18.3903 63.3949 18.0806 63.4545 17.7283 63.4545ZM23.7198 63.4545V54.4545H24.9641V55.5156H25.0707C25.1445 55.3793 25.2511 55.2216 25.3903 55.0426C25.5295 54.8636 25.7227 54.7074 25.9698 54.5739C26.217 54.4375 26.5437 54.3693 26.9499 54.3693C27.4783 54.3693 27.9499 54.5028 28.3647 54.7699C28.7795 55.0369 29.1048 55.4219 29.3406 55.9247C29.5792 56.4276 29.6985 57.0327 29.6985 57.7401C29.6985 58.4474 29.5806 59.054 29.3448 59.5597C29.109 60.0625 28.7852 60.4503 28.3732 60.723C27.9613 60.9929 27.4911 61.1278 26.9627 61.1278C26.565 61.1278 26.2397 61.0611 25.9869 60.9276C25.7369 60.794 25.5408 60.6378 25.3988 60.4588C25.2567 60.2798 25.1474 60.1207 25.0707 59.9815H24.994V63.4545H23.7198ZM24.9684 57.7273C24.9684 58.1875 25.0352 58.5909 25.1687 58.9375C25.3022 59.2841 25.4954 59.5554 25.7482 59.7514C26.0011 59.9446 26.3107 60.0412 26.6772 60.0412C27.0579 60.0412 27.3761 59.9403 27.6317 59.7386C27.8874 59.5341 28.0806 59.2571 28.2113 58.9077C28.3448 58.5582 28.4116 58.1648 28.4116 57.7273C28.4116 57.2955 28.3462 56.9077 28.2156 56.5639C28.0877 56.2202 27.8945 55.9489 27.636 55.75C27.3803 55.5511 27.0607 55.4517 26.6772 55.4517C26.3079 55.4517 25.9954 55.5469 25.7397 55.7372C25.4869 55.9276 25.2951 56.1932 25.1644 56.5341C25.0337 56.875 24.9684 57.2727 24.9684 57.7273ZM33.9471 61.1321C33.3022 61.1321 32.7468 60.9943 32.2809 60.7188C31.8178 60.4403 31.4599 60.0497 31.207 59.5469C30.957 59.0412 30.832 58.4489 30.832 57.7699C30.832 57.0994 30.957 56.5085 31.207 55.9972C31.4599 55.4858 31.8121 55.0866 32.2638 54.7997C32.7184 54.5128 33.2496 54.3693 33.8576 54.3693C34.2269 54.3693 34.5849 54.4304 34.9315 54.5526C35.2781 54.6747 35.5891 54.8665 35.8647 55.1278C36.1403 55.3892 36.3576 55.7287 36.5167 56.1463C36.6758 56.5611 36.7553 57.0653 36.7553 57.6591V58.1108H31.5522V57.1562H35.5067C35.5067 56.821 35.4386 56.5241 35.3022 56.2656C35.1658 56.0043 34.9741 55.7983 34.7269 55.6477C34.4826 55.4972 34.1957 55.4219 33.8661 55.4219C33.5082 55.4219 33.1957 55.5099 32.9286 55.6861C32.6644 55.8594 32.4599 56.0866 32.315 56.3679C32.1729 56.6463 32.1019 56.9489 32.1019 57.2756V58.0213C32.1019 58.4588 32.1786 58.831 32.332 59.1378C32.4883 59.4446 32.7056 59.679 32.984 59.8409C33.2624 60 33.5877 60.0795 33.9599 60.0795C34.2013 60.0795 34.4215 60.0455 34.6204 59.9773C34.8192 59.9062 34.9911 59.8011 35.136 59.6619C35.2809 59.5227 35.3917 59.3509 35.4684 59.1463L36.6744 59.3636C36.5778 59.7187 36.4045 60.0298 36.1545 60.2969C35.9073 60.5611 35.5962 60.767 35.2212 60.9148C34.8491 61.0597 34.4244 61.1321 33.9471 61.1321ZM39.5763 61L37.6502 54.4545H38.967L40.2496 59.2614H40.3136L41.6005 54.4545H42.9173L44.1957 59.2401H44.2596L45.5337 54.4545H46.8505L44.9286 61H43.6289L42.2994 56.2741H42.2013L40.8718 61H39.5763ZM48.0597 61V54.4545H49.2912V55.4943H49.3594C49.4787 55.142 49.6889 54.8651 49.9901 54.6634C50.294 54.4588 50.6378 54.3565 51.0213 54.3565C51.1009 54.3565 51.1946 54.3594 51.3026 54.3651C51.4134 54.3707 51.5 54.3778 51.5625 54.3864V55.6051C51.5114 55.5909 51.4205 55.5753 51.2898 55.5582C51.1591 55.5384 51.0284 55.5284 50.8977 55.5284C50.5966 55.5284 50.3281 55.5923 50.0923 55.7202C49.8594 55.8452 49.6747 56.0199 49.5384 56.2443C49.402 56.4659 49.3338 56.7187 49.3338 57.0028V61H48.0597ZM52.6651 61V54.4545H53.9393V61H52.6651ZM53.3086 53.4446C53.087 53.4446 52.8967 53.3707 52.7376 53.223C52.5813 53.0724 52.5032 52.8935 52.5032 52.6861C52.5032 52.4759 52.5813 52.2969 52.7376 52.1491C52.8967 51.9986 53.087 51.9233 53.3086 51.9233C53.5302 51.9233 53.7191 51.9986 53.8754 52.1491C54.0344 52.2969 54.114 52.4759 54.114 52.6861C54.114 52.8935 54.0344 53.0724 53.8754 53.223C53.7191 53.3707 53.5302 53.4446 53.3086 53.4446ZM58.7088 54.4545V55.4773H55.1335V54.4545H58.7088ZM56.0923 52.8864H57.3665V59.0781C57.3665 59.3253 57.4034 59.5114 57.4773 59.6364C57.5511 59.7585 57.6463 59.8423 57.7628 59.8878C57.8821 59.9304 58.0114 59.9517 58.1506 59.9517C58.2528 59.9517 58.3423 59.9446 58.419 59.9304C58.4957 59.9162 58.5554 59.9048 58.598 59.8963L58.8281 60.9489C58.7543 60.9773 58.6491 61.0057 58.5128 61.0341C58.3764 61.0653 58.206 61.0824 58.0014 61.0852C57.6662 61.0909 57.3537 61.0312 57.0639 60.9062C56.7741 60.7812 56.5398 60.5881 56.3608 60.3267C56.1818 60.0653 56.0923 59.7372 56.0923 59.3423V52.8864ZM62.869 61.1321C62.2241 61.1321 61.6687 60.9943 61.2028 60.7188C60.7397 60.4403 60.3817 60.0497 60.1289 59.5469C59.8789 59.0412 59.7539 58.4489 59.7539 57.7699C59.7539 57.0994 59.8789 56.5085 60.1289 55.9972C60.3817 55.4858 60.734 55.0866 61.1857 54.7997C61.6403 54.5128 62.1715 54.3693 62.7795 54.3693C63.1488 54.3693 63.5067 54.4304 63.8533 54.5526C64.1999 54.6747 64.511 54.8665 64.7866 55.1278C65.0621 55.3892 65.2795 55.7287 65.4386 56.1463C65.5977 56.5611 65.6772 57.0653 65.6772 57.6591V58.1108H60.4741V57.1562H64.4286C64.4286 56.821 64.3604 56.5241 64.2241 56.2656C64.0877 56.0043 63.896 55.7983 63.6488 55.6477C63.4045 55.4972 63.1175 55.4219 62.788 55.4219C62.43 55.4219 62.1175 55.5099 61.8505 55.6861C61.5863 55.8594 61.3817 56.0866 61.2369 56.3679C61.0948 56.6463 61.0238 56.9489 61.0238 57.2756V58.0213C61.0238 58.4588 61.1005 58.831 61.2539 59.1378C61.4102 59.4446 61.6275 59.679 61.9059 59.8409C62.1843 60 62.5096 60.0795 62.8817 60.0795C63.1232 60.0795 63.3434 60.0455 63.5423 59.9773C63.7411 59.9062 63.913 59.8011 64.0579 59.6619C64.2028 59.5227 64.3136 59.3509 64.3903 59.1463L65.5962 59.3636C65.4996 59.7187 65.3263 60.0298 65.0763 60.2969C64.8292 60.5611 64.5181 60.767 64.1431 60.9148C63.771 61.0597 63.3462 61.1321 62.869 61.1321ZM67.0909 61V54.4545H68.3224V55.4943H68.3906C68.5099 55.142 68.7202 54.8651 69.0213 54.6634C69.3253 54.4588 69.669 54.3565 70.0526 54.3565C70.1321 54.3565 70.2259 54.3594 70.3338 54.3651C70.4446 54.3707 70.5312 54.3778 70.5938 54.3864V55.6051C70.5426 55.5909 70.4517 55.5753 70.321 55.5582C70.1903 55.5384 70.0597 55.5284 69.929 55.5284C69.6278 55.5284 69.3594 55.5923 69.1236 55.7202C68.8906 55.8452 68.706 56.0199 68.5696 56.2443C68.4332 56.4659 68.3651 56.7187 68.3651 57.0028V61H67.0909Z" fill="#A2A7D1"/>
<path d="M19.6719 36H15.5156L20.9141 20H26.0625L31.4609 36H27.3047L23.5469 24.0312H23.4219L19.6719 36ZM19.1172 29.7031H27.8047V32.6406H19.1172V29.7031ZM33.1836 36V20H39.8555C41.0534 20 42.056 20.1693 42.8633 20.5078C43.6758 20.8464 44.2852 21.3203 44.6914 21.9297C45.1029 22.5391 45.3086 23.2448 45.3086 24.0469C45.3086 24.6562 45.181 25.2005 44.9258 25.6797C44.6706 26.1536 44.319 26.5469 43.8711 26.8594C43.4232 27.1719 42.9049 27.3906 42.3164 27.5156V27.6719C42.9622 27.7031 43.5586 27.8776 44.1055 28.1953C44.6576 28.513 45.1003 28.9557 45.4336 29.5234C45.7669 30.0859 45.9336 30.7526 45.9336 31.5234C45.9336 32.3828 45.7148 33.151 45.2773 33.8281C44.8398 34.5 44.207 35.0312 43.3789 35.4219C42.5508 35.8073 41.5456 36 40.3633 36H33.1836ZM37.0508 32.8828H39.4414C40.2799 32.8828 40.8971 32.724 41.293 32.4062C41.694 32.0885 41.8945 31.6458 41.8945 31.0781C41.8945 30.6667 41.7982 30.3125 41.6055 30.0156C41.4128 29.7135 41.1393 29.4818 40.7852 29.3203C40.431 29.1536 40.0065 29.0703 39.5117 29.0703H37.0508V32.8828ZM37.0508 26.5781H39.1914C39.6133 26.5781 39.9883 26.5078 40.3164 26.3672C40.6445 26.2266 40.8997 26.0234 41.082 25.7578C41.2695 25.4922 41.3633 25.1719 41.3633 24.7969C41.3633 24.2604 41.1732 23.8385 40.793 23.5312C40.4128 23.224 39.8997 23.0703 39.2539 23.0703H37.0508V26.5781Z" fill="#165FCD"/>
<path d="M62.3164 25.7969H58.4102C58.3581 25.3958 58.2513 25.0339 58.0898 24.7109C57.9284 24.388 57.7148 24.112 57.4492 23.8828C57.1836 23.6536 56.8685 23.4792 56.5039 23.3594C56.1445 23.2344 55.7461 23.1719 55.3086 23.1719C54.5326 23.1719 53.8633 23.362 53.3008 23.7422C52.7435 24.1224 52.3138 24.6719 52.0117 25.3906C51.7148 26.1094 51.5664 26.9792 51.5664 28C51.5664 29.0625 51.7174 29.9531 52.0195 30.6719C52.3268 31.3854 52.7565 31.9245 53.3086 32.2891C53.8659 32.6484 54.5247 32.8281 55.2852 32.8281C55.7122 32.8281 56.1003 32.7734 56.4492 32.6641C56.8034 32.5547 57.1133 32.3958 57.3789 32.1875C57.6497 31.974 57.8711 31.7161 58.043 31.4141C58.2201 31.1068 58.3424 30.7604 58.4102 30.375L62.3164 30.3984C62.2487 31.1068 62.043 31.8047 61.6992 32.4922C61.3607 33.1797 60.8945 33.8073 60.3008 34.375C59.707 34.9375 58.9831 35.3854 58.1289 35.7187C57.2799 36.0521 56.306 36.2187 55.207 36.2187C53.7591 36.2187 52.4622 35.901 51.3164 35.2656C50.1758 34.625 49.2747 33.6927 48.6133 32.4687C47.9518 31.2448 47.6211 29.7552 47.6211 28C47.6211 26.2396 47.957 24.7474 48.6289 23.5234C49.3008 22.2995 50.2096 21.3698 51.3555 20.7344C52.5013 20.099 53.7852 19.7812 55.207 19.7812C56.1758 19.7812 57.0716 19.9167 57.8945 20.1875C58.7174 20.4531 59.4414 20.8437 60.0664 21.3594C60.6914 21.8698 61.1992 22.4974 61.5898 23.2422C61.9805 23.987 62.2227 24.8385 62.3164 25.7969Z" fill="#165FCD" fill-opacity="0.3"/>
<rect width="1" height="22" transform="matrix(-1 0 0 1 48 17)" fill="#165FCD"/>
</svg>
